<svg width="1442" height="132" viewBox="0 0 1442 132" fill="none" xmlns="http://www.w3.org/2000/svg">
<path d="M238.576 105.835C238.683 105.463 238.468 105.076 238.096 104.969C237.725 104.862 237.337 105.077 237.23 105.448L238.576 105.835ZM236.571 110.274L235.898 110.081C235.842 110.277 235.874 110.489 235.987 110.66C236.099 110.83 236.281 110.943 236.484 110.969L236.571 110.274ZM244.571 111.278L244.484 111.972C244.781 112.01 245.069 111.854 245.2 111.585C245.332 111.315 245.277 110.992 245.064 110.781L244.571 111.278ZM241.574 108.3L240.993 108.69C241.019 108.728 241.048 108.764 241.081 108.796L241.574 108.3ZM241.481 106.906C241.265 106.585 240.83 106.499 240.51 106.715C240.189 106.931 240.103 107.366 240.319 107.686L241.481 106.906ZM263.999 78.4416C264.386 78.4416 264.699 78.1282 264.699 77.7416C264.699 77.355 264.386 77.0416 263.999 77.0416V78.4416ZM248.571 77.0416C248.184 77.0416 247.871 77.355 247.871 77.7416C247.871 78.1282 248.184 78.4416 248.571 78.4416V77.0416ZM241.668 108.398L241.425 109.054L242.176 109.333L242.352 108.551L241.668 108.398ZM237.279 106.769L236.588 106.659L236.497 107.226L237.035 107.426L237.279 106.769ZM269.38 116.57C269.747 116.691 270.143 116.491 270.264 116.124C270.385 115.757 270.185 115.361 269.818 115.24L269.38 116.57ZM264.386 110.219L263.741 110.491L263.741 110.491L264.386 110.219ZM256.652 82.3725L255.963 82.4999L256.652 82.3725ZM259.342 77.7005C259.681 77.5153 259.806 77.0901 259.621 76.7507C259.436 76.4113 259.01 76.2863 258.671 76.4715L259.342 77.7005ZM234.999 116.072C234.722 116.341 234.716 116.785 234.986 117.062C235.256 117.338 235.699 117.344 235.976 117.075L234.999 116.072ZM245.526 106.473L244.999 106.012L244.999 106.012L245.526 106.473ZM259.205 91.4142C259.454 91.1186 259.417 90.677 259.121 90.4278C258.826 90.1786 258.384 90.2162 258.135 90.5118L259.205 91.4142ZM257.922 85.711C258.123 85.3811 258.019 84.9503 257.689 84.7487C257.359 84.5472 256.928 84.6513 256.727 84.9812L257.922 85.711ZM246.559 98.2319L247.037 98.7437L246.559 98.2319ZM232.778 106.864C232.435 107.044 232.304 107.467 232.484 107.809C232.664 108.151 233.087 108.283 233.429 108.103L232.778 106.864ZM227.72 87.4623C227.611 87.0913 227.223 86.8784 226.852 86.9869C226.481 87.0953 226.268 87.4841 226.376 87.8552L227.72 87.4623ZM236.804 121.03L236.132 121.226C236.203 121.47 236.4 121.655 236.647 121.712L236.804 121.03ZM246.739 124.025C247.116 124.111 247.492 123.876 247.578 123.499C247.664 123.122 247.429 122.747 247.052 122.66L246.739 124.025ZM229.916 95.8826C230.139 95.5666 230.063 95.1299 229.747 94.9071C229.431 94.6844 228.994 94.76 228.772 95.0759L229.916 95.8826ZM215.492 115.13L214.847 115.402C214.948 115.643 215.177 115.808 215.438 115.828L215.492 115.13ZM235.353 117.351C235.738 117.38 236.075 117.092 236.104 116.706C236.133 116.321 235.845 115.984 235.459 115.955L235.353 117.351ZM220.322 86.7247C219.935 86.7247 219.622 87.0381 219.622 87.4247C219.622 87.8113 219.935 88.1247 220.322 88.1247V86.7247ZM232.001 88.1247C232.388 88.1247 232.701 87.8113 232.701 87.4247C232.701 87.0381 232.388 86.7247 232.001 86.7247V88.1247ZM240.549 57.614C240.378 57.961 240.521 58.3804 240.869 58.5508C241.216 58.7212 241.635 58.5779 241.805 58.2309L240.549 57.614ZM244.045 54.8054L244.038 54.1054L244.038 54.1054L244.045 54.8054ZM247.307 51.5644L246.892 51.0008C246.865 51.0204 246.84 51.0419 246.816 51.065L247.307 51.5644ZM247.307 50.2428L247.474 49.563L247.474 49.563L247.307 50.2428ZM246.359 48.5187C246.364 48.1321 246.054 47.8149 245.667 47.8102C245.281 47.8055 244.964 48.115 244.959 48.5016L246.359 48.5187ZM242.839 51.0814L243.223 51.6668L243.223 51.6668L242.839 51.0814ZM245.961 46.9385L245.289 47.134L245.289 47.134L245.961 46.9385ZM236.131 51.3144L236.495 51.912L236.495 51.9119L236.131 51.3144ZM229.478 53.5466L229.82 54.157L229.478 53.5466ZM239.233 57.1811L238.609 56.8635L238.609 56.8635L239.233 57.1811ZM226.039 85.0156L225.563 85.5289L225.563 85.5289L226.039 85.0156ZM237.169 92.5439L236.802 93.1399L236.802 93.14L237.169 92.5439ZM240.795 94.9182L240.388 95.4879L240.388 95.4879L240.795 94.9182ZM238.486 117.726L237.811 117.54L237.613 118.257L238.342 118.411L238.486 117.726ZM243.195 118.717L243.051 119.402L243.608 119.519L243.836 118.999L243.195 118.717ZM251.032 100.875L250.402 100.568L250.396 100.581L250.391 100.594L251.032 100.875ZM248.578 92.2846L248.127 92.8201L248.127 92.8201L248.578 92.2846ZM235.43 76.7882C235.083 76.6178 234.664 76.761 234.494 77.108C234.323 77.455 234.466 77.8744 234.813 78.0448L235.43 76.7882ZM245.887 85.6767L245.197 85.5596L245.197 85.5596L245.887 85.6767ZM244.254 88.6632C244.078 89.0077 244.215 89.4292 244.56 89.6046C244.904 89.78 245.326 89.6428 245.501 89.2983L244.254 88.6632ZM239.238 118.33C239.335 117.956 239.11 117.573 238.736 117.476C238.362 117.379 237.98 117.604 237.883 117.978L239.238 118.33ZM237.813 121.03L237.135 120.854C237.038 121.227 237.262 121.609 237.635 121.707L237.813 121.03ZM245.361 123.012L245.184 123.689C245.492 123.77 245.815 123.633 245.971 123.356C246.128 123.078 246.077 122.731 245.848 122.509L245.361 123.012ZM241.825 119.587L241.18 119.314C241.068 119.581 241.13 119.889 241.338 120.09L241.825 119.587ZM242.902 118.837C243.053 118.481 242.886 118.07 242.53 117.92C242.174 117.769 241.763 117.936 241.613 118.292L242.902 118.837ZM208.556 96.8595C208.406 96.5032 207.996 96.336 207.64 96.4861C207.283 96.6361 207.116 97.0466 207.266 97.4029L208.556 96.8595ZM203.019 96.4802C202.632 96.482 202.32 96.7969 202.322 97.1835C202.324 97.5701 202.639 97.882 203.025 97.8802L203.019 96.4802ZM224.99 101.133C225.172 101.474 225.597 101.602 225.937 101.42C226.278 101.237 226.406 100.813 226.224 100.472L224.99 101.133ZM225.366 77.1227L224.726 76.8384L224.442 77.4778L225.082 77.7623L225.366 77.1227ZM256.469 78.5951L256.316 79.278L256.316 79.2781L256.469 78.5951ZM261.136 78.5445L261.253 79.2347L262.128 79.0863L261.78 78.2699L261.136 78.5445ZM260.029 76.5948L260.564 76.1433L260.514 76.0849L260.454 76.0385L260.029 76.5948ZM242.186 75.4338L241.523 75.2089L241.179 76.2237L242.247 76.1312L242.186 75.4338ZM253.287 75.1034L253.911 75.421L253.911 75.421L253.287 75.1034ZM253.372 77.0859L254.063 76.978L254.063 76.978L253.372 77.0859ZM253.96 80.0595L254.013 80.7575L254.829 80.6959L254.642 79.8994L253.96 80.0595ZM238.149 79.7291L238.458 79.1008L238.458 79.1008L238.149 79.7291ZM1 129.8C0.613401 129.8 0.3 130.113 0.3 130.5C0.3 130.887 0.613401 131.2 1 131.2L1 129.8ZM1441 131.2C1441.39 131.2 1441.7 130.886 1441.7 130.5C1441.7 130.113 1441.39 129.8 1441 129.8L1441 131.2ZM940.478 130.447C940.478 130.833 940.792 131.147 941.178 131.147C941.565 131.147 941.878 130.833 941.878 130.447H940.478ZM883 130.446H882.3C882.3 130.833 882.613 131.146 883 131.146V130.446ZM904.269 130.446V131.146C904.656 131.146 904.969 130.833 904.969 130.446H904.269ZM904.269 16.5335H904.969C904.969 16.3924 904.927 16.2545 904.847 16.1381L904.269 16.5335ZM883 16.5335L882.422 16.138C882.343 16.2545 882.3 16.3924 882.3 16.5335H883ZM893.635 1L894.212 0.604559C894.082 0.413957 893.866 0.300001 893.635 0.3C893.404 0.299999 893.188 0.413953 893.057 0.604553L893.635 1ZM887.431 37.2454H886.731C886.731 37.632 887.045 37.9454 887.431 37.9454V37.2454ZM891.862 37.2454V37.9454C892.249 37.9454 892.562 37.632 892.562 37.2454H891.862ZM895.407 37.2454H894.707C894.707 37.632 895.021 37.9454 895.407 37.9454V37.2454ZM899.838 37.2454V37.9454C900.225 37.9454 900.538 37.632 900.538 37.2454H899.838ZM883.886 43.4495C883.5 43.4495 883.186 43.7629 883.186 44.1495C883.186 44.5361 883.5 44.8495 883.886 44.8495V43.4495ZM903.383 44.8495C903.77 44.8495 904.083 44.5361 904.083 44.1495C904.083 43.7629 903.77 43.4495 903.383 43.4495V44.8495ZM883.886 114.213C883.5 114.213 883.186 114.527 883.186 114.913C883.186 115.3 883.5 115.613 883.886 115.613V114.213ZM903.383 115.613C903.77 115.613 904.083 115.3 904.083 114.913C904.083 114.527 903.77 114.213 903.383 114.213V115.613ZM883.886 20.1484C883.5 20.1484 883.186 20.4618 883.186 20.8484C883.186 21.235 883.5 21.5484 883.886 21.5484V20.1484ZM903.383 21.5484C903.77 21.5484 904.083 21.235 904.083 20.8484C904.083 20.4618 903.77 20.1484 903.383 20.1484V21.5484ZM894.335 53.6419C894.335 53.2553 894.021 52.9419 893.635 52.9419C893.248 52.9419 892.935 53.2553 892.935 53.6419H894.335ZM893.635 57.0938H892.935C892.935 57.2827 893.011 57.4636 893.146 57.5954L893.635 57.0938ZM895.805 60.1843C896.082 60.454 896.525 60.4481 896.795 60.1711C897.064 59.8942 897.059 59.451 896.782 59.1813L895.805 60.1843ZM891.862 76.9419H891.162C891.162 77.3285 891.476 77.6419 891.862 77.6419V76.9419ZM895.407 76.9419V77.6419C895.794 77.6419 896.107 77.3285 896.107 76.9419H895.407ZM891.862 93.3384H891.162C891.162 93.725 891.476 94.0384 891.862 94.0384V93.3384ZM895.407 93.3384V94.0384C895.794 94.0384 896.107 93.725 896.107 93.3384H895.407ZM891.862 108.872H891.162C891.162 109.258 891.476 109.572 891.862 109.572V108.872ZM895.407 108.872V109.572C895.794 109.572 896.107 109.258 896.107 108.872H895.407ZM237.23 105.448L235.898 110.081L237.244 110.468L238.576 105.835L237.23 105.448ZM236.484 110.969L244.484 111.972L244.658 110.583L236.658 109.58L236.484 110.969ZM245.064 110.781L242.068 107.803L241.081 108.796L244.078 111.774L245.064 110.781ZM242.155 107.909L241.481 106.906L240.319 107.686L240.993 108.69L242.155 107.909ZM263.999 77.0416H248.571V78.4416H263.999V77.0416ZM243.687 96.1952L240.985 108.244L242.352 108.551L245.053 96.5015L243.687 96.1952ZM241.912 107.741L237.522 106.113L237.035 107.426L241.425 109.054L241.912 107.741ZM237.97 106.88L239.996 94.179L238.614 93.9585L236.588 106.659L237.97 106.88ZM230.049 115.905C230.049 123.846 223.491 130.305 215.374 130.305V131.705C224.24 131.705 231.449 124.643 231.449 115.905H230.049ZM215.374 130.305C207.258 130.305 200.7 123.846 200.7 115.905H199.3C199.3 124.643 206.509 131.705 215.374 131.705V130.305ZM200.7 115.905C200.7 107.963 207.258 101.505 215.374 101.505V100.105C206.509 100.105 199.3 107.167 199.3 115.905H200.7ZM215.374 101.505C223.491 101.505 230.049 107.963 230.049 115.905H231.449C231.449 107.167 224.24 100.105 215.374 100.105V101.505ZM282.527 115.905C282.527 123.846 275.97 130.305 267.853 130.305V131.705C276.719 131.705 283.927 124.643 283.927 115.905H282.527ZM267.853 130.305C259.737 130.305 253.179 123.846 253.179 115.905H251.779C251.779 124.643 258.988 131.705 267.853 131.705V130.305ZM253.179 115.905C253.179 107.963 259.737 101.505 267.853 101.505V100.105C258.988 100.105 251.779 107.167 251.779 115.905H253.179ZM267.853 101.505C275.97 101.505 282.527 107.963 282.527 115.905H283.927C283.927 107.167 276.719 100.105 267.853 100.105V101.505ZM269.599 115.905C269.818 115.24 269.818 115.24 269.818 115.24C269.819 115.24 269.819 115.24 269.819 115.24C269.819 115.24 269.82 115.241 269.82 115.241C269.821 115.241 269.821 115.241 269.821 115.241C269.821 115.241 269.821 115.241 269.82 115.241C269.817 115.24 269.812 115.238 269.804 115.235C269.787 115.229 269.76 115.218 269.721 115.202C269.645 115.171 269.527 115.119 269.377 115.042C269.077 114.887 268.647 114.633 268.157 114.243C267.18 113.464 265.953 112.134 265.031 109.947L263.741 110.491C264.761 112.912 266.14 114.425 267.284 115.337C267.855 115.792 268.364 116.095 268.738 116.287C268.924 116.383 269.077 116.451 269.187 116.497C269.242 116.519 269.287 116.536 269.319 116.548C269.335 116.554 269.349 116.559 269.359 116.562C269.364 116.564 269.368 116.566 269.372 116.567C269.373 116.568 269.375 116.568 269.376 116.568C269.377 116.569 269.377 116.569 269.378 116.569C269.378 116.569 269.379 116.569 269.379 116.569C269.379 116.569 269.38 116.57 269.599 115.905ZM265.031 109.947C264.083 107.697 262.33 101.696 260.719 95.7478C259.11 89.8108 257.67 84.0293 257.34 82.2451L255.963 82.4999C256.306 84.3502 257.762 90.188 259.368 96.1139C260.97 102.029 262.748 108.134 263.741 110.491L265.031 109.947ZM257.34 82.2451C257.047 80.6612 257.554 79.5374 258.13 78.7954C258.422 78.4185 258.734 78.1388 258.972 77.9544C259.091 77.8626 259.189 77.7957 259.256 77.7532C259.289 77.7321 259.313 77.7171 259.328 77.7083C259.336 77.7039 259.341 77.7011 259.343 77.6998C259.344 77.6991 259.345 77.6988 259.344 77.699C259.344 77.699 259.344 77.6992 259.344 77.6994C259.343 77.6996 259.343 77.6997 259.343 77.6999C259.343 77.7 259.342 77.7001 259.342 77.7002C259.342 77.7003 259.342 77.7005 259.006 77.086C258.671 76.4715 258.671 76.4717 258.67 76.4719C258.67 76.4719 258.67 76.4721 258.67 76.4723C258.669 76.4725 258.669 76.4728 258.668 76.4732C258.667 76.4738 258.666 76.4746 258.664 76.4755C258.661 76.4772 258.657 76.4793 258.652 76.4819C258.643 76.4871 258.631 76.494 258.617 76.5026C258.588 76.5197 258.548 76.5438 258.5 76.5749C258.403 76.637 258.27 76.7276 258.115 76.8475C257.807 77.0863 257.404 77.4469 257.024 77.9373C256.254 78.9299 255.584 80.4494 255.963 82.4999L257.34 82.2451ZM235.487 116.573C235.976 117.075 235.976 117.074 235.976 117.074C235.976 117.074 235.976 117.074 235.976 117.074C235.977 117.074 235.977 117.074 235.977 117.073C235.978 117.072 235.98 117.071 235.982 117.069C235.986 117.065 235.992 117.059 235.999 117.052C236.015 117.036 236.038 117.014 236.068 116.985C236.128 116.926 236.217 116.839 236.33 116.728C236.557 116.507 236.883 116.188 237.28 115.799C238.075 115.02 239.153 113.959 240.291 112.83C242.557 110.583 245.088 108.037 246.053 106.933L244.999 106.012C244.075 107.069 241.587 109.573 239.306 111.836C238.17 112.963 237.093 114.022 236.3 114.799C235.904 115.188 235.578 115.506 235.352 115.727C235.239 115.838 235.151 115.924 235.091 115.982C235.061 116.012 235.038 116.034 235.022 116.049C235.015 116.057 235.009 116.062 235.005 116.066C235.003 116.068 235.001 116.069 235 116.07C235 116.071 235 116.071 234.999 116.071C234.999 116.071 234.999 116.072 234.999 116.072C234.999 116.072 234.999 116.072 235.487 116.573ZM246.053 106.933C247.002 105.847 250.294 101.964 253.341 98.3594C254.866 96.5556 256.332 94.8193 257.417 93.534C257.959 92.8913 258.406 92.3614 258.718 91.9921C258.873 91.8075 258.995 91.663 259.078 91.5647C259.12 91.5155 259.151 91.4779 259.173 91.4526C259.183 91.4399 259.192 91.4303 259.197 91.4239C259.2 91.4207 259.202 91.4183 259.203 91.4166C259.204 91.4158 259.204 91.4152 259.205 91.4148C259.205 91.4146 259.205 91.4145 259.205 91.4144C259.205 91.4143 259.205 91.4142 258.67 90.963C258.135 90.5118 258.135 90.5118 258.135 90.5119C258.135 90.512 258.134 90.5122 258.134 90.5124C258.134 90.5128 258.133 90.5134 258.133 90.5142C258.131 90.5158 258.129 90.5182 258.127 90.5214C258.121 90.5279 258.113 90.5374 258.102 90.5501C258.081 90.5754 258.049 90.613 258.008 90.6621C257.925 90.7604 257.803 90.9049 257.648 91.0894C257.336 91.4586 256.889 91.9885 256.347 92.631C255.262 93.9161 253.797 95.6521 252.272 97.4555C249.219 101.066 245.939 104.937 244.999 106.012L246.053 106.933ZM257.324 85.3461C256.727 84.9812 256.727 84.9811 256.727 84.9811C256.727 84.9811 256.727 84.9811 256.727 84.9811C256.727 84.9812 256.727 84.9814 256.727 84.9816C256.726 84.9822 256.726 84.9831 256.725 84.9845C256.723 84.9872 256.721 84.9915 256.717 84.9973C256.71 85.009 256.699 85.0269 256.684 85.0508C256.654 85.0987 256.609 85.1706 256.548 85.2649C256.427 85.4535 256.246 85.7315 256.008 86.0855C255.531 86.7936 254.824 87.8049 253.907 89.0116C252.074 91.4263 249.409 94.6156 246.082 97.7201L247.037 98.7437C250.438 95.5705 253.155 92.317 255.022 89.8582C255.956 88.6281 256.679 87.595 257.169 86.8679C257.414 86.5043 257.601 86.217 257.727 86.0197C257.79 85.921 257.838 85.8449 257.871 85.7928C257.887 85.7668 257.9 85.7469 257.908 85.7332C257.912 85.7263 257.915 85.721 257.918 85.7173C257.919 85.7155 257.92 85.714 257.92 85.713C257.921 85.7124 257.921 85.712 257.921 85.7117C257.921 85.7115 257.921 85.7113 257.921 85.7113C257.922 85.7111 257.922 85.711 257.324 85.3461ZM246.082 97.7201C243.455 100.171 240.135 102.456 237.454 104.136C236.117 104.974 234.945 105.657 234.109 106.13C233.691 106.367 233.357 106.551 233.128 106.676C233.013 106.738 232.925 106.785 232.866 106.817C232.836 106.833 232.814 106.845 232.799 106.852C232.792 106.856 232.786 106.859 232.783 106.861C232.781 106.862 232.779 106.863 232.779 106.863C232.778 106.863 232.778 106.864 232.778 106.864C232.778 106.864 232.778 106.864 232.778 106.864C232.778 106.864 232.778 106.864 233.103 107.483C233.429 108.103 233.429 108.103 233.429 108.103C233.429 108.103 233.429 108.103 233.43 108.103C233.43 108.102 233.43 108.102 233.431 108.102C233.432 108.101 233.434 108.1 233.436 108.099C233.44 108.097 233.446 108.094 233.454 108.089C233.471 108.081 233.494 108.068 233.526 108.052C233.588 108.018 233.679 107.969 233.797 107.905C234.032 107.777 234.373 107.59 234.798 107.349C235.649 106.867 236.839 106.173 238.197 105.322C240.907 103.624 244.315 101.284 247.037 98.7437L246.082 97.7201ZM226.376 87.8552L236.132 121.226L237.476 120.833L227.72 87.4623L226.376 87.8552ZM236.647 121.712L246.739 124.025L247.052 122.66L236.96 120.347L236.647 121.712ZM228.772 95.0759L214.92 114.727L216.064 115.533L229.916 95.8826L228.772 95.0759ZM215.438 115.828L235.353 117.351L235.459 115.955L215.545 114.432L215.438 115.828ZM220.322 88.1247H232.001V86.7247H220.322V88.1247ZM241.177 57.9224C241.805 58.2309 241.805 58.231 241.805 58.231C241.805 58.2311 241.805 58.2311 241.805 58.2312C241.805 58.2312 241.805 58.2312 241.805 58.2312C241.805 58.2311 241.805 58.2308 241.806 58.2303C241.806 58.2294 241.807 58.2278 241.808 58.2255C241.81 58.2208 241.814 58.2133 241.819 58.2032C241.829 58.183 241.845 58.1524 241.866 58.1128C241.907 58.0336 241.968 57.9189 242.046 57.7806C242.202 57.5027 242.422 57.1361 242.679 56.7728C242.938 56.405 243.219 56.065 243.493 55.8232C243.785 55.5655 243.972 55.5062 244.053 55.5053L244.038 54.1054C243.447 54.1115 242.939 54.4453 242.567 54.7733C242.177 55.1173 241.824 55.5556 241.535 55.9654C241.242 56.3796 240.997 56.7897 240.826 57.0941C240.74 57.2469 240.672 57.3748 240.624 57.4653C240.601 57.5106 240.582 57.5466 240.57 57.5719C240.563 57.5845 240.558 57.5945 240.555 57.6016C240.553 57.6051 240.552 57.6079 240.551 57.61C240.55 57.611 240.55 57.6119 240.549 57.6125C240.549 57.6129 240.549 57.6132 240.549 57.6134C240.549 57.6135 240.549 57.6137 240.549 57.6137C240.549 57.6139 240.549 57.614 241.177 57.9224ZM244.053 55.5053C244.846 55.4972 245.725 55.3449 246.428 54.8972C247.174 54.4224 247.67 53.644 247.67 52.5556H246.27C246.27 53.152 246.03 53.4911 245.676 53.7162C245.28 53.9684 244.696 54.0987 244.038 54.1054L244.053 55.5053ZM247.67 52.5556C247.67 52.3485 247.722 52.2088 247.763 52.1298C247.783 52.0891 247.802 52.0628 247.811 52.0512C247.815 52.0454 247.817 52.0435 247.815 52.0455C247.814 52.0465 247.812 52.0486 247.809 52.0516C247.808 52.0531 247.806 52.0549 247.804 52.0569C247.803 52.0579 247.802 52.059 247.801 52.0602C247.8 52.0607 247.8 52.0613 247.799 52.0619C247.799 52.0622 247.799 52.0626 247.798 52.0629C247.798 52.063 247.798 52.0633 247.798 52.0633C247.798 52.0636 247.797 52.0638 247.307 51.5644C246.816 51.065 246.816 51.0653 246.816 51.0655C246.816 51.0656 246.816 51.0658 246.815 51.066C246.815 51.0663 246.815 51.0667 246.814 51.067C246.814 51.0677 246.813 51.0684 246.812 51.0691C246.811 51.0706 246.809 51.0722 246.808 51.0738C246.804 51.0772 246.801 51.0809 246.797 51.085C246.789 51.0932 246.78 51.1029 246.77 51.1143C246.75 51.1369 246.725 51.166 246.698 51.2015C246.644 51.2725 246.578 51.3701 246.515 51.4947C246.387 51.7461 246.27 52.102 246.27 52.5556H247.67ZM247.307 51.5644C247.722 52.128 247.722 52.1279 247.722 52.1277C247.722 52.1277 247.723 52.1275 247.723 52.1274C247.723 52.1272 247.723 52.127 247.724 52.1268C247.724 52.1263 247.725 52.1258 247.726 52.1252C247.727 52.124 247.729 52.1225 247.732 52.1208C247.736 52.1174 247.742 52.113 247.749 52.1077C247.763 52.097 247.781 52.0825 247.803 52.0645C247.847 52.0288 247.907 51.9782 247.974 51.9162C248.098 51.7998 248.282 51.6109 248.417 51.3795C248.541 51.1653 248.716 50.75 248.512 50.3001C248.314 49.8622 247.877 49.662 247.474 49.563L247.14 50.9226C247.41 50.9888 247.309 51.0364 247.237 50.8773C247.159 50.7061 247.25 50.6006 247.206 50.6755C247.173 50.7332 247.104 50.8128 247.019 50.8926C246.98 50.9286 246.945 50.958 246.921 50.9778C246.909 50.9876 246.9 50.9947 246.894 50.9987C246.892 51.0007 246.89 51.0019 246.89 51.0023C246.889 51.0025 246.89 51.0025 246.89 51.0022C246.89 51.0021 246.89 51.0019 246.891 51.0017C246.891 51.0016 246.891 51.0014 246.891 51.0013C246.891 51.0012 246.891 51.0011 246.891 51.0011C246.892 51.0009 246.892 51.0008 247.307 51.5644ZM247.474 49.563C246.837 49.4068 246.588 49.1026 246.476 48.8937C246.414 48.7778 246.385 48.6701 246.37 48.5944C246.363 48.557 246.361 48.5293 246.359 48.5149C246.359 48.5077 246.359 48.5041 246.359 48.5045C246.359 48.5048 246.359 48.506 246.359 48.5083C246.359 48.5095 246.359 48.5109 246.359 48.5127C246.359 48.5135 246.359 48.5144 246.359 48.5154C246.359 48.516 246.359 48.5165 246.359 48.517C246.359 48.5173 246.359 48.5177 246.359 48.5178C246.359 48.5182 246.359 48.5187 245.659 48.5101C244.959 48.5016 244.959 48.502 244.959 48.5025C244.959 48.5026 244.959 48.5031 244.959 48.5034C244.959 48.504 244.959 48.5046 244.959 48.5053C244.959 48.5066 244.959 48.508 244.959 48.5095C244.959 48.5125 244.959 48.5159 244.959 48.5196C244.959 48.5269 244.959 48.5357 244.959 48.5457C244.96 48.5657 244.961 48.5909 244.963 48.6208C244.968 48.6804 244.977 48.7593 244.994 48.8525C245.029 49.0379 245.099 49.2867 245.241 49.553C245.538 50.1083 246.112 50.6704 247.14 50.9226L247.474 49.563ZM243.223 51.6668C243.916 51.2126 244.876 50.5431 245.605 49.7556C246.307 48.9985 246.979 47.9305 246.633 46.7429L245.289 47.134C245.415 47.5664 245.212 48.1197 244.578 48.804C243.972 49.458 243.136 50.0499 242.455 50.496L243.223 51.6668ZM246.633 46.7429C246.19 45.2188 244.779 44.4506 243.345 44.3208C241.903 44.1904 240.271 44.6718 239.102 45.8196L240.083 46.8184C240.933 45.9837 242.149 45.6184 243.219 45.7151C244.295 45.8125 245.06 46.3453 245.289 47.134L246.633 46.7429ZM239.102 45.8196C237.99 46.9117 237.519 48.0034 237.126 48.8688C236.731 49.74 236.443 50.3041 235.766 50.7168L236.495 51.9119C237.576 51.2528 238.009 50.3104 238.401 49.4475C238.795 48.5787 239.177 47.7086 240.083 46.8184L239.102 45.8196ZM235.766 50.7168C235.007 51.1798 234.061 51.3866 232.875 51.6538C231.728 51.912 230.412 52.2196 229.135 52.9362L229.82 54.157C230.898 53.5519 232.03 53.2792 233.182 53.0196C234.295 52.7689 235.498 52.5204 236.495 51.912L235.766 50.7168ZM229.135 52.9362C227.854 53.655 226.762 54.7779 226.404 56.1351C226.028 57.5574 226.504 59.0589 228.012 60.3552L228.925 59.2934C227.742 58.2769 227.544 57.3003 227.757 56.4924C227.988 55.6194 228.746 54.7599 229.82 54.157L229.135 52.9362ZM228.012 60.3552C229.545 61.6726 231.872 62.1957 234.101 61.7935C236.354 61.3871 238.57 60.0265 239.857 57.4986L238.609 56.8635C237.541 58.9613 235.721 60.0787 233.853 60.4158C231.961 60.757 230.083 60.2888 228.925 59.2934L228.012 60.3552ZM239.857 57.4986C240.071 57.0784 240.303 56.5438 240.546 55.9911C240.792 55.429 241.056 54.8329 241.343 54.2552C241.938 53.0613 242.567 52.0971 243.223 51.6668L242.455 50.496C241.449 51.1554 240.68 52.4454 240.09 53.6311C239.785 54.2432 239.509 54.8682 239.264 55.4288C239.014 55.9987 238.8 56.4881 238.609 56.8635L239.857 57.4986ZM227.721 76.7555C227.199 76.2894 227.198 76.2895 227.198 76.2897C227.198 76.2898 227.198 76.29 227.198 76.2902C227.198 76.2906 227.197 76.291 227.197 76.2916C227.196 76.2926 227.195 76.294 227.193 76.2957C227.19 76.2992 227.186 76.3039 227.181 76.3099C227.17 76.3218 227.155 76.3389 227.136 76.3608C227.099 76.4045 227.046 76.4677 226.98 76.5482C226.848 76.7093 226.664 76.9408 226.455 77.2272C226.039 77.7973 225.51 78.5977 225.08 79.5024C224.253 81.2431 223.635 83.7407 225.563 85.5289L226.515 84.5024C225.33 83.4032 225.552 81.7707 226.345 80.1032C226.725 79.3037 227.2 78.5805 227.586 78.053C227.777 77.7906 227.944 77.5798 228.062 77.4357C228.121 77.3638 228.168 77.3086 228.199 77.2723C228.215 77.2541 228.226 77.2406 228.234 77.2321C228.238 77.2278 228.24 77.2248 228.242 77.223C228.243 77.2222 228.243 77.2216 228.243 77.2213C228.243 77.2212 228.243 77.2212 228.243 77.2212C228.243 77.2212 228.243 77.2213 228.243 77.2213C228.243 77.2215 228.243 77.2216 227.721 76.7555ZM225.563 85.5289C229.35 89.041 232.993 90.7932 236.802 93.1399L237.536 91.948C233.6 89.5223 230.168 87.8905 226.515 84.5024L225.563 85.5289ZM236.802 93.14C238.136 93.9619 238.694 94.278 240.388 95.4879L241.202 94.3486C239.465 93.1076 238.868 92.7688 237.536 91.9479L236.802 93.14ZM240.388 95.4879C240.746 95.7431 241.421 96.1638 242.128 96.6953C242.466 96.9498 242.762 97.1955 242.968 97.4066C243.071 97.5126 243.134 97.5925 243.168 97.6453C243.208 97.7103 243.168 97.6765 243.168 97.5711H244.568C244.568 97.29 244.45 97.0544 244.352 96.8992C244.247 96.7318 244.11 96.5731 243.971 96.4297C243.691 96.1421 243.327 95.8459 242.969 95.5767C242.284 95.0607 241.423 94.5064 241.202 94.3486L240.388 95.4879ZM243.168 97.5711C243.168 97.5192 243.176 97.4978 243.164 97.5624C243.156 97.6062 243.143 97.6701 243.124 97.7558C243.087 97.9263 243.03 98.163 242.957 98.4591C242.811 99.0502 242.602 99.8619 242.35 100.821C241.846 102.739 241.174 105.235 240.501 107.713C239.829 110.19 239.156 112.647 238.652 114.484C238.4 115.403 238.189 116.167 238.042 116.701C237.969 116.968 237.911 117.178 237.871 117.321C237.852 117.392 237.837 117.447 237.826 117.484C237.821 117.502 237.817 117.516 237.815 117.525C237.814 117.53 237.813 117.534 237.812 117.536C237.812 117.537 237.811 117.538 237.811 117.539C237.811 117.539 237.811 117.539 237.811 117.539C237.811 117.539 237.811 117.54 238.486 117.726C239.161 117.912 239.161 117.912 239.161 117.912C239.161 117.912 239.161 117.912 239.161 117.911C239.161 117.911 239.161 117.91 239.162 117.909C239.162 117.906 239.163 117.903 239.164 117.898C239.167 117.889 239.171 117.875 239.176 117.856C239.186 117.819 239.201 117.764 239.221 117.693C239.26 117.55 239.318 117.34 239.392 117.073C239.539 116.538 239.749 115.774 240.002 114.855C240.506 113.017 241.179 110.559 241.853 108.08C242.525 105.601 243.199 103.1 243.704 101.177C243.957 100.216 244.168 99.396 244.317 98.7946C244.391 98.4944 244.45 98.2445 244.491 98.0568C244.512 97.9635 244.529 97.8804 244.542 97.8117C244.55 97.7637 244.568 97.6643 244.568 97.5711H243.168ZM238.342 118.411L243.051 119.402L243.34 118.032L238.63 117.041L238.342 118.411ZM243.836 118.999L251.672 101.157L250.391 100.594L242.554 118.436L243.836 118.999ZM251.032 100.875C251.661 101.182 251.661 101.182 251.661 101.181C251.661 101.181 251.661 101.181 251.662 101.18C251.662 101.18 251.662 101.179 251.663 101.178C251.663 101.177 251.664 101.175 251.665 101.173C251.667 101.169 251.67 101.163 251.673 101.157C251.679 101.144 251.687 101.126 251.696 101.105C251.715 101.061 251.741 101 251.771 100.924C251.831 100.77 251.909 100.551 251.985 100.278C252.136 99.7331 252.284 98.9632 252.271 98.0562C252.243 96.2182 251.551 93.8727 249.029 91.7491L248.127 92.8201C250.314 94.6614 250.849 96.6111 250.871 98.0772C250.882 98.8222 250.76 99.4566 250.636 99.9028C250.574 100.125 250.512 100.299 250.467 100.414C250.445 100.471 250.427 100.513 250.415 100.54C250.41 100.553 250.405 100.562 250.403 100.567C250.402 100.569 250.401 100.57 250.401 100.571C250.401 100.571 250.401 100.571 250.401 100.57C250.402 100.57 250.402 100.57 250.402 100.57C250.402 100.569 250.402 100.569 250.402 100.569C250.402 100.569 250.402 100.568 251.032 100.875ZM249.029 91.7491C247.402 90.3793 244.129 87.4949 241.256 84.9462C239.821 83.6733 238.488 82.4864 237.514 81.6176C237.027 81.1832 236.63 80.8285 236.354 80.5823C236.216 80.4592 236.109 80.3633 236.036 80.2981C236 80.2655 235.972 80.2407 235.953 80.2239C235.944 80.2156 235.937 80.2092 235.932 80.205C235.93 80.2029 235.928 80.2013 235.927 80.2002C235.926 80.1997 235.926 80.1993 235.925 80.199C235.925 80.1989 235.925 80.1988 235.925 80.1987C235.925 80.1987 235.925 80.1986 235.458 80.7204C234.991 81.2421 234.991 81.2421 234.992 81.2422C234.992 81.2422 234.992 81.2423 234.992 81.2425C234.992 81.2427 234.993 81.2431 234.993 81.2437C234.994 81.2448 234.996 81.2464 234.999 81.2485C235.003 81.2528 235.01 81.2591 235.02 81.2675C235.039 81.2843 235.067 81.3092 235.103 81.3418C235.176 81.4071 235.283 81.5031 235.421 81.6263C235.697 81.8727 236.095 82.2278 236.582 82.6625C237.557 83.5318 238.891 84.7196 240.327 85.9935C243.196 88.5386 246.483 91.4362 248.127 92.8201L249.029 91.7491ZM235.122 77.4165C234.813 78.0448 234.813 78.0449 234.813 78.0449C234.813 78.0449 234.813 78.0449 234.814 78.045C234.814 78.0451 234.814 78.0452 234.814 78.0454C234.815 78.0458 234.816 78.0464 234.818 78.0472C234.821 78.0488 234.826 78.0511 234.832 78.0543C234.845 78.0605 234.864 78.0698 234.889 78.082C234.938 78.1064 235.011 78.1423 235.105 78.1883C235.292 78.2805 235.561 78.4132 235.889 78.5756C236.545 78.9005 237.437 79.3439 238.382 79.8181C240.283 80.7725 242.361 81.8341 243.177 82.3149L243.887 81.1087C243.021 80.5983 240.893 79.5123 239.01 78.5669C238.063 78.0911 237.168 77.6466 236.51 77.3209C236.181 77.1581 235.911 77.025 235.724 76.9325C235.63 76.8863 235.557 76.8503 235.507 76.8258C235.482 76.8135 235.463 76.8041 235.45 76.7978C235.444 76.7947 235.439 76.7923 235.435 76.7907C235.434 76.7898 235.433 76.7892 235.432 76.7888C235.431 76.7886 235.431 76.7885 235.431 76.7884C235.431 76.7883 235.431 76.7883 235.431 76.7882C235.43 76.7882 235.43 76.7882 235.122 77.4165ZM243.177 82.3149C243.999 82.7997 244.558 83.2307 244.887 83.7157C245.192 84.1646 245.339 84.7194 245.197 85.5596L246.577 85.7938C246.771 84.6515 246.582 83.7195 246.045 82.9294C245.534 82.1754 244.747 81.6151 243.887 81.1087L243.177 82.3149ZM245.197 85.5596C245.037 86.5012 244.797 87.2859 244.598 87.8329C244.499 88.106 244.41 88.3187 244.347 88.4607C244.316 88.5317 244.291 88.5849 244.275 88.6191C244.267 88.6362 244.261 88.6485 244.257 88.6559C244.255 88.6596 244.254 88.6621 244.254 88.6633C244.253 88.6639 244.253 88.6642 244.253 88.6642C244.253 88.6642 244.253 88.6641 244.253 88.6639C244.253 88.6638 244.253 88.6637 244.253 88.6636C244.254 88.6636 244.254 88.6634 244.254 88.6634C244.254 88.6633 244.254 88.6632 244.878 88.9808C245.501 89.2983 245.501 89.2982 245.501 89.2981C245.502 89.298 245.502 89.2979 245.502 89.2978C245.502 89.2976 245.502 89.2973 245.502 89.2971C245.502 89.2966 245.503 89.296 245.503 89.2954C245.504 89.2941 245.504 89.2924 245.505 89.2905C245.507 89.2866 245.51 89.2814 245.513 89.2749C245.519 89.262 245.528 89.244 245.539 89.2211C245.561 89.1752 245.591 89.1097 245.628 89.0258C245.702 88.8581 245.803 88.6165 245.914 88.3113C246.135 87.7019 246.4 86.8346 246.577 85.7938L245.197 85.5596ZM237.883 117.978L237.135 120.854L238.49 121.206L239.238 118.33L237.883 117.978ZM237.635 121.707L245.184 123.689L245.539 122.335L237.991 120.353L237.635 121.707ZM245.848 122.509L242.312 119.084L241.338 120.09L244.875 123.515L245.848 122.509ZM242.47 119.86L242.902 118.837L241.613 118.292L241.18 119.314L242.47 119.86ZM216.137 114.858L208.556 96.8595L207.266 97.4029L214.847 115.402L216.137 114.858ZM203.022 97.1802C203.025 97.8802 203.026 97.8802 203.026 97.8802C203.026 97.8802 203.026 97.8802 203.026 97.8802C203.027 97.8802 203.027 97.8802 203.028 97.8801C203.03 97.8801 203.033 97.8801 203.037 97.8801C203.044 97.8801 203.055 97.88 203.07 97.8799C203.1 97.8798 203.143 97.8796 203.2 97.8793C203.314 97.8788 203.482 97.878 203.696 97.877C204.123 97.875 204.734 97.8721 205.471 97.8687C206.944 97.8618 208.919 97.8527 210.923 97.8435C214.935 97.8251 219.064 97.8068 219.548 97.8068V96.4068C219.059 96.4068 214.925 96.4252 210.917 96.4435C208.912 96.4527 206.938 96.4618 205.464 96.4687C204.728 96.4722 204.116 96.475 203.689 96.477C203.475 96.478 203.308 96.4788 203.194 96.4794C203.137 96.4796 203.093 96.4798 203.063 96.48C203.049 96.48 203.038 96.4801 203.03 96.4801C203.026 96.4801 203.024 96.4802 203.022 96.4802C203.021 96.4802 203.02 96.4802 203.02 96.4802C203.019 96.4802 203.019 96.4802 203.019 96.4802C203.019 96.4802 203.019 96.4802 203.022 97.1802ZM219.548 97.8068C220.427 97.8068 223.342 98.0571 224.99 101.133L226.224 100.472C224.208 96.7103 220.614 96.4068 219.548 96.4068V97.8068ZM231.791 60.9423L224.726 76.8384L226.006 77.407L233.07 61.5108L231.791 60.9423ZM225.366 77.1227C225.082 77.7623 225.082 77.7624 225.082 77.7625C225.082 77.7626 225.082 77.7627 225.083 77.7628C225.083 77.763 225.084 77.7632 225.084 77.7634C225.085 77.7639 225.087 77.7646 225.088 77.7653C225.092 77.7668 225.096 77.7687 225.102 77.7711C225.113 77.7758 225.128 77.7823 225.147 77.7904C225.186 77.8066 225.242 77.8293 225.314 77.8574C225.458 77.9135 225.668 77.991 225.94 78.081C226.484 78.261 227.278 78.491 228.296 78.6988C230.33 79.1146 233.259 79.4423 236.869 79.1046L236.739 77.7107C233.284 78.0339 230.494 77.7191 228.576 77.3272C227.617 77.1312 226.876 76.916 226.38 76.7518C226.131 76.6697 225.944 76.6004 225.822 76.5527C225.76 76.5289 225.715 76.5104 225.687 76.4984C225.672 76.4925 225.662 76.4881 225.656 76.4855C225.653 76.4842 225.651 76.4834 225.65 76.483C225.65 76.4828 225.65 76.4827 225.65 76.4827C225.65 76.4827 225.65 76.4828 225.65 76.4829C225.65 76.4829 225.65 76.483 225.65 76.483C225.65 76.4831 225.651 76.4832 225.366 77.1227ZM253.304 78.3812C254.195 78.2744 254.577 78.4205 254.852 78.5695C254.934 78.6139 255.014 78.6635 255.108 78.723C255.197 78.7792 255.306 78.8498 255.419 78.9159C255.657 79.0555 255.942 79.194 256.316 79.278L256.623 77.9121C256.433 77.8694 256.285 77.8005 256.126 77.7078C256.041 77.6578 255.961 77.6061 255.858 77.5407C255.76 77.4786 255.646 77.4074 255.52 77.3388C254.961 77.0357 254.282 76.8541 253.137 76.9911L253.304 78.3812ZM256.316 79.2781C257.358 79.5123 258.608 79.493 259.556 79.4264C260.039 79.3926 260.46 79.3451 260.761 79.306C260.912 79.2864 261.033 79.2689 261.118 79.2561C261.16 79.2498 261.193 79.2445 261.216 79.2409C261.227 79.239 261.236 79.2376 261.242 79.2365C261.245 79.236 261.248 79.2356 261.25 79.2353C261.251 79.2351 261.251 79.235 261.252 79.2349C261.252 79.2348 261.253 79.2348 261.253 79.2348C261.253 79.2348 261.253 79.2347 261.253 79.2347C261.253 79.2347 261.253 79.2347 261.136 78.5445C261.019 77.8544 261.019 77.8544 261.019 77.8544C261.019 77.8544 261.019 77.8544 261.019 77.8544C261.019 77.8543 261.019 77.8544 261.019 77.8544C261.019 77.8544 261.019 77.8544 261.019 77.8545C261.018 77.8546 261.016 77.8549 261.014 77.8553C261.01 77.856 261.003 77.8571 260.993 77.8586C260.974 77.8617 260.946 77.8662 260.908 77.8719C260.832 77.8834 260.721 77.8995 260.581 77.9176C260.301 77.954 259.907 77.9983 259.458 78.0299C258.543 78.0941 257.459 78.1002 256.623 77.9121L256.316 79.2781ZM261.136 78.5445C261.78 78.2699 261.78 78.2699 261.78 78.2698C261.78 78.2698 261.78 78.2697 261.78 78.2697C261.78 78.2695 261.78 78.2694 261.78 78.2693C261.78 78.2689 261.779 78.2686 261.779 78.2681C261.779 78.2672 261.778 78.2659 261.778 78.2644C261.776 78.2613 261.775 78.257 261.772 78.2515C261.767 78.2406 261.761 78.225 261.752 78.2053C261.735 78.1659 261.709 78.1097 261.678 78.0406C261.614 77.9028 261.524 77.7118 261.415 77.4986C261.204 77.0865 260.897 76.5385 260.564 76.1433L259.494 77.0463C259.718 77.312 259.965 77.7388 260.168 78.1363C260.267 78.328 260.348 78.5006 260.405 78.625C260.434 78.6871 260.456 78.7368 260.471 78.7704C260.478 78.7872 260.484 78.8 260.488 78.8083C260.489 78.8124 260.491 78.8155 260.492 78.8173C260.492 78.8182 260.492 78.8188 260.492 78.8191C260.492 78.8193 260.492 78.8194 260.492 78.8194C260.492 78.8194 260.492 78.8193 260.492 78.8193C260.492 78.8193 260.492 78.8192 260.492 78.8192C260.492 78.8192 260.492 78.8191 261.136 78.5445ZM260.454 76.0385C259.397 75.231 257.877 74.7899 256.469 74.7899V76.1899C257.628 76.1899 258.833 76.5623 259.604 77.1511L260.454 76.0385ZM256.469 74.7899C256.1 74.7899 255.361 74.8425 254.699 74.8911C253.998 74.9426 253.397 74.9885 253.221 74.9885V76.3885C253.465 76.3885 254.151 76.3351 254.802 76.2873C255.491 76.2367 256.165 76.1899 256.469 76.1899V74.7899ZM239.584 57.2833C239.435 57.9673 239.435 57.9672 239.434 57.9672C239.434 57.9671 239.434 57.9671 239.434 57.967C239.433 57.967 239.433 57.9669 239.433 57.9669C239.432 57.9667 239.432 57.9667 239.432 57.9666C239.432 57.9666 239.432 57.9666 239.433 57.9669C239.435 57.9674 239.44 57.9685 239.447 57.9703C239.462 57.974 239.487 57.9805 239.521 57.9902C239.589 58.0097 239.693 58.0421 239.827 58.0913C240.093 58.1899 240.472 58.3545 240.901 58.6144C241.756 59.1327 242.809 60.0287 243.581 61.5439L244.828 60.9088C243.918 59.1199 242.661 58.0444 241.626 57.4172C241.11 57.1043 240.649 56.9027 240.312 56.7782C240.143 56.7158 240.005 56.6726 239.906 56.6442C239.856 56.63 239.816 56.6195 239.787 56.6122C239.772 56.6085 239.76 56.6057 239.751 56.6035C239.747 56.6025 239.743 56.6016 239.74 56.6009C239.738 56.6005 239.737 56.6002 239.736 56.5999C239.735 56.5998 239.734 56.5997 239.734 56.5996C239.734 56.5995 239.733 56.5994 239.733 56.5994C239.733 56.5993 239.732 56.5993 239.584 57.2833ZM243.581 61.5439C243.907 62.1844 244.01 63.3136 243.901 64.7883C243.794 66.2257 243.497 67.8602 243.144 69.4137C242.791 70.9635 242.385 72.414 242.067 73.4783C241.909 74.0099 241.772 74.4441 241.675 74.7447C241.627 74.8949 241.589 75.0118 241.563 75.0907C241.55 75.1301 241.54 75.16 241.533 75.1799C241.53 75.1899 241.527 75.1973 241.526 75.2022C241.525 75.2046 241.524 75.2064 241.524 75.2075C241.524 75.208 241.523 75.2084 241.523 75.2087C241.523 75.2088 241.523 75.2088 241.523 75.2089C241.523 75.2089 241.523 75.2089 242.186 75.4338C242.849 75.6588 242.849 75.6587 242.849 75.6585C242.849 75.6584 242.849 75.6582 242.849 75.658C242.849 75.6576 242.85 75.657 242.85 75.6562C242.85 75.6547 242.851 75.6525 242.852 75.6497C242.854 75.644 242.857 75.6357 242.86 75.625C242.868 75.6034 242.878 75.5717 242.892 75.5305C242.919 75.448 242.959 75.3274 243.008 75.1731C243.107 74.8645 243.247 74.421 243.409 73.8788C243.732 72.7954 244.147 71.3136 244.509 69.7245C244.87 68.1391 245.183 66.4283 245.297 64.892C245.408 63.3931 245.343 61.9204 244.828 60.9088L243.581 61.5439ZM242.186 75.4338C242.247 76.1312 242.247 76.1312 242.247 76.1312C242.247 76.1312 242.247 76.1312 242.247 76.1312C242.247 76.1311 242.248 76.1311 242.248 76.131C242.25 76.1309 242.252 76.1308 242.255 76.1305C242.26 76.1301 242.268 76.1294 242.279 76.1284C242.3 76.1266 242.332 76.1239 242.374 76.1203C242.457 76.1133 242.579 76.103 242.735 76.0901C243.046 76.0644 243.49 76.0284 244.022 75.9872C245.087 75.9048 246.501 75.8019 247.904 75.7196C249.31 75.6372 250.691 75.5763 251.695 75.5763C252.203 75.5763 252.584 75.5921 252.818 75.6222C252.948 75.639 252.968 75.6529 252.934 75.6378C252.925 75.6339 252.803 75.583 252.704 75.4369C252.647 75.3522 252.601 75.2382 252.595 75.1033C252.59 74.971 252.625 74.8618 252.664 74.7858L253.911 75.421C253.96 75.3244 254 75.1954 253.994 75.044C253.987 74.89 253.935 74.7578 253.866 74.6555C253.744 74.4744 253.577 74.3915 253.503 74.3586C253.338 74.2855 253.146 74.2529 252.996 74.2336C252.669 74.1914 252.212 74.1763 251.695 74.1763C250.648 74.1763 249.233 74.2393 247.822 74.322C246.407 74.405 244.983 74.5086 243.914 74.5914C243.379 74.6328 242.932 74.669 242.619 74.6949C242.463 74.7079 242.339 74.7182 242.255 74.7254C242.213 74.7289 242.181 74.7317 242.159 74.7336C242.148 74.7345 242.14 74.7352 242.134 74.7357C242.131 74.7359 242.129 74.7361 242.128 74.7362C242.127 74.7363 242.127 74.7364 242.126 74.7364C242.126 74.7364 242.126 74.7364 242.126 74.7364C242.126 74.7364 242.126 74.7364 242.186 75.4338ZM252.664 74.7858C252.565 74.9799 252.538 75.1959 252.527 75.3451C252.515 75.5144 252.517 75.7026 252.528 75.8938C252.55 76.2776 252.608 76.7341 252.68 77.1938L254.063 76.978C253.994 76.5363 253.944 76.1314 253.926 75.8142C253.917 75.6549 253.917 75.5328 253.923 75.4469C253.931 75.3409 253.944 75.3568 253.911 75.421L252.664 74.7858ZM252.68 77.1937C252.791 77.9071 252.941 78.6641 253.062 79.239C253.123 79.5273 253.177 79.7716 253.216 79.9441C253.235 80.0304 253.251 80.0989 253.262 80.1459C253.267 80.1694 253.271 80.1876 253.274 80.2001C253.276 80.2063 253.277 80.2111 253.278 80.2143C253.278 80.216 253.278 80.2172 253.278 80.2181C253.279 80.2186 253.279 80.2189 253.279 80.2192C253.279 80.2193 253.279 80.2194 253.279 80.2195C253.279 80.2195 253.279 80.2195 253.279 80.2196C253.279 80.2196 253.279 80.2196 253.96 80.0595C254.642 79.8994 254.642 79.8994 254.642 79.8994C254.642 79.8994 254.642 79.8994 254.642 79.8994C254.642 79.8994 254.642 79.8993 254.642 79.8993C254.642 79.8991 254.642 79.8989 254.641 79.8986C254.641 79.8979 254.641 79.8969 254.641 79.8955C254.64 79.8927 254.639 79.8885 254.638 79.8827C254.635 79.8713 254.631 79.8542 254.626 79.8317C254.616 79.7868 254.601 79.7208 254.582 79.637C254.544 79.4694 254.491 79.2313 254.432 78.9502C254.313 78.3861 254.169 77.6563 254.063 76.978L252.68 77.1937ZM253.96 80.0595C253.907 79.3615 253.907 79.3615 253.907 79.3615C253.907 79.3615 253.907 79.3615 253.907 79.3615C253.907 79.3616 253.906 79.3616 253.905 79.3617C253.904 79.3618 253.902 79.3619 253.899 79.3622C253.892 79.3626 253.883 79.3633 253.871 79.3642C253.847 79.366 253.81 79.3687 253.762 79.3721C253.666 79.379 253.525 79.3889 253.344 79.4011C252.982 79.4255 252.462 79.4589 251.828 79.4949C250.561 79.5669 248.846 79.649 247.048 79.6901C245.248 79.7312 243.377 79.7308 241.795 79.6395C241.004 79.5938 240.297 79.5259 239.713 79.4317C239.115 79.3353 238.699 79.2191 238.458 79.1008L237.841 80.3574C238.273 80.5695 238.855 80.7115 239.49 80.8138C240.138 80.9184 240.897 80.9899 241.715 81.0371C243.35 81.1316 245.264 81.1312 247.08 81.0897C248.898 81.0482 250.631 80.9652 251.908 80.8926C252.547 80.8563 253.072 80.8226 253.438 80.7979C253.621 80.7856 253.765 80.7755 253.862 80.7685C253.911 80.765 253.949 80.7623 253.974 80.7604C253.987 80.7595 253.996 80.7588 254.003 80.7583C254.006 80.758 254.009 80.7579 254.01 80.7577C254.011 80.7577 254.012 80.7576 254.012 80.7576C254.012 80.7576 254.013 80.7575 254.013 80.7575C254.013 80.7575 254.013 80.7575 253.96 80.0595ZM238.458 79.1008C238.1 78.9249 237.903 78.7121 237.79 78.4865C237.672 78.2509 237.616 77.943 237.642 77.5401C237.696 76.709 238.079 75.6634 238.613 74.4794C239.118 73.3587 239.787 72.0592 240.245 70.95C240.48 70.3789 240.682 69.8105 240.801 69.2735C240.918 68.7417 240.966 68.1924 240.85 67.68L239.485 67.9889C239.537 68.22 239.529 68.5411 239.434 68.9709C239.34 69.3954 239.172 69.8796 238.951 70.4161C238.494 71.5221 237.899 72.6578 237.337 73.9039C236.803 75.0868 236.316 76.3397 236.245 77.4505C236.209 78.0186 236.277 78.5925 236.538 79.1135C236.804 79.6445 237.242 80.0632 237.841 80.3574L238.458 79.1008ZM1 131.2L1441 131.2L1441 129.8L1 129.8L1 131.2ZM953.615 96.4702C953.615 103.297 948.05 108.838 941.178 108.838V110.238C948.816 110.238 955.015 104.077 955.015 96.4702H953.615ZM941.178 108.838C934.306 108.838 928.741 103.297 928.741 96.4702H927.341C927.341 104.077 933.54 110.238 941.178 110.238V108.838ZM928.741 96.4702C928.741 89.6433 934.306 84.1023 941.178 84.1023V82.7023C933.54 82.7023 927.341 88.8632 927.341 96.4702H928.741ZM941.178 84.1023C948.05 84.1023 953.615 89.6433 953.615 96.4702H955.015C955.015 88.8632 948.816 82.7023 941.178 82.7023V84.1023ZM949.236 73.8191C949.236 78.2406 945.631 81.8311 941.178 81.8311V83.2311C946.397 83.2311 950.636 79.0209 950.636 73.8191H949.236ZM941.178 81.8311C936.725 81.8311 933.12 78.2406 933.12 73.8191H931.72C931.72 79.0209 935.959 83.2311 941.178 83.2311V81.8311ZM933.12 73.8191C933.12 69.3976 936.725 65.8072 941.178 65.8072V64.4072C935.959 64.4072 931.72 68.6174 931.72 73.8191H933.12ZM941.178 65.8072C945.631 65.8072 949.236 69.3976 949.236 73.8191H950.636C950.636 68.6174 946.397 64.4072 941.178 64.4072V65.8072ZM940.478 109.538V130.447H941.878V109.538H940.478ZM883 131.146H904.269V129.746H883V131.146ZM904.969 130.446V16.5335H903.569V130.446H904.969ZM904.269 15.8335H883V17.2335H904.269V15.8335ZM882.3 16.5335V130.446H883.7V16.5335H882.3ZM899.138 57.0936C899.138 60.0258 896.692 62.4344 893.635 62.4344V63.8344C897.43 63.8344 900.538 60.8339 900.538 57.0936H899.138ZM893.635 62.4344C890.578 62.4344 888.131 60.0258 888.131 57.0936H886.731C886.731 60.8339 889.84 63.8344 893.635 63.8344V62.4344ZM888.131 57.0936C888.131 54.1613 890.578 51.7527 893.635 51.7527V50.3527C889.84 50.3527 886.731 53.3533 886.731 57.0936H888.131ZM893.635 51.7527C896.692 51.7527 899.138 54.1613 899.138 57.0936H900.538C900.538 53.3533 897.43 50.3527 893.635 50.3527V51.7527ZM893.057 0.604553L882.422 16.138L883.578 16.9289L894.212 1.39545L893.057 0.604553ZM904.847 16.1381L894.212 0.604559L893.057 1.39544L903.692 16.9289L904.847 16.1381ZM892.562 29.4786C892.562 27.8828 891.24 26.6212 889.647 26.6212V28.0212C890.502 28.0212 891.162 28.6909 891.162 29.4786H892.562ZM889.647 26.6212C888.054 26.6212 886.731 27.8828 886.731 29.4786H888.131C888.131 28.6909 888.792 28.0212 889.647 28.0212V26.6212ZM886.731 29.4786V37.2454H888.131V29.4786H886.731ZM887.431 37.9454H891.862V36.5454H887.431V37.9454ZM892.562 37.2454V29.4786H891.162V37.2454H892.562ZM900.538 29.4786C900.538 27.8828 899.216 26.6212 897.623 26.6212V28.0212C898.478 28.0212 899.138 28.6909 899.138 29.4786H900.538ZM897.623 26.6212C896.03 26.6212 894.707 27.8828 894.707 29.4786H896.107C896.107 28.6909 896.768 28.0212 897.623 28.0212V26.6212ZM894.707 29.4786V37.2454H896.107V29.4786H894.707ZM895.407 37.9454H899.838V36.5454H895.407V37.9454ZM900.538 37.2454V29.4786H899.138V37.2454H900.538ZM883.886 44.8495H903.383V43.4495H883.886V44.8495ZM883.886 115.613H903.383V114.213H883.886V115.613ZM883.886 21.5484H903.383V20.1484H883.886V21.5484ZM892.935 53.6419V57.0938H894.335V53.6419H892.935ZM893.146 57.5954L895.805 60.1843L896.782 59.1813L894.123 56.5923L893.146 57.5954ZM896.107 71.764C896.107 70.4073 894.982 69.3381 893.635 69.3381V70.7381C894.244 70.7381 894.707 71.2153 894.707 71.764H896.107ZM893.635 69.3381C892.287 69.3381 891.162 70.4073 891.162 71.764H892.562C892.562 71.2153 893.025 70.7381 893.635 70.7381V69.3381ZM891.162 71.764V76.9419H892.562V71.764H891.162ZM891.862 77.6419H895.407V76.2419H891.862V77.6419ZM896.107 76.9419V71.764H894.707V76.9419H896.107ZM896.107 88.1606C896.107 86.8039 894.982 85.7346 893.635 85.7346V87.1346C894.244 87.1346 894.707 87.6119 894.707 88.1606H896.107ZM893.635 85.7346C892.287 85.7346 891.162 86.8038 891.162 88.1606H892.562C892.562 87.6119 893.025 87.1346 893.635 87.1346V85.7346ZM891.162 88.1606V93.3384H892.562V88.1606H891.162ZM891.862 94.0384H895.407V92.6384H891.862V94.0384ZM896.107 93.3384V88.1606H894.707V93.3384H896.107ZM896.107 103.694C896.107 102.337 894.982 101.268 893.635 101.268V102.668C894.244 102.668 894.707 103.145 894.707 103.694H896.107ZM893.635 101.268C892.287 101.268 891.162 102.337 891.162 103.694H892.562C892.562 103.145 893.025 102.668 893.635 102.668V101.268ZM891.162 103.694V108.872H892.562V103.694H891.162ZM891.862 109.572H895.407V108.172H891.862V109.572ZM896.107 108.872V103.694H894.707V108.872H896.107Z" fill="#0B5B3E"/>
</svg>
