<svg width="1440" height="900" viewBox="0 0 1440 900" fill="none" xmlns="http://www.w3.org/2000/svg">
<g clip-path="url(#clip0)">
<rect width="1440" height="900" fill="white"/>
<circle cx="1083" cy="235" r="5" fill="#5AC817" fill-opacity="0.2"/>
<circle cx="1083" cy="255" r="5" fill="#5AC817" fill-opacity="0.2"/>
<circle cx="1083" cy="275" r="5" fill="#5AC817" fill-opacity="0.2"/>
<circle cx="1083" cy="295" r="5" fill="#5AC817" fill-opacity="0.2"/>
<circle cx="1083" cy="315" r="5" fill="#5AC817" fill-opacity="0.2"/>
<circle cx="1083" cy="335" r="5" fill="#5AC817" fill-opacity="0.2"/>
<circle cx="1083" cy="355" r="5" fill="#5AC817" fill-opacity="0.2"/>
<circle cx="1083" cy="375" r="5" fill="#5AC817" fill-opacity="0.2"/>
<circle cx="1083" cy="395" r="5" fill="#5AC817" fill-opacity="0.2"/>
<circle cx="1083" cy="415" r="5" fill="#5AC817" fill-opacity="0.2"/>
<circle cx="1083" cy="435" r="5" fill="#5AC817" fill-opacity="0.2"/>
<circle cx="1103" cy="235" r="5" fill="#5AC817" fill-opacity="0.2"/>
<circle cx="1103" cy="255" r="5" fill="#5AC817" fill-opacity="0.2"/>
<circle cx="1103" cy="275" r="5" fill="#5AC817" fill-opacity="0.2"/>
<circle cx="1103" cy="295" r="5" fill="#5AC817" fill-opacity="0.2"/>
<circle cx="1103" cy="315" r="5" fill="#5AC817" fill-opacity="0.2"/>
<circle cx="1103" cy="335" r="5" fill="#5AC817" fill-opacity="0.2"/>
<circle cx="1103" cy="355" r="5" fill="#5AC817" fill-opacity="0.2"/>
<circle cx="1103" cy="375" r="5" fill="#5AC817" fill-opacity="0.2"/>
<circle cx="1103" cy="395" r="5" fill="#5AC817" fill-opacity="0.2"/>
<circle cx="1103" cy="415" r="5" fill="#5AC817" fill-opacity="0.2"/>
<circle cx="1103" cy="435" r="5" fill="#5AC817" fill-opacity="0.2"/>
<circle cx="1123" cy="235" r="5" fill="#5AC817" fill-opacity="0.2"/>
<circle cx="1123" cy="255" r="5" fill="#5AC817" fill-opacity="0.2"/>
<circle cx="1123" cy="275" r="5" fill="#5AC817" fill-opacity="0.2"/>
<circle cx="1123" cy="295" r="5" fill="#5AC817" fill-opacity="0.2"/>
<circle cx="1123" cy="315" r="5" fill="#5AC817" fill-opacity="0.2"/>
<circle cx="1123" cy="335" r="5" fill="#5AC817" fill-opacity="0.2"/>
<circle cx="1123" cy="355" r="5" fill="#5AC817" fill-opacity="0.2"/>
<circle cx="1123" cy="375" r="5" fill="#5AC817" fill-opacity="0.2"/>
<circle cx="1123" cy="395" r="5" fill="#5AC817" fill-opacity="0.2"/>
<circle cx="1123" cy="415" r="5" fill="#5AC817" fill-opacity="0.2"/>
<circle cx="1123" cy="435" r="5" fill="#5AC817" fill-opacity="0.2"/>
<circle cx="1143" cy="235" r="5" fill="#5AC817" fill-opacity="0.2"/>
<circle cx="1143" cy="255" r="5" fill="#5AC817" fill-opacity="0.2"/>
<circle cx="1143" cy="275" r="5" fill="#5AC817" fill-opacity="0.2"/>
<circle cx="1143" cy="295" r="5" fill="#5AC817" fill-opacity="0.2"/>
<circle cx="1143" cy="315" r="5" fill="#5AC817" fill-opacity="0.2"/>
<circle cx="1143" cy="335" r="5" fill="#5AC817" fill-opacity="0.2"/>
<circle cx="1143" cy="355" r="5" fill="#5AC817" fill-opacity="0.2"/>
<circle cx="1143" cy="375" r="5" fill="#5AC817" fill-opacity="0.2"/>
<circle cx="1143" cy="395" r="5" fill="#5AC817" fill-opacity="0.2"/>
<circle cx="1143" cy="415" r="5" fill="#5AC817" fill-opacity="0.2"/>
<circle cx="1143" cy="435" r="5" fill="#5AC817" fill-opacity="0.2"/>
<circle cx="1163" cy="235" r="5" fill="#5AC817" fill-opacity="0.2"/>
<circle cx="1163" cy="255" r="5" fill="#5AC817" fill-opacity="0.2"/>
<circle cx="1163" cy="275" r="5" fill="#5AC817" fill-opacity="0.2"/>
<circle cx="1163" cy="295" r="5" fill="#5AC817" fill-opacity="0.2"/>
<circle cx="1163" cy="315" r="5" fill="#5AC817" fill-opacity="0.2"/>
<circle cx="1163" cy="335" r="5" fill="#5AC817" fill-opacity="0.2"/>
<circle cx="1163" cy="355" r="5" fill="#5AC817" fill-opacity="0.2"/>
<circle cx="1163" cy="375" r="5" fill="#5AC817" fill-opacity="0.2"/>
<circle cx="1163" cy="395" r="5" fill="#5AC817" fill-opacity="0.2"/>
<circle cx="1163" cy="415" r="5" fill="#5AC817" fill-opacity="0.2"/>
<circle cx="1163" cy="435" r="5" fill="#5AC817" fill-opacity="0.2"/>
<circle cx="1183" cy="235" r="5" fill="#5AC817" fill-opacity="0.2"/>
<circle cx="1183" cy="255" r="5" fill="#5AC817" fill-opacity="0.2"/>
<circle cx="1183" cy="275" r="5" fill="#5AC817" fill-opacity="0.2"/>
<circle cx="1183" cy="295" r="5" fill="#5AC817" fill-opacity="0.2"/>
<circle cx="1183" cy="315" r="5" fill="#5AC817" fill-opacity="0.2"/>
<circle cx="1183" cy="335" r="5" fill="#5AC817" fill-opacity="0.2"/>
<circle cx="1183" cy="355" r="5" fill="#5AC817" fill-opacity="0.2"/>
<circle cx="1183" cy="375" r="5" fill="#5AC817" fill-opacity="0.2"/>
<circle cx="1183" cy="395" r="5" fill="#5AC817" fill-opacity="0.2"/>
<circle cx="1183" cy="415" r="5" fill="#5AC817" fill-opacity="0.2"/>
<circle cx="1183" cy="435" r="5" fill="#5AC817" fill-opacity="0.2"/>
<circle cx="1203" cy="235" r="5" fill="#5AC817" fill-opacity="0.2"/>
<circle cx="1203" cy="255" r="5" fill="#5AC817" fill-opacity="0.2"/>
<circle cx="1203" cy="275" r="5" fill="#5AC817" fill-opacity="0.2"/>
<circle cx="1203" cy="295" r="5" fill="#5AC817" fill-opacity="0.2"/>
<circle cx="1203" cy="315" r="5" fill="#5AC817" fill-opacity="0.2"/>
<circle cx="1203" cy="335" r="5" fill="#5AC817" fill-opacity="0.2"/>
<circle cx="1203" cy="355" r="5" fill="#5AC817" fill-opacity="0.2"/>
<circle cx="1203" cy="375" r="5" fill="#5AC817" fill-opacity="0.2"/>
<circle cx="1203" cy="395" r="5" fill="#5AC817" fill-opacity="0.2"/>
<circle cx="1203" cy="415" r="5" fill="#5AC817" fill-opacity="0.2"/>
<circle cx="1203" cy="435" r="5" fill="#5AC817" fill-opacity="0.2"/>
<circle cx="1223" cy="235" r="5" fill="#5AC817" fill-opacity="0.2"/>
<circle cx="1223" cy="255" r="5" fill="#5AC817" fill-opacity="0.2"/>
<circle cx="1223" cy="275" r="5" fill="#5AC817" fill-opacity="0.2"/>
<circle cx="1223" cy="295" r="5" fill="#5AC817" fill-opacity="0.2"/>
<circle cx="1223" cy="315" r="5" fill="#5AC817" fill-opacity="0.2"/>
<circle cx="1223" cy="335" r="5" fill="#5AC817" fill-opacity="0.2"/>
<circle cx="1223" cy="355" r="5" fill="#5AC817" fill-opacity="0.2"/>
<circle cx="1223" cy="375" r="5" fill="#5AC817" fill-opacity="0.2"/>
<circle cx="1223" cy="395" r="5" fill="#5AC817" fill-opacity="0.2"/>
<circle cx="1223" cy="415" r="5" fill="#5AC817" fill-opacity="0.2"/>
<circle cx="1223" cy="435" r="5" fill="#5AC817" fill-opacity="0.2"/>
<circle cx="1243" cy="235" r="5" fill="#5AC817" fill-opacity="0.2"/>
<circle cx="1243" cy="255" r="5" fill="#5AC817" fill-opacity="0.2"/>
<circle cx="1243" cy="275" r="5" fill="#5AC817" fill-opacity="0.2"/>
<circle cx="1243" cy="295" r="5" fill="#5AC817" fill-opacity="0.2"/>
<circle cx="1243" cy="315" r="5" fill="#5AC817" fill-opacity="0.2"/>
<circle cx="1243" cy="335" r="5" fill="#5AC817" fill-opacity="0.2"/>
<circle cx="1243" cy="355" r="5" fill="#5AC817" fill-opacity="0.2"/>
<circle cx="1243" cy="375" r="5" fill="#5AC817" fill-opacity="0.2"/>
<circle cx="1243" cy="395" r="5" fill="#5AC817" fill-opacity="0.2"/>
<circle cx="1243" cy="415" r="5" fill="#5AC817" fill-opacity="0.2"/>
<circle cx="1243" cy="435" r="5" fill="#5AC817" fill-opacity="0.2"/>
<circle cx="1263" cy="235" r="5" fill="#5AC817" fill-opacity="0.2"/>
<circle cx="1263" cy="255" r="5" fill="#5AC817" fill-opacity="0.2"/>
<circle cx="1263" cy="275" r="5" fill="#5AC817" fill-opacity="0.2"/>
<circle cx="1263" cy="295" r="5" fill="#5AC817" fill-opacity="0.2"/>
<circle cx="1263" cy="315" r="5" fill="#5AC817" fill-opacity="0.2"/>
<circle cx="1263" cy="335" r="5" fill="#5AC817" fill-opacity="0.2"/>
<circle cx="1263" cy="355" r="5" fill="#5AC817" fill-opacity="0.2"/>
<circle cx="1263" cy="375" r="5" fill="#5AC817" fill-opacity="0.2"/>
<circle cx="1263" cy="395" r="5" fill="#5AC817" fill-opacity="0.2"/>
<circle cx="1263" cy="415" r="5" fill="#5AC817" fill-opacity="0.2"/>
<circle cx="1263" cy="435" r="5" fill="#5AC817" fill-opacity="0.2"/>
<circle cx="1283" cy="235" r="5" fill="#5AC817" fill-opacity="0.2"/>
<circle cx="1283" cy="255" r="5" fill="#5AC817" fill-opacity="0.2"/>
<circle cx="1283" cy="275" r="5" fill="#5AC817" fill-opacity="0.2"/>
<circle cx="1283" cy="295" r="5" fill="#5AC817" fill-opacity="0.2"/>
<circle cx="1283" cy="315" r="5" fill="#5AC817" fill-opacity="0.2"/>
<circle cx="1283" cy="335" r="5" fill="#5AC817" fill-opacity="0.2"/>
<circle cx="1283" cy="355" r="5" fill="#5AC817" fill-opacity="0.2"/>
<circle cx="1283" cy="375" r="5" fill="#5AC817" fill-opacity="0.2"/>
<circle cx="1283" cy="395" r="5" fill="#5AC817" fill-opacity="0.2"/>
<circle cx="1283" cy="415" r="5" fill="#5AC817" fill-opacity="0.2"/>
<circle cx="1283" cy="435" r="5" fill="#5AC817" fill-opacity="0.2"/>
<circle cx="1303" cy="235" r="5" fill="#5AC817" fill-opacity="0.2"/>
<circle cx="1303" cy="255" r="5" fill="#5AC817" fill-opacity="0.2"/>
<circle cx="1303" cy="275" r="5" fill="#5AC817" fill-opacity="0.2"/>
<circle cx="1303" cy="295" r="5" fill="#5AC817" fill-opacity="0.2"/>
<circle cx="1303" cy="315" r="5" fill="#5AC817" fill-opacity="0.2"/>
<circle cx="1303" cy="335" r="5" fill="#5AC817" fill-opacity="0.2"/>
<circle cx="1303" cy="355" r="5" fill="#5AC817" fill-opacity="0.2"/>
<circle cx="1303" cy="375" r="5" fill="#5AC817" fill-opacity="0.2"/>
<circle cx="1303" cy="395" r="5" fill="#5AC817" fill-opacity="0.2"/>
<circle cx="1303" cy="415" r="5" fill="#5AC817" fill-opacity="0.2"/>
<circle cx="1303" cy="435" r="5" fill="#5AC817" fill-opacity="0.2"/>
<g filter="url(#filter0_f)">
<circle cx="220" cy="480" r="220" fill="#0B5B3E"/>
</g>
<g filter="url(#filter1_f)">
<ellipse cx="1243" cy="664.5" rx="341" ry="329.5" fill="#E9FBD3"/>
</g>
</g>
<defs>
<filter id="filter0_f" x="-600" y="-340" width="1640" height="1640" filterUnits="userSpaceOnUse" color-interpolation-filters="sRGB">
<feFlood flood-opacity="0" result="BackgroundImageFix"/>
<feBlend mode="normal" in="SourceGraphic" in2="BackgroundImageFix" result="shape"/>
<feGaussianBlur stdDeviation="300" result="effect1_foregroundBlur"/>
</filter>
<filter id="filter1_f" x="702" y="135" width="1082" height="1059" filterUnits="userSpaceOnUse" color-interpolation-filters="sRGB">
<feFlood flood-opacity="0" result="BackgroundImageFix"/>
<feBlend mode="normal" in="SourceGraphic" in2="BackgroundImageFix" result="shape"/>
<feGaussianBlur stdDeviation="100" result="effect1_foregroundBlur"/>
</filter>
<clipPath id="clip0">
<rect width="1440" height="900" fill="white"/>
</clipPath>
</defs>
</svg>
