<svg width="122" height="91" viewBox="0 0 122 91" fill="none" xmlns="http://www.w3.org/2000/svg">
<path d="M41.1855 84.6485L39.326 86.359L40.8038 83.8814C39.6395 81.7718 37.7353 79.9485 37.7353 79.9485C37.7353 79.9485 33.7847 83.7304 33.7847 86.7031C33.7847 89.6759 35.5534 90.7139 37.7353 90.7139C39.9171 90.7139 41.6859 89.6759 41.6859 86.7031C41.6613 85.9913 41.491 85.2921 41.1855 84.6485Z" fill="#F2F2F2"/>
<path d="M38.8478 86.4517V86.5982C38.8391 88.3014 38.5516 89.6304 37.9875 90.5662C37.9795 90.58 37.9708 90.593 37.9628 90.6068L37.8996 90.5683L37.8393 90.5306C38.4652 89.5201 38.6866 88.0918 38.6946 86.6062C38.6953 86.5583 38.696 86.5097 38.6953 86.4611C38.6931 85.8322 38.6547 85.196 38.5929 84.5779C38.5886 84.5301 38.5835 84.4815 38.5784 84.4329C38.4928 83.6175 38.3693 82.8384 38.243 82.1616C38.2343 82.1137 38.2249 82.0658 38.2154 82.0187C37.9969 80.874 37.774 80.0449 37.7232 79.8613C37.7174 79.8389 37.7137 79.8265 37.713 79.8236L37.782 79.804L37.7827 79.8033L37.8524 79.7837C37.8531 79.7866 37.8655 79.828 37.8858 79.9049C37.9635 80.1921 38.1653 80.9719 38.3635 82.0006C38.3722 82.047 38.3817 82.0949 38.3904 82.1427C38.4935 82.6919 38.5944 83.3056 38.6743 83.9497C38.6946 84.1115 38.7127 84.2711 38.7287 84.4285C38.7345 84.4771 38.7396 84.5257 38.744 84.5736C38.8108 85.2417 38.8454 85.8677 38.8478 86.4517Z" fill="white"/>
<path d="M38.3636 82.0006C38.3149 82.0071 38.2656 82.0137 38.2155 82.0187C38.0794 82.0327 37.9427 82.0398 37.806 82.0398C37.2231 82.0406 36.6476 81.9107 36.1216 81.6597C36.0911 81.6981 36.0606 81.7366 36.0294 81.7757C36.5827 82.0456 37.1903 82.1855 37.806 82.1849C37.952 82.1848 38.0979 82.1771 38.243 82.1617C38.2924 82.1566 38.3418 82.15 38.3904 82.1428C38.792 82.0852 39.1824 81.9671 39.5484 81.7924C39.5172 81.7525 39.4867 81.7133 39.4569 81.6749C39.1105 81.8367 38.7421 81.9464 38.3636 82.0006V82.0006Z" fill="white"/>
<path d="M38.7287 84.4285C38.6786 84.4314 38.6285 84.4329 38.5784 84.4329C38.5631 84.4336 38.5472 84.4336 38.5319 84.4336C37.9004 84.4336 37.2782 84.281 36.7184 83.9889C36.1586 83.6967 35.6779 83.2737 35.3171 82.7557C35.2881 82.7985 35.259 82.8413 35.2307 82.8849C35.6067 83.4089 36.1023 83.8359 36.6764 84.1304C37.2505 84.425 37.8866 84.5787 38.5319 84.5787C38.5522 84.5787 38.5726 84.5787 38.5929 84.578C38.6437 84.5772 38.6938 84.5758 38.7439 84.5736C39.5191 84.5339 40.2664 84.272 40.8965 83.8192C40.8733 83.7764 40.8501 83.7336 40.8261 83.6908C40.2137 84.1354 39.4848 84.3918 38.7287 84.4285V84.4285Z" fill="white"/>
<path d="M38.8478 86.4517C38.797 86.456 38.7461 86.4589 38.6953 86.4611C38.6409 86.4633 38.5864 86.4647 38.532 86.4647C37.6833 86.4638 36.8579 86.1882 36.1791 85.6792C35.5004 85.1702 35.0049 84.4553 34.7669 83.6414C34.7342 83.7002 34.7015 83.7582 34.6703 83.817C34.9385 84.629 35.456 85.3359 36.1492 85.8372C36.8425 86.3386 37.6762 86.6089 38.532 86.6098C38.5864 86.6098 38.6409 86.6091 38.6946 86.6062C38.7461 86.6047 38.797 86.6018 38.8478 86.5982C39.8743 86.518 40.8319 86.051 41.5268 85.2917C41.5115 85.2381 41.4941 85.1851 41.4767 85.1314C40.8055 85.8963 39.8626 86.3699 38.8478 86.4517V86.4517Z" fill="white"/>
<path d="M110.946 87.2518L108.423 87.3971L111.138 86.4167C111.575 84.0476 111.259 81.4314 111.259 81.4314C111.259 81.4314 105.804 81.8547 103.918 84.154C102.033 86.4534 102.742 88.3764 104.43 89.7581C106.118 91.1399 108.144 91.4572 110.03 89.1578C110.462 88.5916 110.774 87.943 110.946 87.2518V87.2518Z" fill="#F2F2F2"/>
<path d="M107.994 87.1658L107.901 87.2792C106.814 88.5911 105.749 89.4369 104.719 89.8035C104.704 89.8091 104.689 89.8137 104.674 89.8193L104.649 89.7495L104.627 89.6822C105.752 89.2969 106.829 88.3324 107.778 87.1883C107.809 87.1518 107.84 87.1146 107.87 87.0766C108.268 86.5887 108.641 86.0723 108.986 85.5552C109.013 85.5154 109.04 85.4746 109.067 85.4337C109.518 84.7488 109.916 84.0681 110.248 83.4646C110.272 83.422 110.295 83.379 110.317 83.3366C110.874 82.3128 111.228 81.5303 111.305 81.3562C111.315 81.3351 111.32 81.3233 111.321 81.3206L111.387 81.3491L111.388 81.349L111.454 81.378C111.453 81.3807 111.436 81.4205 111.403 81.4928C111.281 81.7642 110.942 82.4952 110.443 83.4163C110.421 83.4578 110.397 83.5008 110.374 83.5433C110.105 84.0334 109.794 84.5719 109.447 85.1208C109.36 85.2588 109.273 85.3937 109.186 85.5256C109.159 85.5668 109.132 85.6076 109.105 85.6474C108.733 86.2065 108.363 86.7126 107.994 87.1658Z" fill="white"/>
<path d="M110.443 83.4164C110.402 83.3906 110.359 83.3644 110.317 83.3366C110.203 83.2613 110.093 83.1802 109.987 83.0936C109.536 82.7251 109.173 82.2601 108.925 81.7329C108.877 81.7433 108.83 81.7537 108.781 81.7643C109.037 82.3234 109.419 82.8164 109.895 83.2058C110.008 83.2982 110.126 83.3846 110.248 83.4646C110.289 83.492 110.332 83.5182 110.374 83.5434C110.721 83.7532 111.098 83.9091 111.492 84.0057C111.493 83.9551 111.494 83.9055 111.496 83.8569C111.125 83.7626 110.77 83.6142 110.443 83.4164V83.4164Z" fill="white"/>
<path d="M109.186 85.5256C109.145 85.4961 109.105 85.4655 109.067 85.4338C109.054 85.4247 109.042 85.4146 109.03 85.4049C108.542 85.005 108.157 84.493 107.91 83.9125C107.662 83.332 107.558 82.7003 107.608 82.0712C107.558 82.0859 107.509 82.1007 107.459 82.1164C107.418 82.7599 107.53 83.404 107.787 83.9954C108.045 84.5868 108.439 85.1084 108.938 85.5171C108.954 85.53 108.97 85.5429 108.986 85.5552C109.026 85.5868 109.065 85.6174 109.105 85.6475C109.73 86.1077 110.474 86.3784 111.249 86.4272C111.258 86.3794 111.267 86.3316 111.276 86.2833C110.52 86.2393 109.794 85.976 109.186 85.5256V85.5256Z" fill="white"/>
<path d="M107.994 87.1659C107.952 87.1371 107.911 87.1072 107.87 87.0767C107.827 87.0439 107.784 87.0105 107.742 86.976C107.086 86.4378 106.622 85.7019 106.42 84.8784C106.218 84.0549 106.288 83.1881 106.62 82.4078C106.558 82.4326 106.496 82.4568 106.434 82.4825C106.127 83.2804 106.079 84.1549 106.297 84.9817C106.515 85.8085 106.988 86.5456 107.65 87.0882C107.692 87.1227 107.734 87.1566 107.778 87.1884C107.818 87.2199 107.86 87.2499 107.901 87.2793C108.746 87.8673 109.783 88.1125 110.802 87.9653C110.824 87.9142 110.845 87.8622 110.865 87.8096C109.861 87.9762 108.831 87.7453 107.994 87.1659Z" fill="white"/>
<path d="M23.4031 88.9604L25.3708 88.9602L25.736 81.3362L23.4027 81.3772L23.4031 88.9604Z" fill="#FFB6B6"/>
<path d="M22.9011 88.3185L26.7762 88.3183H26.7763C27.4313 88.3183 28.0594 88.5783 28.5225 89.041C28.9856 89.5037 29.2458 90.1313 29.2458 90.7857V90.8659L22.9012 90.8661L22.9011 88.3185Z" fill="#2F2E41"/>
<path d="M15.4487 88.9604L17.4163 88.9602L17.8063 81.3362L15.4482 81.3772L15.4487 88.9604Z" fill="#FFB6B6"/>
<path d="M14.9468 88.3185L18.8218 88.3183H18.822C19.4769 88.3183 20.105 88.5783 20.5681 89.041C21.0312 89.5037 21.2914 90.1313 21.2915 90.7857V90.8659L14.9469 90.8661L14.9468 88.3185Z" fill="#2F2E41"/>
<path d="M34.6161 56.2984C34.6082 56.0706 34.5506 55.8474 34.447 55.6444C34.3435 55.4413 34.1967 55.2634 34.017 55.1232C33.8372 54.983 33.6289 54.8838 33.4066 54.8328C33.1844 54.7817 32.9536 54.7799 32.7306 54.8276L29.8576 50.0906L28.6228 52.691L31.5403 56.7907C31.6453 57.1598 31.8821 57.4775 32.2059 57.6837C32.5297 57.8899 32.9179 57.9703 33.2971 57.9096C33.6762 57.8489 34.0199 57.6513 34.263 57.3544C34.5061 57.0574 34.6317 56.6817 34.6161 56.2984H34.6161Z" fill="#FFB6B6"/>
<path d="M10.6089 61.2533C10.7429 61.069 10.8349 60.8575 10.8784 60.6338C10.9218 60.4101 10.9156 60.1796 10.8602 59.9586C10.8048 59.7375 10.7016 59.5313 10.5579 59.3544C10.4141 59.1776 10.2333 59.0343 10.0281 58.9348L10.68 53.4343L8.10534 54.7253L7.88097 59.7507C7.73652 60.1062 7.72759 60.5023 7.85587 60.8638C7.98415 61.2254 8.24072 61.5275 8.57698 61.7127C8.91323 61.8979 9.3058 61.9534 9.68029 61.8688C10.0548 61.7841 10.3852 61.5651 10.6089 61.2533H10.6089Z" fill="#FFB6B6"/>
<path d="M24.5569 55.6813L25.9503 56.5061C25.9503 56.5061 27.0825 57.2262 26.7017 62.2349C26.321 67.2437 25.866 87.3109 25.866 87.3109H23.3961L19.396 63.3395L17.9364 87.5707L15.3365 87.4408C15.3365 87.4408 10.0246 59.8535 12.3231 56.8595L24.5569 55.6813Z" fill="#2F2E41"/>
<path d="M11.4821 37.9559C11.4821 37.9559 18.2582 35.7793 23.7253 37.8086L23.2778 48.3454L26.6501 56.5645C26.6501 56.5645 15.929 60.7198 12.3562 57.2277L13.3982 48.9948L11.4821 37.9559Z" fill="#0B5B3E"/>
<path d="M21.9037 39.046L23.3237 37.8086C23.3237 37.8086 24.2709 37.7974 25.086 39.2534C25.9011 40.7094 27.3779 45.4093 27.3779 45.4093L32.1057 53.4109L30.0258 54.8396L22.5275 44.3618L21.9037 39.046Z" fill="#0B5B3E"/>
<path d="M11.7334 38.4754L11.8303 37.8152C11.8303 37.8152 9.19005 38.0104 8.96671 40.5523C8.74337 43.0941 7.92676 57.4373 7.92676 57.4373L10.5383 57.9569L13.1363 43.2357L11.7334 38.4754Z" fill="#0B5B3E"/>
<path d="M20.8865 34.1477L12.9654 35.7062C12.8024 35.738 12.6335 35.704 12.4956 35.6116C12.3577 35.5191 12.2621 35.3758 12.2298 35.213L11.5575 31.8016C11.3193 30.5895 11.5725 29.3325 12.2616 28.307C12.9507 27.2814 14.0192 26.5712 15.2322 26.3326C16.4452 26.0939 17.7034 26.3463 18.7302 27.0343C19.7569 27.7222 20.4683 28.7895 20.7078 30.0013L21.3801 33.4127C21.412 33.5756 21.3779 33.7444 21.2854 33.8822C21.1929 34.02 21.0494 34.1154 20.8865 34.1477V34.1477Z" fill="#2F2E41"/>
<path d="M17.19 34.7269C19.0781 34.7269 20.6087 33.1976 20.6087 31.311C20.6087 29.4245 19.0781 27.8951 17.19 27.8951C15.3019 27.8951 13.7712 29.4245 13.7712 31.311C13.7712 33.1976 15.3019 34.7269 17.19 34.7269Z" fill="#FFB6B6"/>
<path d="M21.8574 30.1294L17.0138 31.0824L16.8272 30.3974L16.7158 31.141L15.97 31.2878L15.6002 29.9301L15.3793 31.404L13.9362 31.6879L13.9228 31.6197C13.7349 30.6608 13.9354 29.6665 14.4803 28.8551C15.0252 28.0437 15.8699 27.4814 16.8292 27.2915L17.5121 27.1572C18.4719 26.9695 19.4669 27.1698 20.279 27.7142C21.0911 28.2587 21.6539 29.1027 21.8439 30.0612L21.8574 30.1294Z" fill="#2F2E41"/>
<path d="M17.8258 35.4114C17.7893 35.4185 17.7523 35.4225 17.7151 35.4232L14.0452 35.4958L12.891 29.6391L16.7952 28.8709L16.7207 29.0025C15.6847 30.8342 17.1987 33.176 18.1934 34.4089C18.2666 34.4991 18.3128 34.6081 18.3267 34.7234C18.3405 34.8387 18.3215 34.9556 18.2719 35.0606C18.2306 35.1502 18.1686 35.2287 18.0911 35.2896C18.0135 35.3506 17.9226 35.3924 17.8258 35.4114V35.4114Z" fill="#2F2E41"/>
<path d="M69.9422 0.0383301H22.6416V24.8538H69.9422V0.0383301Z" fill="#F2F2F2"/>
<path d="M69.9133 0H22.6127V2.87679H69.9133V0Z" fill="#E6E6E6"/>
<path d="M69.0569 4.04321H23.7113V23.5457H69.0569V4.04321Z" fill="white"/>
<path d="M27.0951 1.90693C27.3581 1.90693 27.5713 1.69387 27.5713 1.43105C27.5713 1.16823 27.3581 0.95517 27.0951 0.95517C26.832 0.95517 26.6188 1.16823 26.6188 1.43105C26.6188 1.69387 26.832 1.90693 27.0951 1.90693Z" fill="white"/>
<path d="M28.9029 1.90693C29.166 1.90693 29.3792 1.69387 29.3792 1.43105C29.3792 1.16823 29.166 0.95517 28.9029 0.95517C28.6399 0.95517 28.4266 1.16823 28.4266 1.43105C28.4266 1.69387 28.6399 1.90693 28.9029 1.90693Z" fill="white"/>
<path d="M25.2824 1.90693C25.5455 1.90693 25.7587 1.69387 25.7587 1.43105C25.7587 1.16823 25.5455 0.95517 25.2824 0.95517C25.0194 0.95517 24.8062 1.16823 24.8062 1.43105C24.8062 1.69387 25.0194 1.90693 25.2824 1.90693Z" fill="white"/>
<path d="M31.4367 18.7835C31.8988 18.7835 32.2735 18.4091 32.2735 17.9474C32.2735 17.4856 31.8988 17.1113 31.4367 17.1113C30.9745 17.1113 30.5999 17.4856 30.5999 17.9474C30.5999 18.4091 30.9745 18.7835 31.4367 18.7835Z" fill="#E4E4E4"/>
<path d="M38.8284 16.5937C39.2905 16.5937 39.6652 16.2194 39.6652 15.7576C39.6652 15.2959 39.2905 14.9215 38.8284 14.9215C38.3662 14.9215 37.9916 15.2959 37.9916 15.7576C37.9916 16.2194 38.3662 16.5937 38.8284 16.5937Z" fill="#E4E4E4"/>
<path d="M46.2201 18.7835C46.6823 18.7835 47.0569 18.4091 47.0569 17.9474C47.0569 17.4856 46.6823 17.1113 46.2201 17.1113C45.7579 17.1113 45.3833 17.4856 45.3833 17.9474C45.3833 18.4091 45.7579 18.7835 46.2201 18.7835Z" fill="#E4E4E4"/>
<path d="M53.6119 7.73836C54.0741 7.73836 54.4487 7.36403 54.4487 6.90226C54.4487 6.4405 54.0741 6.06616 53.6119 6.06616C53.1498 6.06616 52.7751 6.4405 52.7751 6.90226C52.7751 7.36403 53.1498 7.73836 53.6119 7.73836Z" fill="#E4E4E4"/>
<path d="M61.0037 7.63549C61.4658 7.63549 61.8405 7.26115 61.8405 6.79939C61.8405 6.33762 61.4658 5.96329 61.0037 5.96329C60.5415 5.96329 60.1669 6.33762 60.1669 6.79939C60.1669 7.26115 60.5415 7.63549 61.0037 7.63549Z" fill="#E4E4E4"/>
<path d="M46.2377 18.1347L38.8284 15.8346L31.5204 18.0589L31.353 17.8358L38.8284 15.4864L46.2026 17.7601L53.5303 6.78492L53.5599 6.77293L60.9516 6.75995L61.0558 7.01856L53.6934 7.01969L46.2377 18.1347Z" fill="#E4E4E4"/>
<path d="M77.8642 32.5385H33.3514V55.8913H77.8642V32.5385Z" fill="#F2F2F2"/>
<path d="M77.8371 32.5024H33.3243V35.2096H77.8371V32.5024Z" fill="#E6E6E6"/>
<path d="M77.0311 36.1509H34.29V54.7021H77.0311V36.1509Z" fill="white"/>
<path d="M37.5424 34.2969C37.79 34.2969 37.9907 34.0964 37.9907 33.849C37.9907 33.6017 37.79 33.4012 37.5424 33.4012C37.2949 33.4012 37.0942 33.6017 37.0942 33.849C37.0942 34.0964 37.2949 34.2969 37.5424 34.2969Z" fill="white"/>
<path d="M39.2437 34.2969C39.4913 34.2969 39.6919 34.0964 39.6919 33.849C39.6919 33.6017 39.4913 33.4012 39.2437 33.4012C38.9962 33.4012 38.7955 33.6017 38.7955 33.849C38.7955 34.0964 38.9962 34.2969 39.2437 34.2969Z" fill="white"/>
<path d="M35.8366 34.2969C36.0842 34.2969 36.2849 34.0964 36.2849 33.849C36.2849 33.6017 36.0842 33.4012 35.8366 33.4012C35.5891 33.4012 35.3884 33.6017 35.3884 33.849C35.3884 34.0964 35.5891 34.2969 35.8366 34.2969Z" fill="white"/>
<path d="M107.579 10.2342H54.7797V37.9347H107.579V10.2342Z" fill="#E6E6E6"/>
<path d="M107.547 10.1914H54.7474V13.4026H107.547V10.1914Z" fill="#0B5B3E"/>
<path d="M106.309 14.389H55.9651V36.3888H106.309V14.389Z" fill="white"/>
<path d="M59.7508 12.32C60.0444 12.32 60.2824 12.0822 60.2824 11.7888C60.2824 11.4955 60.0444 11.2576 59.7508 11.2576C59.4571 11.2576 59.2191 11.4955 59.2191 11.7888C59.2191 12.0822 59.4571 12.32 59.7508 12.32Z" fill="white"/>
<path d="M61.769 12.32C62.0626 12.32 62.3006 12.0822 62.3006 11.7888C62.3006 11.4955 62.0626 11.2576 61.769 11.2576C61.4753 11.2576 61.2373 11.4955 61.2373 11.7888C61.2373 12.0822 61.4753 12.32 61.769 12.32Z" fill="white"/>
<path d="M57.7275 12.32C58.0211 12.32 58.2591 12.0822 58.2591 11.7888C58.2591 11.4955 58.0211 11.2576 57.7275 11.2576C57.4338 11.2576 57.1958 11.4955 57.1958 11.7888C57.1958 12.0822 57.4338 12.32 57.7275 12.32Z" fill="white"/>
<path d="M81.4967 19.2096C81.3921 19.2235 81.296 19.2748 81.2264 19.3542C81.1569 19.4335 81.1185 19.5354 81.1185 19.6409C81.1185 19.7463 81.1569 19.8482 81.2264 19.9275C81.296 20.0069 81.3921 20.0583 81.4967 20.0721H99.3241C99.4287 20.0583 99.5248 20.0069 99.5944 19.9275C99.6639 19.8482 99.7023 19.7463 99.7023 19.6409C99.7023 19.5354 99.6639 19.4335 99.5944 19.3542C99.5248 19.2748 99.4287 19.2235 99.3241 19.2096H81.4967Z" fill="#E6E6E6"/>
<path d="M81.4967 29.3812C81.3921 29.3951 81.296 29.4465 81.2264 29.5258C81.1569 29.6051 81.1185 29.707 81.1185 29.8125C81.1185 29.918 81.1569 30.0198 81.2264 30.0992C81.296 30.1785 81.3921 30.2299 81.4967 30.2438H99.3241C99.4287 30.2299 99.5248 30.1785 99.5944 30.0992C99.6639 30.0198 99.7023 29.918 99.7023 29.8125C99.7023 29.707 99.6639 29.6051 99.5944 29.5258C99.5248 29.4465 99.4287 29.3951 99.3241 29.3812H81.4967Z" fill="#E6E6E6"/>
<path d="M81.4967 21.7972C81.3921 21.8111 81.296 21.8625 81.2264 21.9418C81.1569 22.0211 81.1185 22.123 81.1185 22.2285C81.1185 22.3339 81.1569 22.4358 81.2264 22.5152C81.296 22.5945 81.3921 22.6459 81.4967 22.6597H89.1679C89.2725 22.6459 89.3686 22.5945 89.4381 22.5152C89.5077 22.4358 89.5461 22.3339 89.5461 22.2285C89.5461 22.123 89.5077 22.0211 89.4381 21.9418C89.3686 21.8625 89.2725 21.8111 89.1679 21.7972H81.4967Z" fill="#E6E6E6"/>
<path d="M81.4967 24.2637C81.392 24.2775 81.296 24.3289 81.2264 24.4083C81.1569 24.4876 81.1185 24.5895 81.1185 24.6949C81.1185 24.8004 81.1569 24.9023 81.2264 24.9816C81.296 25.061 81.392 25.1123 81.4967 25.1262H99.3241C99.4287 25.1123 99.5248 25.061 99.5943 24.9816C99.6639 24.9023 99.7022 24.8004 99.7022 24.6949C99.7022 24.5895 99.6639 24.4876 99.5943 24.4083C99.5248 24.3289 99.4287 24.2775 99.3241 24.2637H81.4967Z" fill="#E6E6E6"/>
<path d="M81.4967 26.8513C81.3921 26.8652 81.296 26.9166 81.2264 26.9959C81.1569 27.0752 81.1185 27.1771 81.1185 27.2826C81.1185 27.3881 81.1569 27.4899 81.2264 27.5693C81.296 27.6486 81.3921 27.7 81.4967 27.7139H89.1679C89.2725 27.7 89.3686 27.6486 89.4381 27.5693C89.5077 27.4899 89.5461 27.3881 89.5461 27.2826C89.5461 27.1771 89.5077 27.0752 89.4381 26.9959C89.3686 26.9166 89.2725 26.8652 89.1679 26.8513H81.4967Z" fill="#E6E6E6"/>
<path d="M71.1068 29.7713C71.1608 29.7714 71.2143 29.7609 71.2642 29.7403C71.3142 29.7198 71.3595 29.6896 71.3978 29.6515C71.436 29.6133 71.4664 29.5681 71.4871 29.5182C71.5078 29.4684 71.5185 29.415 71.5185 29.361C71.5186 29.307 71.5079 29.2536 71.4873 29.2037C71.4666 29.1538 71.4363 29.1085 71.3981 29.0704C71.3599 29.0323 71.3145 29.002 71.2646 28.9814C71.2147 28.9608 71.1612 28.9502 71.1072 28.9503H62.7725C62.7185 28.9502 62.665 28.9607 62.615 28.9812C62.5651 29.0018 62.5197 29.032 62.4815 29.0701C62.4432 29.1082 62.4129 29.1535 62.3921 29.2033C62.3714 29.2532 62.3607 29.3066 62.3607 29.3606C62.3607 29.4146 62.3713 29.468 62.392 29.5179C62.4127 29.5677 62.443 29.613 62.4812 29.6512C62.5194 29.6893 62.5647 29.7196 62.6147 29.7402C62.6646 29.7608 62.7181 29.7714 62.7721 29.7713H71.1068Z" fill="#E4E4E4"/>
<path d="M71.1067 27.3527C71.2156 27.3525 71.3199 27.3092 71.3968 27.2322C71.4736 27.1553 71.5168 27.051 71.5168 26.9422C71.5168 26.8335 71.4736 26.7292 71.3968 26.6522C71.3199 26.5752 71.2156 26.5319 71.1067 26.5317H62.7725C62.7185 26.5316 62.665 26.5421 62.615 26.5627C62.5651 26.5832 62.5197 26.6134 62.4815 26.6515C62.4432 26.6897 62.4129 26.7349 62.3921 26.7848C62.3714 26.8346 62.3607 26.888 62.3607 26.942C62.3607 26.996 62.3713 27.0494 62.392 27.0993C62.4127 27.1492 62.443 27.1945 62.4812 27.2326C62.5194 27.2707 62.5647 27.301 62.6147 27.3216C62.6646 27.3422 62.7181 27.3528 62.7721 27.3527H71.1067Z" fill="#E4E4E4"/>
<path d="M66.9396 19.6821C67.4511 19.6821 67.951 19.8336 68.3763 20.1175C68.8016 20.4015 69.1331 20.805 69.3288 21.2772C69.5245 21.7493 69.5757 22.2688 69.476 22.7701C69.3762 23.2713 69.1299 23.7317 68.7682 24.0931C68.4065 24.4544 67.9458 24.7005 67.4441 24.8002C66.9425 24.8999 66.4225 24.8488 65.9499 24.6532C65.4774 24.4576 65.0735 24.1264 64.7893 23.7015C64.5052 23.2766 64.3535 22.777 64.3535 22.266V22.266C64.3543 21.5809 64.627 20.9241 65.1118 20.4397C65.5966 19.9553 66.2539 19.6828 66.9396 19.6821V19.6821Z" fill="#0B5B3E"/>
<path d="M46.0256 42.5333C46.5844 42.5333 47.0374 42.0807 47.0374 41.5224C47.0374 40.964 46.5844 40.5114 46.0256 40.5114C45.4668 40.5114 45.0138 40.964 45.0138 41.5224C45.0138 42.0807 45.4668 42.5333 46.0256 42.5333Z" fill="#E4E4E4"/>
<path d="M62.2827 40.7357C62.3729 40.7356 62.4623 40.7532 62.5456 40.7876C62.629 40.822 62.7048 40.8725 62.7686 40.9362C62.8324 40.9998 62.883 41.0755 62.9176 41.1587C62.9521 41.242 62.9699 41.3312 62.9699 41.4213C62.9699 41.5114 62.9521 41.6007 62.9176 41.6839C62.883 41.7672 62.8324 41.8428 62.7686 41.9065C62.7048 41.9701 62.629 42.0206 62.5456 42.055C62.4623 42.0894 62.3729 42.1071 62.2827 42.1069H51.6411C51.5509 42.1071 51.4616 42.0894 51.3782 42.055C51.2949 42.0206 51.2191 41.9701 51.1553 41.9065C51.0914 41.8428 51.0408 41.7672 51.0063 41.6839C50.9717 41.6007 50.9539 41.5114 50.9539 41.4213C50.9539 41.3312 50.9717 41.242 51.0063 41.1587C51.0408 41.0755 51.0914 40.9998 51.1553 40.9362C51.2191 40.8725 51.2949 40.822 51.3782 40.7876C51.4616 40.7532 51.5509 40.7356 51.6411 40.7357H62.2827ZM62.2827 40.5678H51.6411C51.4146 40.5678 51.1973 40.6577 51.0371 40.8178C50.8769 40.9778 50.7869 41.1949 50.7869 41.4213C50.7869 41.6477 50.8769 41.8648 51.0371 42.0249C51.1973 42.1849 51.4146 42.2749 51.6411 42.2749H62.2827C62.5093 42.2749 62.7266 42.1849 62.8868 42.0249C63.047 41.8648 63.137 41.6477 63.137 41.4213C63.137 41.1949 63.047 40.9778 62.8868 40.8178C62.7266 40.6577 62.5093 40.5678 62.2827 40.5678V40.5678Z" fill="#E4E4E4"/>
<path d="M58.0838 42.2749H50.0729C49.8463 42.2749 49.629 42.1849 49.4688 42.0249C49.3086 41.8648 49.2186 41.6477 49.2186 41.4213C49.2186 41.1949 49.3086 40.9778 49.4688 40.8178C49.629 40.6577 49.8463 40.5678 50.0729 40.5678H58.0838C58.3104 40.5678 58.5276 40.6577 58.6878 40.8178C58.848 40.9778 58.938 41.1949 58.938 41.4213C58.938 41.6477 58.848 41.8648 58.6878 42.0249C58.5276 42.1849 58.3104 42.2749 58.0838 42.2749Z" fill="#E4E4E4"/>
<path d="M46.0256 46.7314C46.5844 46.7314 47.0374 46.2787 47.0374 45.7204C47.0374 45.162 46.5844 44.7094 46.0256 44.7094C45.4668 44.7094 45.0138 45.162 45.0138 45.7204C45.0138 46.2787 45.4668 46.7314 46.0256 46.7314Z" fill="#E4E4E4"/>
<path d="M62.2827 44.9337C62.3729 44.9336 62.4623 44.9512 62.5456 44.9856C62.629 45.02 62.7048 45.0705 62.7686 45.1342C62.8324 45.1978 62.883 45.2735 62.9176 45.3567C62.9521 45.44 62.9699 45.5292 62.9699 45.6193C62.9699 45.7094 62.9521 45.7987 62.9176 45.8819C62.883 45.9652 62.8324 46.0408 62.7686 46.1045C62.7048 46.1682 62.629 46.2186 62.5456 46.253C62.4623 46.2874 62.3729 46.3051 62.2827 46.3049H51.6411C51.5509 46.3051 51.4616 46.2874 51.3782 46.253C51.2949 46.2186 51.2191 46.1682 51.1553 46.1045C51.0914 46.0408 51.0408 45.9652 51.0063 45.8819C50.9717 45.7987 50.9539 45.7094 50.9539 45.6193C50.9539 45.5292 50.9717 45.44 51.0063 45.3567C51.0408 45.2735 51.0914 45.1978 51.1553 45.1342C51.2191 45.0705 51.2949 45.02 51.3782 44.9856C51.4616 44.9512 51.5509 44.9336 51.6411 44.9337H62.2827ZM62.2827 44.7658H51.6411C51.4146 44.7658 51.1973 44.8557 51.0371 45.0158C50.8769 45.1758 50.7869 45.3929 50.7869 45.6193C50.7869 45.8457 50.8769 46.0628 51.0371 46.2229C51.1973 46.3829 51.4146 46.4729 51.6411 46.4729H62.2827C62.5093 46.4729 62.7266 46.3829 62.8868 46.2229C63.047 46.0628 63.137 45.8457 63.137 45.6193C63.137 45.3929 63.047 45.1758 62.8868 45.0158C62.7266 44.8557 62.5093 44.7658 62.2827 44.7658V44.7658Z" fill="#E4E4E4"/>
<path d="M61.1089 46.4729H50.0729C49.8463 46.4729 49.629 46.3829 49.4688 46.2229C49.3086 46.0628 49.2186 45.8457 49.2186 45.6193C49.2186 45.3929 49.3086 45.1758 49.4688 45.0158C49.629 44.8557 49.8463 44.7658 50.0729 44.7658H61.1089C61.3353 44.7661 61.5523 44.8561 61.7122 45.0162C61.8722 45.1762 61.962 45.3931 61.962 45.6193C61.962 45.8455 61.8722 46.0624 61.7122 46.2225C61.5523 46.3825 61.3353 46.4726 61.1089 46.4729V46.4729Z" fill="#E4E4E4"/>
<path d="M46.0256 50.9294C46.5844 50.9294 47.0374 50.4768 47.0374 49.9184C47.0374 49.3601 46.5844 48.9075 46.0256 48.9075C45.4668 48.9075 45.0138 49.3601 45.0138 49.9184C45.0138 50.4768 45.4668 50.9294 46.0256 50.9294Z" fill="#E4E4E4"/>
<path d="M62.2827 49.1317C62.4647 49.1317 62.6393 49.2039 62.768 49.3325C62.8966 49.461 62.9689 49.6354 62.9689 49.8173C62.9689 49.9991 62.8966 50.1735 62.768 50.3021C62.6393 50.4306 62.4647 50.5029 62.2827 50.5029H51.6411C51.4591 50.5029 51.2846 50.4306 51.1559 50.3021C51.0272 50.1735 50.9549 49.9991 50.9549 49.8173C50.9549 49.6354 51.0272 49.461 51.1559 49.3325C51.2846 49.2039 51.4591 49.1317 51.6411 49.1317H62.2827ZM62.2827 48.9637H51.6411C51.4146 48.9637 51.1973 49.0537 51.0371 49.2137C50.8769 49.3738 50.7869 49.5909 50.7869 49.8173C50.7869 50.0436 50.8769 50.2607 51.0371 50.4208C51.1973 50.5809 51.4146 50.6708 51.6411 50.6708H62.2827C62.5093 50.6708 62.7266 50.5809 62.8868 50.4208C63.047 50.2607 63.137 50.0436 63.137 49.8173C63.137 49.5909 63.047 49.3738 62.8868 49.2137C62.7266 49.0537 62.5093 48.9637 62.2827 48.9637V48.9637Z" fill="#E4E4E4"/>
<path d="M62.3207 50.6708H50.0729C49.8463 50.6708 49.629 50.5809 49.4688 50.4208C49.3086 50.2608 49.2186 50.0437 49.2186 49.8173C49.2186 49.5909 49.3086 49.3738 49.4688 49.2137C49.629 49.0537 49.8463 48.9637 50.0729 48.9637H62.3207C62.5473 48.9637 62.7645 49.0537 62.9247 49.2137C63.0849 49.3738 63.1749 49.5909 63.1749 49.8173C63.1749 50.0437 63.0849 50.2608 62.9247 50.4208C62.7645 50.5809 62.5473 50.6708 62.3207 50.6708V50.6708Z" fill="#E4E4E4"/>
<path d="M94.1644 60.888C94.288 60.741 94.3778 60.5686 94.4276 60.3831C94.4773 60.1976 94.4858 60.0035 94.4523 59.8144C94.4189 59.6253 94.3443 59.4458 94.2339 59.2886C94.1235 59.1314 93.98 59.0002 93.8134 58.9045L94.6872 54.3185L92.4461 55.2517L91.9599 59.4635C91.8174 59.7538 91.7864 60.0863 91.8729 60.3979C91.9593 60.7095 92.1571 60.9785 92.4289 61.1541C92.7006 61.3297 93.0273 61.3996 93.3472 61.3506C93.6671 61.3015 93.9578 61.137 94.1644 60.888V60.888Z" fill="#FFB7B7"/>
<path d="M105.339 89.0282L103.441 89.028L102.538 81.7148L105.339 81.7149L105.339 89.0282Z" fill="#FFB7B7"/>
<path d="M105.823 90.8661L99.7039 90.8659V90.7885C99.7039 90.1574 99.9548 89.5522 100.401 89.106C100.848 88.6597 101.454 88.409 102.085 88.409H102.086L105.823 88.4091L105.823 90.8661Z" fill="#2F2E41"/>
<path d="M94.9681 89.0282L93.0704 89.028L92.1677 81.7148L94.9685 81.7149L94.9681 89.0282Z" fill="#FFB7B7"/>
<path d="M94.9878 90.8661L88.869 90.8659V90.7885C88.8691 90.1574 89.12 89.5522 89.5666 89.106C90.0132 88.6597 90.619 88.409 91.2506 88.409H91.2508L94.9879 88.4091L94.9878 90.8661Z" fill="#2F2E41"/>
<path d="M94.8127 58.1402L92.9553 62.4158L91.4231 86.9904L95.2928 86.8357L96.3495 75.121L99.6098 64.6869L101.484 76.3192L102.258 86.5263L105.46 86.6649L106.736 58.1402H94.8127Z" fill="#2F2E41"/>
<path d="M104.097 37.0429L98.714 37.1775L95.5533 38.7986L95.3799 50.7592L93.4087 59.017C93.4087 59.017 105.725 59.864 107.428 58.6267L105.415 49.1928L108.114 38.9974L104.097 37.0429Z" fill="#5AC817"/>
<path d="M96.1283 38.9856L95.5533 38.7986C95.5533 38.7986 93.7292 39.9683 93.9027 42.7963C93.9027 42.7963 93.8344 44.2597 93.8996 45.2336C93.9745 46.3507 91.7327 57.4513 91.7327 57.4513H94.9831L96.3762 47.3987L96.1283 38.9856Z" fill="#57BE19"/>
<path d="M108.03 61.0427C107.906 60.8956 107.816 60.7233 107.767 60.5378C107.717 60.3523 107.708 60.1581 107.742 59.969C107.775 59.7799 107.85 59.6004 107.96 59.4432C108.071 59.286 108.214 59.1549 108.381 59.0591L107.507 54.4732L109.748 55.4063L110.234 59.6181C110.377 59.9084 110.408 60.2409 110.321 60.5525C110.235 60.8641 110.037 61.1331 109.765 61.3087C109.494 61.4843 109.167 61.5542 108.847 61.5052C108.527 61.4561 108.236 61.2916 108.03 61.0427V61.0427Z" fill="#FFB7B7"/>
<path d="M107.304 39.1402L107.879 38.9532C107.879 38.9532 109.703 40.123 109.53 42.9509C109.53 42.9509 109.598 44.4143 109.533 45.3882C109.458 46.5053 110.462 57.6059 110.462 57.6059H107.211L105.818 47.5534L107.304 39.1402Z" fill="#57BE19"/>
<path d="M105.419 32.0249C105.419 32.7624 105.2 33.4833 104.79 34.0965C104.38 34.7097 103.797 35.1876 103.115 35.4698C102.433 35.7521 101.683 35.8259 100.959 35.682C100.235 35.5381 99.57 35.183 99.0481 34.6616C98.5262 34.1401 98.1708 33.4757 98.0268 32.7524C97.8828 32.0291 97.9567 31.2794 98.2391 30.598C98.5216 29.9167 98.9999 29.3343 99.6136 28.9246C100.227 28.5149 100.949 28.2962 101.687 28.2962V28.2962C102.176 28.295 102.66 28.39 103.112 28.5758C103.564 28.7616 103.975 29.0345 104.322 29.379C104.668 29.7236 104.944 30.1329 105.132 30.5837C105.32 31.0345 105.418 31.5179 105.419 32.0064C105.419 32.0126 105.419 32.0187 105.419 32.0249Z" fill="#FFB7B7"/>
<path d="M97.9675 27.0166C98.4047 26.0773 99.2507 26.263 99.9906 26.5814C100.928 26.3737 101.819 25.752 102.828 26.1197C103.823 27.5648 107.161 27.1396 106.451 29.4923C106.45 30.056 107.513 29.7279 107.327 30.6512C107.89 32.428 105.295 35.7931 103.806 35.0845C104.174 34.4099 105.016 32.8776 103.739 32.7256C100.994 35.2783 103.456 27.8648 100.006 30.0208C98.8637 31.0653 97.2999 28.0613 97.9675 27.0166Z" fill="#2F2E41"/>
</svg>
