<svg width="71" height="71" viewBox="0 0 71 71" fill="none" xmlns="http://www.w3.org/2000/svg">
<path d="M14.112 69.6C11.552 69.6 9.376 69.088 7.584 68.064C5.792 66.976 4.32 65.536 3.168 63.744C2.08 61.888 1.28 59.712 0.768 57.216C0.256 54.72 0 52.064 0 49.248C0 46.432 0.416 43.616 1.248 40.8C2.08 37.984 3.2 35.456 4.608 33.216C6.08 30.912 7.776 29.056 9.696 27.648C11.616 26.24 13.664 25.536 15.84 25.536C19.104 25.536 21.568 26.496 23.232 28.416C24.96 30.272 25.824 32.544 25.824 35.232C25.824 38.24 25.344 40.864 24.384 43.104C23.424 45.28 22.112 47.264 20.448 49.056C19.488 50.08 18.304 51.008 16.896 51.84C15.488 52.608 14.08 53.12 12.672 53.376C12.16 53.504 11.68 53.6 11.232 53.664C10.784 53.664 10.4 53.696 10.08 53.76C10.08 55.168 10.304 56.448 10.752 57.6C11.584 59.52 12.832 60.48 14.496 60.48C16.096 60.48 17.536 60.064 18.816 59.232C19.776 58.592 20.672 57.76 21.504 56.736C22.4 55.712 23.232 54.592 24 53.376C24.768 52.096 25.504 50.784 26.208 49.44C26.976 48.032 27.744 46.688 28.512 45.408C29.408 43.872 30.688 43.104 32.352 43.104C33.504 43.104 34.4 43.552 35.04 44.448C35.68 45.28 36 46.24 36 47.328C36 48.352 35.712 49.472 35.136 50.688C34.56 51.84 33.952 53.024 33.312 54.24C32.16 56.48 30.624 58.816 28.704 61.248C26.784 63.68 24.384 65.792 21.504 67.584C19.264 68.928 16.8 69.6 14.112 69.6ZM10.272 44.64C10.272 45.024 10.432 45.216 10.752 45.216C11.52 45.216 12.256 44.96 12.96 44.448C13.728 43.872 14.4 43.168 14.976 42.336C15.616 41.504 16.128 40.576 16.512 39.552C16.896 38.464 17.088 37.44 17.088 36.48C17.088 35.136 16.576 34.464 15.552 34.464C14.912 34.464 14.272 34.816 13.632 35.52C13.056 36.224 12.512 37.12 12 38.208C11.488 39.232 11.072 40.32 10.752 41.472C10.432 42.624 10.272 43.68 10.272 44.64Z" fill="#7C85FE"/>
<path d="M53.82 56.64C54.012 57.728 54.524 58.272 55.356 58.272C56.06 58.272 56.892 57.536 57.852 56.064C58.876 54.4 59.74 52.736 60.444 51.072C61.148 49.408 61.948 47.712 62.844 45.984C63.292 45.088 63.9 44.416 64.668 43.968C65.436 43.52 66.14 43.296 66.78 43.296C68.06 43.296 69.02 43.648 69.66 44.352C70.364 44.992 70.716 45.824 70.716 46.848C70.716 48.064 70.364 49.408 69.66 50.88C69.02 52.288 68.412 53.632 67.836 54.912C67.452 55.744 66.94 56.736 66.3 57.888C65.724 58.976 65.052 60.096 64.284 61.248C63.516 62.4 62.716 63.52 61.884 64.608C61.052 65.632 60.22 66.496 59.388 67.2C58.236 68.224 57.18 68.96 56.22 69.408C55.26 69.856 54.076 70.08 52.668 70.08C51.132 70.08 49.916 69.664 49.02 68.832C48.188 67.936 47.42 66.816 46.716 65.472C46.332 64.768 46.076 64.416 45.948 64.416C45.756 64.416 45.564 64.512 45.372 64.704C45.244 64.896 45.052 65.12 44.796 65.376C43.644 66.528 42.428 67.552 41.148 68.448C39.932 69.28 38.428 69.696 36.636 69.696C33.564 69.696 31.036 68.416 29.052 65.856C27.132 63.232 26.172 59.68 26.172 55.2C26.172 52.192 26.556 49.312 27.324 46.56C28.092 43.808 29.148 41.408 30.492 39.36C31.836 37.248 33.468 35.584 35.388 34.368C37.308 33.088 39.42 32.448 41.724 32.448C42.684 32.448 43.58 32.576 44.412 32.832C44.476 31.808 44.508 30.944 44.508 30.24C44.572 29.472 44.668 28.608 44.796 27.648C44.988 26.048 45.18 24.288 45.372 22.368C45.628 20.448 45.948 18.496 46.332 16.512C46.78 14.464 47.292 12.448 47.868 10.464C48.444 8.48 49.18 6.656 50.076 4.992C50.844 3.52 51.676 2.336 52.572 1.44C53.532 0.480001 54.748 0 56.22 0C57.884 0 59.1 0.832001 59.868 2.496C60.636 4.096 61.02 6.24 61.02 8.928C61.02 14.624 60.316 20.736 58.908 27.264C57.564 33.792 55.708 41.28 53.34 49.728C53.34 50.816 53.34 51.968 53.34 53.184C53.404 54.4 53.564 55.552 53.82 56.64ZM38.556 59.232C39.708 59.232 40.796 58.624 41.82 57.408C42.908 56.192 43.58 54.752 43.836 53.088C43.772 52.32 43.708 51.552 43.644 50.784C43.644 49.952 43.644 49.216 43.644 48.576C43.644 47.36 43.644 46.208 43.644 45.12C43.644 44.032 43.708 42.944 43.836 41.856C43.644 41.728 43.388 41.664 43.068 41.664C42.812 41.6 42.588 41.568 42.396 41.568C41.436 41.568 40.54 41.952 39.708 42.72C38.876 43.424 38.14 44.384 37.5 45.6C36.924 46.816 36.476 48.16 36.156 49.632C35.836 51.104 35.676 52.576 35.676 54.048C35.676 55.712 35.868 56.992 36.252 57.888C36.7 58.784 37.468 59.232 38.556 59.232Z" fill="#7C85FE"/>
</svg>
