<svg width="43" height="42" viewBox="0 0 43 42" fill="none" xmlns="http://www.w3.org/2000/svg">
<path d="M21.0013 0C9.4221 0 0 9.41948 0 21C0 32.5805 9.4221 42 21.0013 42C32.5805 42 42.0026 32.5805 42.0026 21C42.0026 9.41948 32.5805 0 21.0013 0ZM21.0013 40.6012C10.1935 40.6012 1.4014 31.8078 1.4014 21C1.4014 10.1922 10.1935 1.39878 21.0013 1.39878C31.8091 1.39878 40.6012 10.1922 40.6012 21C40.6012 31.8078 31.8091 40.6012 21.0013 40.6012Z" fill="white"/>
<path d="M25.5854 9.21269H22.0911C17.6406 9.16816 17.0722 11.9225 17.0722 14.9034V17.071H15.1077C15.0189 17.0591 14.9285 17.0679 14.8437 17.0966C14.7588 17.1253 14.6817 17.1732 14.6184 17.2366C14.555 17.2999 14.5071 17.377 14.4784 17.4619C14.4497 17.5467 14.4409 17.6371 14.4528 17.7258V21.655C14.4409 21.7438 14.4497 21.8341 14.4784 21.919C14.5071 22.0038 14.555 22.0809 14.6184 22.1443C14.6817 22.2076 14.7588 22.2555 14.8437 22.2842C14.9285 22.3129 15.0189 22.3217 15.1077 22.3099H17.0722V32.1327C17.0613 32.2217 17.0709 32.312 17.1002 32.3967C17.1295 32.4813 17.1778 32.5582 17.2413 32.6214C17.3049 32.6846 17.3821 32.7324 17.4669 32.7612C17.5518 32.79 17.6421 32.799 17.731 32.7876H21.7322C22.1186 32.8321 22.4316 32.5191 22.3085 32.1327L22.3111 22.3099H25.5854C25.6742 22.3217 25.7645 22.3129 25.8494 22.2842C25.9342 22.2555 26.0113 22.2076 26.0747 22.1443C26.138 22.0809 26.1859 22.0038 26.2146 21.919C26.2433 21.8341 26.2521 21.7438 26.2402 21.655V17.7258C26.2521 17.6371 26.2433 17.5467 26.2146 17.4619C26.1859 17.377 26.138 17.2999 26.0747 17.2366C26.0113 17.1732 25.9342 17.1253 25.8494 17.0966C25.7645 17.0679 25.6742 17.0591 25.5854 17.071H22.3072L22.3111 15.1064C22.4381 14.2695 22.4381 14.4057 23.2148 14.4516H25.5579C25.7399 14.411 25.9338 14.4332 26.07 14.3009C26.2062 14.1687 26.2848 13.9879 26.2389 13.7967V9.86755C26.251 9.77882 26.2425 9.68851 26.2139 9.60364C26.1854 9.51876 26.1376 9.44163 26.0743 9.37825C26.0111 9.31487 25.9341 9.26696 25.8492 9.23824C25.7644 9.20952 25.6741 9.20078 25.5854 9.21269V9.21269ZM24.8847 13.0685L23.2423 13.0056C21.2083 13.0056 21.038 14.1097 21.038 15.24L21.0328 17.7232C21.0326 17.8152 21.0506 17.9063 21.0857 17.9913C21.1207 18.0763 21.1722 18.1535 21.2372 18.2186C21.3022 18.2837 21.3793 18.3353 21.4643 18.3706C21.5492 18.4058 21.6402 18.4239 21.7322 18.4239H24.9305V20.9543H21.7348C21.5492 20.9543 21.3712 21.0279 21.2398 21.1591C21.1084 21.2902 21.0345 21.4681 21.0341 21.6537L21.0328 31.4779H18.3819V21.655C18.3819 21.2686 18.1187 20.9556 17.731 20.9556H15.7625V18.4252H17.731C17.8229 18.4254 17.9139 18.4074 17.9989 18.3723C18.0838 18.3373 18.161 18.2858 18.2261 18.2209C18.3571 18.0886 18.3806 17.9105 18.3806 17.7245V14.9021C18.3806 11.9657 18.9739 10.5669 22.0898 10.5669H24.8834V13.0685H24.8847Z" fill="white"/>
</svg>
