<svg width="56" height="56" viewBox="0 0 56 56" fill="none" xmlns="http://www.w3.org/2000/svg">
<path d="M51.7618 27.6172L29.236 5.1078C29.0738 4.9453 28.8811 4.81637 28.6691 4.7284C28.457 4.64043 28.2296 4.59515 28 4.59515C27.7705 4.59515 27.5431 4.64043 27.331 4.7284C27.1189 4.81637 26.9263 4.9453 26.7641 5.1078L4.23833 27.6172C3.58208 28.2734 3.21021 29.1648 3.21021 30.0945C3.21021 32.025 4.77974 33.5945 6.7102 33.5945H9.08364V49.6562C9.08364 50.6242 9.86567 51.4062 10.8336 51.4062H24.5V39.1562H30.625V51.4062H45.1665C46.1344 51.4062 46.9165 50.6242 46.9165 49.6562V33.5945H49.2899C50.2196 33.5945 51.111 33.2281 51.7672 32.5664C53.129 31.1992 53.129 28.9844 51.7618 27.6172V27.6172Z" fill="#0B5B3E" fill-opacity="0.5"/>
</svg>
