<svg width="33" height="32" viewBox="0 0 33 32" fill="none" xmlns="http://www.w3.org/2000/svg">
<path d="M16.621 8.75193C15.1963 8.75193 13.8036 9.1744 12.619 9.96593C11.4344 10.7575 10.5111 11.8825 9.96591 13.1987C9.4207 14.515 9.27804 15.9634 9.55599 17.3607C9.83394 18.758 10.52 20.0416 11.5274 21.049C12.5348 22.0564 13.8184 22.7425 15.2157 23.0204C16.613 23.2983 18.0614 23.1557 19.3777 22.6105C20.6939 22.0653 21.8189 21.142 22.6105 19.9574C23.402 18.7728 23.8245 17.3801 23.8245 15.9554C23.8223 14.0456 23.0627 12.2146 21.7122 10.8642C20.3618 9.51372 18.5308 8.7541 16.621 8.75193V8.75193ZM16.621 21.8491C15.4554 21.8491 14.3159 21.5034 13.3466 20.8558C12.3774 20.2082 11.622 19.2877 11.1759 18.2108C10.7298 17.1339 10.6131 15.9488 10.8405 14.8056C11.068 13.6623 11.6293 12.6121 12.4535 11.7879C13.2778 10.9636 14.3279 10.4023 15.4712 10.1749C16.6145 9.94748 17.7995 10.0642 18.8765 10.5103C19.9534 10.9564 20.8739 11.7118 21.5215 12.681C22.1691 13.6502 22.5147 14.7897 22.5147 15.9554C22.513 17.518 21.8915 19.016 20.7866 20.121C19.6817 21.2259 18.1836 21.8474 16.621 21.8491ZM23.8245 0.23877H9.41758C7.16053 0.241326 4.99666 1.13907 3.40069 2.73504C1.80472 4.33101 0.906975 6.49488 0.904419 8.75193V23.1588C0.906975 25.4159 1.80472 27.5797 3.40069 29.1757C4.99666 30.7717 7.16053 31.6694 9.41758 31.672H23.8245C26.0815 31.6694 28.2454 30.7717 29.8414 29.1757C31.4373 27.5797 32.3351 25.4159 32.3376 23.1588V8.75193C32.3351 6.49488 31.4373 4.33101 29.8414 2.73504C28.2454 1.13907 26.0815 0.241326 23.8245 0.23877V0.23877ZM31.0279 23.1588C31.0257 25.0686 30.2661 26.8996 28.9157 28.25C27.5652 29.6005 25.7343 30.3601 23.8245 30.3623H9.41758C7.50777 30.3601 5.67681 29.6005 4.32637 28.25C2.97593 26.8996 2.2163 25.0686 2.21414 23.1588V8.75193C2.2163 6.84212 2.97593 5.01116 4.32637 3.66072C5.67681 2.31028 7.50777 1.55065 9.41758 1.54849H23.8245C25.7343 1.55065 27.5652 2.31028 28.9157 3.66072C30.2661 5.01116 31.0257 6.84212 31.0279 8.75193V23.1588ZM26.4439 7.44221C26.4439 7.70125 26.3671 7.95447 26.2232 8.16985C26.0793 8.38523 25.8747 8.5531 25.6354 8.65223C25.3961 8.75136 25.1327 8.7773 24.8787 8.72676C24.6246 8.67623 24.3912 8.55149 24.2081 8.36832C24.0249 8.18515 23.9002 7.95179 23.8496 7.69773C23.7991 7.44366 23.825 7.18032 23.9242 6.941C24.0233 6.70169 24.1912 6.49714 24.4065 6.35322C24.6219 6.20931 24.8751 6.1325 25.1342 6.1325C25.4814 6.13293 25.8143 6.27106 26.0598 6.51658C26.3053 6.76211 26.4435 7.09499 26.4439 7.44221V7.44221Z" fill="white"/>
</svg>
