<svg width="32" height="32" viewBox="0 0 32 32" fill="none" xmlns="http://www.w3.org/2000/svg">
<path d="M10.4777 8.09707C10.4777 8.35611 10.4009 8.60933 10.257 8.82471C10.1131 9.04009 9.90854 9.20796 9.66923 9.30709C9.42991 9.40622 9.16656 9.43216 8.9125 9.38162C8.65844 9.33109 8.42508 9.20635 8.24191 9.02318C8.05874 8.84001 7.934 8.60664 7.88347 8.35258C7.83293 8.09852 7.85887 7.83518 7.958 7.59586C8.05713 7.35654 8.225 7.15199 8.44038 7.00808C8.65576 6.86417 8.90898 6.78735 9.16802 6.78735C9.51538 6.78735 9.84851 6.92534 10.0941 7.17096C10.3397 7.41658 10.4777 7.74971 10.4777 8.09707ZM9.16802 12.6812C8.99434 12.6812 8.82777 12.7502 8.70496 12.873C8.58215 12.9959 8.51316 13.1624 8.51316 13.3361V23.8138C8.51316 23.9875 8.58215 24.1541 8.70496 24.2769C8.82777 24.3997 8.99434 24.4687 9.16802 24.4687C9.3417 24.4687 9.50826 24.3997 9.63107 24.2769C9.75388 24.1541 9.82288 23.9875 9.82288 23.8138V13.3361C9.82288 13.1624 9.75388 12.9959 9.63107 12.873C9.50826 12.7502 9.3417 12.6812 9.16802 12.6812ZM18.9909 12.6812C18.2471 12.6811 17.5118 12.8398 16.8342 13.1467C16.1566 13.4535 15.5523 13.9014 15.0617 14.4605V13.3359C15.0617 13.1623 14.9928 12.9957 14.8699 12.8729C14.7471 12.7501 14.5806 12.6811 14.4069 12.6811C14.2332 12.6811 14.0666 12.7501 13.9438 12.8729C13.821 12.9957 13.752 13.1623 13.752 13.3359V23.8137C13.752 23.9874 13.821 24.1539 13.9438 24.2767C14.0666 24.3995 14.2332 24.4685 14.4069 24.4685C14.5806 24.4685 14.7471 24.3995 14.8699 24.2767C14.9928 24.1539 15.0617 23.9874 15.0617 23.8137V17.9199C15.0617 16.8779 15.4757 15.8785 16.2126 15.1416C16.9494 14.4048 17.9488 13.9908 18.9909 13.9908C20.033 13.9908 21.0324 14.4048 21.7692 15.1416C22.5061 15.8785 22.92 16.8779 22.92 17.9199V23.8137C22.92 23.9874 22.989 24.1539 23.1118 24.2767C23.2347 24.3995 23.4012 24.4685 23.5749 24.4685C23.7486 24.4685 23.9151 24.3995 24.038 24.2767C24.1608 24.1539 24.2298 23.9874 24.2298 23.8137V17.9199C24.2282 16.531 23.6758 15.1994 22.6936 14.2172C21.7115 13.2351 20.3798 12.6826 18.9909 12.6811V12.6812ZM31.4332 2.20334V29.7074C31.4326 30.2282 31.2254 30.7276 30.8571 31.0959C30.4888 31.4642 29.9895 31.6714 29.4686 31.672H1.96458C1.44372 31.6714 0.944379 31.4642 0.576081 31.0959C0.207783 30.7276 0.000606599 30.2282 0 29.7074V2.20334C0.000606599 1.68249 0.207783 1.18315 0.576081 0.81485C0.944379 0.446552 1.44372 0.239376 1.96458 0.23877H29.4686C29.9895 0.239376 30.4888 0.446552 30.8571 0.81485C31.2254 1.18315 31.4326 1.68249 31.4332 2.20334V2.20334ZM30.1235 2.20334C30.1233 2.02973 30.0542 1.86329 29.9314 1.74053C29.8087 1.61777 29.6422 1.5487 29.4686 1.54849H1.96458C1.79096 1.5487 1.62452 1.61777 1.50176 1.74053C1.379 1.86329 1.30993 2.02973 1.30972 2.20334V29.7074C1.30993 29.881 1.379 30.0475 1.50176 30.1702C1.62452 30.293 1.79096 30.362 1.96458 30.3623H29.4686C29.6422 30.362 29.8087 30.293 29.9314 30.1702C30.0542 30.0475 30.1233 29.881 30.1235 29.7074V2.20334Z" fill="white"/>
</svg>
