<svg width="43" height="39" viewBox="0 0 43 39" fill="none" xmlns="http://www.w3.org/2000/svg">
<g filter="url(#filter0_d)">
<path d="M38.8519 4.57191C38.8023 4.45224 38.7184 4.34995 38.6108 4.27797C38.5031 4.206 38.3765 4.16756 38.247 4.16754H32.8774C32.2795 2.9996 31.3746 2.01671 30.2599 1.32452C29.1452 0.632321 27.863 0.256993 26.551 0.238878C24.629 0.228376 22.7813 0.980952 21.4136 2.3314C20.0459 3.68185 19.27 5.51982 19.2561 7.44183L19.2544 9.27052C12.0382 7.73422 6.02891 1.80153 5.96686 1.73965C5.88233 1.65519 5.7763 1.59546 5.66025 1.56694C5.54421 1.53843 5.42257 1.54221 5.30852 1.57788C5.19447 1.61354 5.09236 1.67974 5.01323 1.76929C4.93411 1.85884 4.881 1.96833 4.85966 2.08591C3.46481 9.75774 5.75599 14.875 7.92374 17.8169C9.14717 19.4915 10.6677 20.9272 12.4097 22.0525C9.83707 25.3831 5.32166 27.1113 5.27418 27.1293C5.18181 27.164 5.09846 27.219 5.03036 27.2904C4.96225 27.3617 4.91115 27.4476 4.88086 27.5414C4.85057 27.6353 4.84189 27.7348 4.85545 27.8325C4.86902 27.9303 4.90448 28.0236 4.95919 28.1057C5.00258 28.1707 5.41498 28.7575 6.52087 29.3105C7.91621 30.0081 9.77748 30.3619 12.0526 30.3619C23.3403 30.3619 32.7576 21.611 33.6014 10.3941L38.7099 5.28554C38.8016 5.19395 38.8639 5.07724 38.8892 4.95018C38.9145 4.82312 38.9015 4.69142 38.8519 4.57175V4.57191ZM32.502 9.64117C32.3895 9.75383 32.3218 9.90363 32.3116 10.0626C31.6332 20.7109 22.7343 29.0522 12.0526 29.0522C9.13097 29.0522 7.52968 28.4158 6.73124 27.9279C8.42962 27.1375 11.8809 25.2515 13.9072 22.212C13.9587 22.1347 13.9932 22.0474 14.0084 21.9558C14.0236 21.8642 14.0191 21.7704 13.9953 21.6806C13.9715 21.5909 13.9288 21.5072 13.8702 21.4352C13.8116 21.3632 13.7383 21.3045 13.6552 21.2629C13.6305 21.2507 11.1515 19.9896 8.97806 17.0399C6.25156 13.3396 5.23767 8.79526 5.95753 3.51677C8.05176 5.36838 13.4668 9.65116 19.8009 10.7071C19.8947 10.7228 19.9907 10.7178 20.0824 10.6926C20.174 10.6673 20.2591 10.6225 20.3317 10.5611C20.4042 10.4996 20.4626 10.4232 20.5026 10.3369C20.5426 10.2507 20.5634 10.1568 20.5635 10.0618L20.5658 7.44281V7.44216C20.5796 5.8703 21.2153 4.36787 22.3338 3.26341C23.4524 2.15896 24.9627 1.54235 26.5347 1.54843C27.6686 1.56413 28.774 1.90593 29.7189 2.533C30.6637 3.16008 31.4081 4.0459 31.8631 5.08467C31.9141 5.20134 31.998 5.30061 32.1045 5.37033C32.211 5.44006 32.3356 5.47722 32.4629 5.47725H36.6658L32.502 9.64117Z" fill="white"/>
</g>
<defs>
<filter id="filter0_d" x="0.433228" y="0.23877" width="42.4685" height="38.1231" filterUnits="userSpaceOnUse" color-interpolation-filters="sRGB">
<feFlood flood-opacity="0" result="BackgroundImageFix"/>
<feColorMatrix in="SourceAlpha" type="matrix" values="0 0 0 0 0 0 0 0 0 0 0 0 0 0 0 0 0 0 127 0" result="hardAlpha"/>
<feOffset dy="4"/>
<feGaussianBlur stdDeviation="2"/>
<feComposite in2="hardAlpha" operator="out"/>
<feColorMatrix type="matrix" values="0 0 0 0 0 0 0 0 0 0 0 0 0 0 0 0 0 0 0.25 0"/>
<feBlend mode="normal" in2="BackgroundImageFix" result="effect1_dropShadow"/>
<feBlend mode="normal" in="SourceGraphic" in2="effect1_dropShadow" result="shape"/>
</filter>
</defs>
</svg>
