<svg width="1440" height="491" viewBox="0 0 1440 491" fill="none" xmlns="http://www.w3.org/2000/svg">
<rect width="1440" height="491" fill="#E9FBD3"/>
<g opacity="0.8">
<path opacity="0.5" d="M1243.73 71.7988C1241.61 68.8824 1237.23 72.0462 1239.21 75.0598C1239.73 75.8552 1240.29 76.6152 1240.84 77.3487C1247.35 86.2658 1250.73 97.0917 1253.64 107.785C1254.35 110.436 1255.04 113.22 1254.23 115.81C1255.4 108.863 1254.64 101.67 1252.88 94.8558C1251.11 88.0421 1248.43 81.52 1245.56 75.0422C1245.06 73.8996 1244.45 72.8126 1243.73 71.7988Z" fill="#5AC817"/>
<path opacity="0.8" d="M1201.43 90.5254C1197.07 90.384 1196.48 97.1447 1200.86 97.4982C1202.01 97.5865 1203.16 97.6131 1204.27 97.6484C1217.73 98.0196 1230.44 102.951 1242.7 108.253C1245.7 109.561 1248.81 111.028 1250.62 113.821C1245.1 107.343 1237.83 102.597 1230.11 99.1066C1222.39 95.6158 1214.15 93.3269 1205.93 91.1528C1204.46 90.7764 1202.95 90.5659 1201.43 90.5254V90.5254Z" fill="#5AC817"/>
<path opacity="0.2" d="M1202.64 107.148C1199.87 107.246 1200.5 111.249 1203.29 111.267C1204.02 111.267 1204.76 111.267 1205.45 111.214C1213.94 110.86 1222.64 113.237 1231.08 115.845C1233.16 116.49 1235.34 117.214 1236.85 118.787C1232.37 115.284 1227.29 112.645 1221.87 111.002C1216.53 109.393 1211.08 108.179 1205.57 107.369C1204.6 107.194 1203.62 107.12 1202.64 107.148V107.148Z" fill="#5AC817"/>
<path opacity="0.5" d="M1259.48 181.435C1260.26 184.139 1263.93 182.531 1263.26 179.782C1263.08 179.067 1262.87 178.36 1262.67 177.679C1260.23 169.434 1260.34 160.305 1260.74 151.379C1260.85 149.187 1261 146.863 1262.12 144.998C1259.89 150.261 1258.62 155.896 1258.4 161.621C1258.18 167.263 1258.37 172.914 1258.96 178.527C1259.04 179.512 1259.21 180.486 1259.48 181.435V181.435Z" fill="#5AC817"/>
<path opacity="0.2" d="M1207.71 68.0237C1206.04 67.732 1205.91 70.1977 1207.57 70.5689C1208.01 70.6661 1208.45 70.7456 1208.87 70.8163C1213.99 71.7001 1218.88 74.2364 1223.59 76.8788C1224.81 77.4424 1225.87 78.3016 1226.67 79.3799C1224.43 76.7099 1221.73 74.4783 1218.7 72.7959C1215.71 71.1511 1212.61 69.7247 1209.42 68.5274C1208.87 68.3062 1208.29 68.1376 1207.71 68.0237V68.0237Z" fill="#5AC817"/>
<path opacity="0.8" d="M1181.9 133.395C1177.66 135.604 1181.24 141.675 1185.6 139.66C1186.74 139.13 1187.85 138.538 1188.91 137.981C1201.88 131.168 1216.93 128.666 1231.74 126.731C1235.37 126.263 1239.25 125.847 1242.61 127.306C1233.45 124.654 1223.69 124.469 1214.26 125.538C1204.83 126.607 1195.66 129.073 1186.57 131.574C1184.96 132.018 1183.39 132.628 1181.9 133.395V133.395Z" fill="#5AC817"/>
<path opacity="0.5" d="M1194.02 157.02C1190.96 159.901 1195.76 163.303 1198.92 160.555C1199.79 159.83 1200.55 159.061 1201.32 158.336C1210.6 149.499 1222.88 143.224 1235.1 137.427C1238.1 136.004 1250.45 134.555 1253.75 134.634C1245.14 135.412 1227.57 138.169 1219.72 141.704C1212.05 145.395 1204.64 149.608 1197.54 154.315C1196.29 155.103 1195.11 156.008 1194.02 157.02V157.02Z" fill="#5AC817"/>
<path opacity="0.8" d="M1215.76 194.735C1214.89 198.853 1220.69 198.915 1221.77 194.797C1222.05 193.719 1222.28 192.632 1222.5 191.598C1225.18 178.987 1231.75 166.738 1238.56 154.94C1240.23 152.041 1249.58 143.734 1252.33 141.905C1245.69 147.508 1232.75 159.871 1228.33 167.339C1224.1 174.79 1220.36 182.523 1217.16 190.484C1216.56 191.853 1216.09 193.276 1215.76 194.735Z" fill="#5AC817"/>
<path opacity="0.8" d="M1259.52 49.9421C1257.45 45.6559 1251.52 49.1821 1253.42 53.5832C1253.91 54.732 1254.46 55.8544 1255 56.9326C1261.38 70.0297 1263.58 85.2126 1265.23 100.068C1265.63 103.727 1265.97 107.616 1264.51 110.974C1267.18 101.809 1267.54 92.0174 1266.62 82.5348C1265.69 73.0522 1263.49 63.8435 1261.18 54.6613C1260.79 53.0353 1260.23 51.454 1259.52 49.9421V49.9421Z" fill="#5AC817"/>
<path opacity="0.8" d="M1226.46 57.242C1226.56 57.3065 1226.69 57.343 1226.81 57.348C1227.04 57.348 1227.21 57.1094 1227.3 56.8973C1227.82 55.7573 1227.52 54.2461 1228.32 53.3623C1229.13 54.3489 1229.79 55.4582 1230.26 56.6499L1233.3 55.6954C1233.45 56.2937 1233.47 56.9148 1233.37 57.522C1233.27 58.1291 1233.05 58.7101 1232.73 59.2304C1233.26 59.4695 1233.75 59.8049 1234.16 60.2202C1234.37 60.4308 1234.51 60.6951 1234.58 60.9838C1234.64 61.2725 1234.63 61.5742 1234.54 61.8551C1233.83 62.0271 1233.11 62.0985 1232.39 62.0672C1232.5 63.4238 1232.42 64.7899 1232.15 66.1236C1232.15 66.2226 1232.12 66.319 1232.07 66.4071C1232.03 66.4952 1231.97 66.5732 1231.89 66.6362C1231.67 66.7865 1231.38 66.6362 1231.15 66.5125C1230.1 65.8631 1229.24 64.9496 1228.65 63.8612L1227.49 66.4948C1227.4 66.7759 1227.22 67.0175 1226.98 67.1753C1226.81 67.2369 1226.62 67.2381 1226.45 67.1788C1226.28 67.1194 1226.13 67.0031 1226.03 66.8483C1225.84 66.5298 1225.73 66.1737 1225.7 65.8055L1225.27 63.1542C1225.26 63.0183 1225.22 62.8879 1225.13 62.7831C1225 62.6853 1224.84 62.6382 1224.68 62.6505C1223.6 62.6505 1222.53 62.6505 1221.46 62.6505C1221.27 62.0672 1221.84 61.5281 1222.39 61.2895C1222.94 61.0509 1223.59 60.8565 1223.87 60.3174C1224.43 59.2127 1223 57.6662 1223.59 56.7294C1224.34 55.6689 1225.51 56.7736 1226.46 57.242Z" fill="#5AC817"/>
<path opacity="0.5" d="M1285.25 71.7988C1287.37 68.8824 1291.74 72.0462 1289.77 75.0598C1289.25 75.8552 1288.69 76.6152 1288.15 77.3487C1281.63 86.2658 1278.26 97.0917 1275.34 107.785C1274.63 110.436 1273.94 113.22 1274.76 115.81C1273.59 108.863 1274.35 101.67 1276.11 94.8558C1277.87 88.0421 1280.59 81.52 1283.42 75.0687C1283.92 73.9185 1284.53 72.8229 1285.25 71.7988V71.7988Z" fill="#5AC817"/>
<path opacity="0.8" d="M1327.54 90.5254C1331.91 90.384 1332.5 97.1447 1328.12 97.4982C1326.98 97.5865 1325.82 97.6131 1324.72 97.6484C1311.25 98.0196 1298.54 102.951 1286.28 108.253C1283.28 109.561 1280.12 111.028 1278.37 113.821C1283.88 107.343 1291.14 102.597 1298.87 99.1066C1306.6 95.6158 1314.82 93.3269 1323.06 91.1528C1324.53 90.777 1326.03 90.5666 1327.54 90.5254V90.5254Z" fill="#5AC817"/>
<path opacity="0.5" d="M1326.33 107.146C1329.11 107.244 1328.49 111.247 1325.69 111.265C1324.96 111.265 1324.23 111.265 1323.53 111.212C1315.03 110.858 1306.34 113.235 1297.9 115.842C1295.83 116.488 1293.64 117.212 1292.14 118.785C1296.62 115.282 1301.7 112.643 1307.12 110.999C1312.47 109.382 1317.93 108.163 1323.46 107.35C1324.41 107.184 1325.37 107.116 1326.33 107.146V107.146Z" fill="#5AC817"/>
<path opacity="0.2" d="M1321.28 68.0237C1322.95 67.732 1323.08 70.1977 1321.41 70.5689C1320.97 70.6661 1320.54 70.7456 1320.11 70.8163C1315 71.7001 1310.09 74.2364 1305.38 76.8788C1304.17 77.4427 1303.12 78.302 1302.31 79.3799C1304.55 76.7102 1307.25 74.4786 1310.28 72.7959C1313.27 71.1527 1316.37 69.7263 1319.56 68.5274C1320.12 68.3062 1320.69 68.1376 1321.28 68.0237V68.0237Z" fill="#5AC817"/>
<path opacity="0.2" d="M1277.75 186.554C1277.38 188.233 1275.08 187.438 1275.39 185.671C1275.46 185.229 1275.57 184.787 1275.67 184.363C1276.83 179.246 1276.41 173.687 1275.81 168.27C1275.77 166.919 1275.4 165.601 1274.72 164.434C1276.29 167.551 1277.28 170.933 1277.65 174.412C1278 177.84 1278.1 181.29 1277.95 184.734C1277.95 185.346 1277.88 185.956 1277.75 186.554V186.554Z" fill="#5AC817"/>
<path opacity="0.5" d="M1320.21 175.41C1321.52 177.655 1318.3 177.505 1316.89 175.26C1316.52 174.677 1316.18 174.085 1315.86 173.492C1311.88 166.643 1305.84 159.865 1299.74 153.316C1298.29 151.619 1296.61 150.148 1294.74 148.951C1299.49 152.238 1303.88 156.04 1307.83 160.289C1311.73 164.434 1315.19 168.756 1318.58 173.068C1319.17 173.81 1319.72 174.593 1320.21 175.41V175.41Z" fill="#5AC817"/>
<path opacity="0.2" d="M1204.05 175.41C1202.74 177.655 1205.95 177.505 1207.36 175.26C1207.73 174.677 1208.07 174.085 1208.4 173.492C1212.37 166.643 1218.42 159.865 1224.52 153.316C1225.96 151.617 1227.65 150.145 1229.52 148.951C1224.76 152.236 1220.37 156.038 1216.43 160.289C1212.52 164.434 1209.06 168.756 1205.68 173.068C1205.09 173.81 1204.54 174.593 1204.05 175.41Z" fill="#5AC817"/>
<path opacity="0.2" d="M1246.53 186.554C1246.91 188.233 1249.2 187.438 1248.9 185.671C1248.82 185.229 1248.71 184.787 1248.62 184.363C1247.46 179.246 1247.88 173.687 1248.47 168.27C1248.51 166.919 1248.89 165.601 1249.56 164.434C1248 167.562 1247.03 170.953 1246.68 174.438C1246.33 177.867 1246.23 181.317 1246.38 184.76C1246.37 185.362 1246.42 185.963 1246.53 186.554V186.554Z" fill="#5AC817"/>
<path opacity="0.2" d="M1307.9 84.8588C1309.56 84.5583 1309.69 87.024 1308.03 87.404C1307.59 87.5012 1307.15 87.5719 1306.73 87.6426C1301.61 88.5264 1296.72 91.0716 1292 93.714C1290.79 94.2737 1289.73 95.1302 1288.93 96.2062C1291.16 93.5364 1293.87 91.3074 1296.9 89.6311C1299.89 87.9791 1302.99 86.5524 1306.18 85.3626C1306.73 85.1333 1307.31 84.9645 1307.9 84.8588V84.8588Z" fill="#5AC817"/>
<path opacity="0.2" d="M1292.29 51.806C1293.73 50.9223 1294.76 53.1405 1293.34 54.1215C1292.98 54.3778 1292.59 54.6075 1292.23 54.8373C1287.81 57.5946 1284.21 61.8012 1280.81 66.0433C1279.89 67.0165 1279.23 68.2117 1278.89 69.5164C1279.97 66.1936 1281.66 63.1021 1283.85 60.3961C1286.01 57.7378 1288.36 55.242 1290.88 52.9284C1291.31 52.5086 1291.78 52.1327 1292.29 51.806V51.806Z" fill="#5AC817"/>
<path opacity="0.8" d="M1347.09 133.395C1351.33 135.604 1347.74 141.675 1343.39 139.66C1342.24 139.13 1341.13 138.538 1340.07 137.981C1327.11 131.168 1312.05 128.666 1297.24 126.731C1293.61 126.263 1289.74 125.847 1286.37 127.306C1295.53 124.654 1305.29 124.469 1314.73 125.538C1324.16 126.607 1333.33 129.073 1342.41 131.574C1344.03 132.02 1345.59 132.63 1347.09 133.395Z" fill="#5AC817"/>
<path opacity="0.5" d="M1334.97 157.02C1338.01 159.901 1333.22 163.303 1330.06 160.555C1329.23 159.83 1328.42 159.061 1327.67 158.336C1318.37 149.499 1306.1 143.224 1293.88 137.427C1290.88 136.004 1278.53 134.555 1275.24 134.634C1283.85 135.412 1301.41 138.169 1309.26 141.704C1316.93 145.394 1324.35 149.608 1331.45 154.315C1332.71 155.103 1333.88 156.008 1334.97 157.02V157.02Z" fill="#5AC817"/>
<path opacity="0.8" d="M1299.03 199.437C1299.4 203.635 1293.61 202.972 1293.05 198.739C1292.9 197.634 1292.82 196.529 1292.73 195.469C1291.62 182.619 1286.62 169.637 1281.33 157.061C1280.03 153.977 1271.78 144.556 1269.27 142.391C1275.18 148.789 1286.48 162.717 1289.94 170.671C1293.22 178.598 1295.96 186.741 1298.16 195.045C1298.58 196.478 1298.87 197.949 1299.03 199.437V199.437Z" fill="#5AC817"/>
<path opacity="0.8" d="M1302.52 57.242C1302.41 57.3065 1302.29 57.343 1302.16 57.348C1301.93 57.348 1301.77 57.1094 1301.67 56.8973C1301.15 55.7573 1301.46 54.2461 1300.65 53.3623C1299.84 54.3489 1299.19 55.4582 1298.72 56.6499L1295.67 55.6954C1295.53 56.2935 1295.5 56.915 1295.6 57.5225C1295.7 58.1299 1295.92 58.7109 1296.25 59.2304C1295.71 59.4694 1295.22 59.8048 1294.81 60.2202C1294.6 60.4322 1294.46 60.697 1294.4 60.9855C1294.33 61.2739 1294.35 61.5748 1294.44 61.8551C1295.14 62.0274 1295.87 62.0988 1296.59 62.0672C1296.48 63.4235 1296.55 64.7889 1296.81 66.1237C1296.83 66.3225 1296.93 66.5063 1297.08 66.6362C1297.3 66.7865 1297.6 66.6362 1297.83 66.5125C1298.87 65.8632 1299.74 64.9496 1300.33 63.8613L1301.47 66.6009C1301.54 66.8834 1301.72 67.126 1301.97 67.2814C1302.14 67.3439 1302.33 67.3456 1302.5 67.2862C1302.67 67.2267 1302.82 67.1096 1302.91 66.9544C1303.11 66.6382 1303.22 66.2812 1303.25 65.9115L1303.67 63.2603C1303.68 63.1244 1303.74 62.9953 1303.82 62.8891C1303.95 62.7914 1304.11 62.7442 1304.27 62.7566C1305.34 62.7566 1306.42 62.7566 1307.49 62.7566C1307.68 62.1733 1307.1 61.6342 1306.55 61.3956C1306 61.157 1305.36 60.9626 1305.08 60.4235C1304.52 59.3188 1305.95 57.7722 1305.35 56.8354C1304.64 55.6689 1303.47 56.7736 1302.52 57.242Z" fill="#5AC817"/>
<path opacity="0.2" d="M1311.72 184.307C1311.61 184.372 1311.48 184.408 1311.36 184.413C1311.12 184.413 1310.97 184.183 1310.87 183.971C1310.36 182.822 1310.65 181.32 1309.85 180.383C1309.04 181.371 1308.39 182.48 1307.91 183.671L1304.87 182.716C1304.73 183.315 1304.7 183.936 1304.8 184.543C1304.9 185.15 1305.12 185.731 1305.44 186.251C1304.91 186.491 1304.43 186.826 1304.01 187.241C1303.81 187.452 1303.66 187.716 1303.6 188.005C1303.53 188.294 1303.54 188.595 1303.64 188.876C1304.34 189.051 1305.06 189.125 1305.78 189.097C1305.67 190.451 1305.75 191.814 1306.02 193.145C1306.03 193.245 1306.05 193.343 1306.1 193.432C1306.14 193.522 1306.21 193.601 1306.28 193.666C1306.5 193.808 1306.8 193.666 1307.02 193.534C1308.07 192.884 1308.93 191.971 1309.53 190.882L1310.66 193.622C1310.75 193.904 1310.92 194.148 1311.17 194.311C1311.34 194.362 1311.52 194.357 1311.7 194.296C1311.87 194.236 1312.01 194.124 1312.12 193.975C1312.3 193.657 1312.42 193.301 1312.45 192.933L1312.88 190.326C1312.87 190.25 1312.88 190.175 1312.91 190.106C1312.94 190.037 1312.99 189.976 1313.04 189.927C1313.1 189.879 1313.17 189.845 1313.24 189.828C1313.31 189.812 1313.39 189.812 1313.46 189.831C1314.53 189.831 1315.62 189.786 1316.69 189.831C1316.87 189.247 1316.31 188.717 1315.76 188.47C1315.21 188.222 1314.55 188.045 1314.27 187.498C1313.71 186.402 1315.15 184.846 1314.55 183.918C1313.86 182.734 1312.66 183.839 1311.72 184.307Z" fill="#5AC817"/>
<path opacity="0.8" d="M1337.53 99.1319C1337.42 99.2014 1337.3 99.2381 1337.17 99.2379C1336.94 99.2379 1336.78 99.0081 1336.69 98.796C1336.16 97.656 1336.46 96.1448 1335.67 95.208C1334.86 96.1981 1334.2 97.3103 1333.73 98.5044L1330.68 97.5411C1330.54 98.1392 1330.52 98.7607 1330.62 99.3683C1330.71 99.9758 1330.93 100.557 1331.26 101.076C1330.72 101.313 1330.24 101.648 1329.82 102.066C1329.62 102.279 1329.48 102.544 1329.41 102.831C1329.35 103.119 1329.36 103.419 1329.45 103.701C1330.15 103.876 1330.88 103.95 1331.6 103.922C1331.49 105.275 1331.56 106.638 1331.83 107.969C1331.85 108.171 1331.94 108.358 1332.09 108.491C1332.32 108.632 1332.6 108.491 1332.83 108.367C1333.88 107.717 1334.75 106.804 1335.34 105.716L1336.47 108.455C1336.55 108.739 1336.73 108.984 1336.98 109.145C1337.15 109.204 1337.34 109.203 1337.51 109.142C1337.68 109.081 1337.83 108.964 1337.93 108.809C1338.12 108.493 1338.24 108.136 1338.27 107.766L1338.69 105.115C1338.7 104.983 1338.75 104.857 1338.83 104.753C1338.95 104.651 1339.12 104.604 1339.28 104.62C1340.35 104.62 1341.43 104.62 1342.5 104.62C1342.69 104.046 1342.11 103.506 1341.56 103.259C1341.02 103.012 1340.36 102.835 1340.09 102.296C1339.53 101.191 1340.96 99.6444 1340.36 98.7077C1339.65 97.5588 1338.47 98.6635 1337.53 99.1319Z" fill="#5AC817"/>
<path opacity="0.8" d="M1234.33 197.052C1234.18 197.144 1234.01 197.196 1233.83 197.202C1233.51 197.202 1233.28 196.875 1233.15 196.575C1232.42 194.993 1232.84 192.925 1231.73 191.59C1230.6 192.965 1229.69 194.509 1229.03 196.168L1224.78 194.843C1224.58 195.676 1224.55 196.541 1224.69 197.386C1224.83 198.231 1225.13 199.04 1225.58 199.765C1224.84 200.093 1224.16 200.561 1223.59 201.144C1223.3 201.438 1223.1 201.805 1223.01 202.205C1222.92 202.606 1222.94 203.024 1223.06 203.415C1224.04 203.658 1225.05 203.762 1226.06 203.724C1225.91 205.613 1226.01 207.514 1226.39 209.371C1226.41 209.648 1226.54 209.905 1226.74 210.087C1226.92 210.158 1227.11 210.179 1227.29 210.148C1227.47 210.117 1227.64 210.034 1227.78 209.91C1229.25 208.994 1230.46 207.702 1231.27 206.163L1232.85 209.981C1232.96 210.376 1233.22 210.716 1233.56 210.936C1233.8 211.021 1234.06 211.021 1234.3 210.938C1234.54 210.855 1234.75 210.692 1234.88 210.476C1235.14 210.034 1235.3 209.539 1235.35 209.027L1235.94 205.394C1235.95 205.204 1236.01 205.021 1236.13 204.873C1236.31 204.738 1236.54 204.675 1236.76 204.696C1238.26 204.696 1239.76 204.634 1241.25 204.696C1241.52 203.883 1240.71 203.141 1239.95 202.796C1239.2 202.452 1238.28 202.204 1237.9 201.453C1237.11 199.915 1239.13 197.777 1238.27 196.451C1237.27 194.86 1235.64 196.407 1234.33 197.052Z" fill="#5AC817"/>
<path opacity="0.8" d="M1191.39 101.677C1191.24 101.769 1191.06 101.821 1190.89 101.827C1190.57 101.827 1190.34 101.5 1190.21 101.199C1189.49 99.6087 1189.9 97.5496 1188.79 96.2063C1187.66 97.5837 1186.75 99.1311 1186.09 100.793L1181.85 99.4585C1181.65 100.293 1181.61 101.16 1181.75 102.007C1181.89 102.855 1182.19 103.665 1182.65 104.39C1181.9 104.715 1181.22 105.183 1180.65 105.768C1180.37 106.061 1180.17 106.428 1180.07 106.829C1179.98 107.23 1180 107.649 1180.13 108.04C1181.11 108.281 1182.12 108.382 1183.13 108.34C1182.97 110.228 1183.08 112.129 1183.44 113.987C1183.45 114.127 1183.49 114.263 1183.55 114.388C1183.62 114.512 1183.7 114.623 1183.81 114.712C1184.12 114.915 1184.53 114.712 1184.85 114.535C1186.31 113.617 1187.52 112.325 1188.34 110.788L1189.92 114.606C1190.03 114.996 1190.28 115.333 1190.62 115.56C1190.86 115.645 1191.12 115.646 1191.36 115.563C1191.6 115.48 1191.8 115.317 1191.94 115.101C1192.2 114.66 1192.37 114.164 1192.41 113.652L1193 110.01C1193.01 109.823 1193.08 109.645 1193.2 109.498C1193.38 109.359 1193.6 109.296 1193.83 109.321C1195.32 109.321 1196.82 109.259 1198.32 109.268C1198.57 108.464 1197.78 107.713 1197.01 107.377C1196.24 107.041 1195.34 106.776 1194.95 106.025C1194.18 104.487 1196.19 102.357 1195.34 101.032C1194.33 99.485 1192.7 101.014 1191.39 101.677Z" fill="#5AC817"/>
<path opacity="0.2" d="M1321.72 160.738C1321.64 160.789 1321.55 160.817 1321.45 160.817C1321.28 160.817 1321.17 160.641 1321.09 160.49C1320.7 159.607 1320.93 158.546 1320.34 157.839C1319.74 158.567 1319.25 159.387 1318.91 160.269L1316.65 159.562C1316.53 160.01 1316.51 160.477 1316.59 160.933C1316.66 161.389 1316.83 161.825 1317.07 162.214C1316.68 162.391 1316.32 162.64 1316.01 162.947C1315.86 163.105 1315.76 163.302 1315.71 163.515C1315.66 163.728 1315.67 163.95 1315.74 164.158C1316.26 164.281 1316.79 164.335 1317.33 164.317C1317.24 165.319 1317.3 166.328 1317.5 167.313C1317.51 167.387 1317.53 167.46 1317.56 167.527C1317.59 167.594 1317.64 167.653 1317.69 167.702C1317.86 167.808 1318.08 167.702 1318.24 167.605C1319.02 167.117 1319.66 166.431 1320.09 165.616L1320.97 167.64C1321.03 167.85 1321.16 168.031 1321.34 168.152C1321.47 168.196 1321.61 168.196 1321.74 168.151C1321.86 168.106 1321.97 168.02 1322.05 167.905C1322.19 167.671 1322.27 167.408 1322.29 167.136L1322.61 165.201C1322.6 165.145 1322.61 165.09 1322.63 165.038C1322.66 164.987 1322.69 164.942 1322.73 164.907C1322.77 164.872 1322.83 164.847 1322.88 164.835C1322.93 164.823 1322.99 164.824 1323.04 164.838C1323.84 164.838 1324.64 164.838 1325.43 164.838C1325.57 164.405 1325.14 164.008 1324.74 163.831C1324.34 163.654 1323.87 163.513 1323.64 163.115C1323.23 162.293 1324.31 161.162 1323.84 160.464C1323.38 159.766 1322.38 160.393 1321.72 160.738Z" fill="#5AC817"/>
<path opacity="0.2" d="M1263.35 194.852C1263.27 194.904 1263.18 194.931 1263.08 194.932C1262.92 194.932 1262.8 194.755 1262.73 194.596C1262.34 193.757 1262.56 192.661 1261.98 191.945C1261.37 192.677 1260.89 193.5 1260.54 194.384L1258.28 193.677C1258.17 194.125 1258.15 194.592 1258.23 195.048C1258.3 195.504 1258.46 195.94 1258.71 196.328C1258.31 196.503 1257.95 196.752 1257.65 197.062C1257.5 197.218 1257.39 197.414 1257.34 197.627C1257.29 197.841 1257.3 198.064 1257.37 198.272C1257.89 198.396 1258.43 198.45 1258.97 198.432C1258.88 199.433 1258.94 200.442 1259.13 201.427C1259.14 201.501 1259.16 201.572 1259.19 201.637C1259.22 201.702 1259.27 201.76 1259.32 201.807C1259.49 201.922 1259.71 201.807 1259.87 201.719C1260.65 201.233 1261.29 200.547 1261.73 199.731L1262.6 201.754C1262.67 201.964 1262.8 202.145 1262.98 202.267C1263.11 202.311 1263.25 202.31 1263.37 202.266C1263.5 202.221 1263.61 202.134 1263.69 202.02C1263.82 201.786 1263.91 201.523 1263.93 201.251L1264.24 199.315C1264.25 199.215 1264.29 199.12 1264.35 199.041C1264.45 198.974 1264.56 198.94 1264.68 198.944C1265.47 198.944 1266.27 198.944 1267.07 198.944C1267.2 198.511 1266.78 198.113 1266.37 197.937C1265.96 197.76 1265.5 197.619 1265.28 197.221C1264.86 196.399 1265.94 195.268 1265.48 194.57C1265.03 193.871 1264.05 194.499 1263.35 194.852Z" fill="#5AC817"/>
<path opacity="0.5" d="M1206.9 75.4561C1206.83 75.5064 1206.74 75.5339 1206.64 75.5356C1206.56 75.5202 1206.48 75.4816 1206.41 75.424C1206.35 75.3663 1206.3 75.2918 1206.28 75.2086C1205.89 74.3249 1206.11 73.2644 1205.53 72.5574C1204.92 73.286 1204.44 74.1062 1204.09 74.9877L1201.83 74.2807C1201.72 74.7288 1201.71 75.1951 1201.78 75.651C1201.85 76.1069 1202.02 76.5427 1202.26 76.9319C1201.87 77.1031 1201.5 77.3491 1201.2 77.6566C1201.05 77.8135 1200.94 78.0092 1200.89 78.2226C1200.84 78.436 1200.85 78.6589 1200.92 78.8673C1201.44 78.9993 1201.98 79.0529 1202.52 79.0264C1202.43 80.0309 1202.49 81.0425 1202.68 82.0312C1202.69 82.1048 1202.71 82.1764 1202.74 82.2416C1202.78 82.3069 1202.83 82.3645 1202.88 82.4112C1203.05 82.5172 1203.26 82.4112 1203.43 82.3228C1204.21 81.8326 1204.85 81.1438 1205.28 80.3255L1206.15 82.3581C1206.21 82.5671 1206.35 82.7465 1206.53 82.8619C1206.66 82.9058 1206.8 82.9053 1206.92 82.8605C1207.05 82.8157 1207.16 82.7292 1207.24 82.6144C1207.37 82.3807 1207.46 82.1175 1207.48 81.8456L1207.79 79.919C1207.8 79.8191 1207.84 79.7235 1207.9 79.645C1207.99 79.5697 1208.11 79.5347 1208.23 79.5478C1209.02 79.5478 1209.83 79.5478 1210.62 79.5478C1210.75 79.1236 1210.33 78.7259 1209.92 78.5404C1209.51 78.3548 1209.05 78.2222 1208.83 77.8245C1208.41 77.0115 1209.5 75.8714 1209.03 75.1733C1208.57 74.4751 1207.6 75.1114 1206.9 75.4561Z" fill="#5AC817"/>
<path opacity="0.5" d="M1236.94 142.735C1236.87 142.787 1236.78 142.815 1236.68 142.814C1236.51 142.814 1236.39 142.647 1236.33 142.487C1235.94 141.604 1236.16 140.543 1235.57 139.836C1234.97 140.567 1234.49 141.387 1234.14 142.266L1231.88 141.559C1231.77 142.008 1231.75 142.474 1231.82 142.929C1231.9 143.385 1232.06 143.821 1232.3 144.211C1231.91 144.387 1231.55 144.636 1231.25 144.944C1231.1 145.101 1230.99 145.296 1230.94 145.51C1230.89 145.723 1230.9 145.947 1230.97 146.155C1231.49 146.283 1232.02 146.336 1232.56 146.314C1232.47 147.319 1232.53 148.331 1232.73 149.319C1232.74 149.392 1232.76 149.463 1232.79 149.529C1232.82 149.594 1232.87 149.652 1232.92 149.699C1233.09 149.805 1233.31 149.699 1233.47 149.602C1234.25 149.115 1234.89 148.429 1235.33 147.613L1236.2 149.637C1236.26 149.849 1236.39 150.032 1236.58 150.15C1236.7 150.194 1236.84 150.194 1236.97 150.149C1237.1 150.104 1237.2 150.017 1237.28 149.902C1237.42 149.669 1237.5 149.406 1237.53 149.133L1237.84 147.207C1237.84 147.098 1237.88 146.994 1237.96 146.915C1238 146.876 1238.06 146.848 1238.11 146.831C1238.17 146.814 1238.23 146.81 1238.29 146.818C1239.08 146.818 1239.87 146.818 1240.67 146.818C1240.81 146.394 1240.39 145.987 1239.98 145.81C1239.57 145.634 1239.11 145.492 1238.89 145.094C1238.47 144.281 1239.54 143.141 1239.09 142.443C1238.64 141.745 1237.64 142.39 1236.94 142.735Z" fill="#5AC817"/>
<path opacity="0.5" d="M1215.14 116.514C1215.06 116.559 1214.97 116.586 1214.88 116.594C1214.79 116.575 1214.72 116.533 1214.65 116.475C1214.59 116.416 1214.55 116.341 1214.52 116.258C1214.14 115.419 1214.35 114.323 1213.76 113.607C1213.16 114.339 1212.68 115.162 1212.33 116.046L1210.07 115.339C1209.96 115.788 1209.95 116.253 1210.02 116.709C1210.09 117.164 1210.26 117.6 1210.5 117.99C1210.1 118.162 1209.74 118.407 1209.43 118.715C1209.28 118.873 1209.18 119.069 1209.13 119.283C1209.09 119.496 1209.1 119.718 1209.16 119.926C1209.68 120.058 1210.22 120.112 1210.75 120.085C1210.67 121.09 1210.73 122.101 1210.93 123.09C1210.93 123.163 1210.95 123.234 1210.98 123.299C1211.02 123.365 1211.06 123.422 1211.12 123.47C1211.28 123.576 1211.5 123.47 1211.67 123.381C1212.45 122.89 1213.09 122.201 1213.53 121.384L1214.4 123.417C1214.45 123.624 1214.59 123.803 1214.76 123.92C1214.89 123.964 1215.03 123.964 1215.16 123.919C1215.29 123.874 1215.4 123.788 1215.47 123.673C1215.61 123.44 1215.7 123.177 1215.72 122.904L1216.03 120.977C1216.04 120.877 1216.07 120.782 1216.13 120.703C1216.23 120.627 1216.35 120.592 1216.47 120.606C1217.27 120.606 1218.06 120.606 1218.86 120.606C1219 120.182 1218.57 119.784 1218.17 119.599C1217.77 119.413 1217.29 119.281 1217.07 118.883C1216.66 118.07 1217.73 116.93 1217.28 116.232C1216.82 115.534 1215.84 116.161 1215.14 116.514Z" fill="#5AC817"/>
<path opacity="0.5" d="M1308.79 122.683C1308.72 122.735 1308.62 122.763 1308.53 122.762C1308.36 122.762 1308.24 122.594 1308.17 122.435C1307.79 121.552 1308.01 120.491 1307.41 119.784C1306.81 120.513 1306.33 121.333 1305.98 122.214L1303.72 121.507C1303.62 121.956 1303.6 122.422 1303.67 122.877C1303.75 123.333 1303.91 123.769 1304.15 124.159C1303.76 124.336 1303.4 124.585 1303.09 124.892C1302.94 125.051 1302.83 125.247 1302.79 125.46C1302.74 125.673 1302.75 125.895 1302.82 126.103C1303.34 126.231 1303.87 126.285 1304.4 126.262C1304.32 127.267 1304.38 128.279 1304.58 129.267C1304.58 129.34 1304.6 129.411 1304.64 129.477C1304.67 129.542 1304.72 129.6 1304.77 129.647C1304.94 129.753 1305.16 129.647 1305.32 129.55C1306.1 129.063 1306.74 128.377 1307.18 127.561L1308.05 129.585C1308.11 129.797 1308.24 129.98 1308.43 130.098C1308.55 130.141 1308.69 130.14 1308.82 130.095C1308.94 130.05 1309.05 129.964 1309.12 129.85C1309.27 129.617 1309.35 129.354 1309.38 129.081L1309.69 127.155C1309.69 127.098 1309.7 127.042 1309.72 126.989C1309.74 126.937 1309.77 126.891 1309.82 126.855C1309.86 126.818 1309.91 126.793 1309.96 126.781C1310.02 126.768 1310.07 126.769 1310.13 126.783C1310.93 126.783 1311.72 126.783 1312.51 126.783C1312.65 126.359 1312.22 125.953 1311.82 125.776C1311.42 125.599 1310.95 125.458 1310.72 125.06C1310.31 124.247 1311.38 123.107 1310.93 122.409C1310.48 121.711 1309.5 122.338 1308.79 122.683Z" fill="#5AC817"/>
<path opacity="0.2" d="M1263.35 117.522C1263.27 117.573 1263.18 117.601 1263.08 117.602C1262.92 117.602 1262.8 117.434 1262.73 117.275C1262.34 116.391 1262.56 115.33 1261.97 114.623C1261.37 115.352 1260.89 116.172 1260.54 117.054L1258.28 116.347C1258.17 116.795 1258.15 117.261 1258.23 117.717C1258.3 118.173 1258.47 118.609 1258.71 118.998C1258.31 119.169 1257.95 119.415 1257.65 119.723C1257.5 119.879 1257.39 120.075 1257.34 120.288C1257.29 120.502 1257.3 120.725 1257.37 120.933C1257.89 121.066 1258.43 121.119 1258.96 121.092C1258.88 122.097 1258.94 123.108 1259.13 124.097C1259.15 124.244 1259.21 124.379 1259.32 124.477C1259.49 124.583 1259.71 124.477 1259.87 124.389C1260.65 123.9 1261.29 123.211 1261.73 122.391L1262.6 124.424C1262.66 124.633 1262.8 124.812 1262.98 124.928C1263.11 124.972 1263.25 124.971 1263.37 124.926C1263.5 124.882 1263.61 124.795 1263.68 124.68C1263.82 124.447 1263.91 124.183 1263.93 123.911L1264.24 121.985C1264.25 121.885 1264.29 121.789 1264.35 121.711C1264.44 121.636 1264.56 121.601 1264.68 121.614C1265.47 121.614 1266.27 121.614 1267.07 121.614C1267.2 121.19 1266.78 120.792 1266.37 120.606C1265.96 120.421 1265.5 120.288 1265.28 119.89C1264.86 119.077 1265.94 117.937 1265.48 117.239C1265.03 116.541 1264.05 117.177 1263.35 117.522Z" fill="#5AC817"/>
<path opacity="0.3" d="M1249.09 123.816C1249.01 123.861 1248.92 123.888 1248.83 123.896C1248.74 123.876 1248.67 123.835 1248.6 123.776C1248.54 123.717 1248.49 123.643 1248.47 123.56C1248.08 122.676 1248.3 121.624 1247.71 120.908C1247.11 121.639 1246.62 122.463 1246.28 123.348L1244.02 122.632C1243.91 123.08 1243.9 123.546 1243.97 124.001C1244.04 124.456 1244.2 124.892 1244.45 125.283C1244.05 125.454 1243.69 125.7 1243.38 126.008C1243.23 126.166 1243.13 126.362 1243.08 126.575C1243.03 126.788 1243.04 127.011 1243.11 127.218C1243.63 127.351 1244.17 127.404 1244.7 127.377C1244.62 128.382 1244.68 129.394 1244.87 130.382C1244.88 130.455 1244.9 130.527 1244.93 130.592C1244.97 130.657 1245.01 130.715 1245.07 130.762C1245.23 130.868 1245.45 130.762 1245.62 130.674C1246.4 130.182 1247.04 129.494 1247.47 128.677L1248.35 130.709C1248.41 130.918 1248.54 131.098 1248.72 131.213C1248.85 131.256 1248.99 131.255 1249.11 131.211C1249.24 131.166 1249.35 131.08 1249.42 130.966C1249.56 130.733 1249.65 130.469 1249.67 130.197L1249.99 128.27C1249.99 128.171 1250.02 128.075 1250.08 127.996C1250.18 127.919 1250.3 127.884 1250.42 127.899C1251.22 127.899 1252.01 127.899 1252.81 127.899C1252.94 127.475 1252.52 127.077 1252.12 126.891C1251.71 126.706 1251.24 126.573 1251.02 126.176C1250.61 125.363 1251.68 124.223 1251.23 123.524C1250.77 122.826 1249.79 123.462 1249.09 123.816Z" fill="#5AC817"/>
<path opacity="0.2" d="M1235.8 85.7786C1235.72 85.83 1235.63 85.8576 1235.53 85.8581C1235.37 85.8581 1235.24 85.6902 1235.17 85.5311C1234.79 84.6474 1235.01 83.5869 1234.42 82.8799C1233.82 83.6085 1233.33 84.4287 1232.98 85.3102L1230.73 84.6032C1230.62 85.0511 1230.6 85.5178 1230.67 85.974C1230.75 86.4302 1230.91 86.8661 1231.16 87.2544C1230.76 87.4321 1230.4 87.6806 1230.1 87.988C1229.94 88.1443 1229.84 88.34 1229.79 88.5536C1229.74 88.7672 1229.75 88.9904 1229.82 89.1987C1230.34 89.3262 1230.88 89.3798 1231.41 89.3578C1231.33 90.3623 1231.38 91.3738 1231.58 92.3625C1231.59 92.509 1231.66 92.6444 1231.77 92.7425C1231.94 92.8486 1232.15 92.7425 1232.32 92.6453C1233.1 92.162 1233.75 91.4756 1234.18 90.6569L1235.05 92.6807C1235.11 92.8904 1235.25 93.0716 1235.43 93.1932C1235.55 93.2372 1235.69 93.2367 1235.82 93.1919C1235.95 93.1471 1236.06 93.0605 1236.13 92.9458C1236.27 92.712 1236.36 92.4489 1236.38 92.1769L1236.69 90.2504C1236.7 90.1502 1236.73 90.0543 1236.8 89.9764C1236.89 89.901 1237.01 89.8661 1237.13 89.8792C1237.92 89.8792 1238.72 89.8792 1239.52 89.8792C1239.65 89.4461 1239.23 89.0485 1238.82 88.8717C1238.41 88.695 1237.95 88.5536 1237.73 88.1559C1237.31 87.334 1238.38 86.2028 1237.93 85.5046C1237.48 84.8065 1236.5 85.4339 1235.8 85.7786Z" fill="#5AC817"/>
<path opacity="0.3" d="M1261.99 135.426C1261.9 135.47 1261.81 135.497 1261.72 135.506C1261.55 135.506 1261.43 135.329 1261.36 135.17C1260.97 134.33 1261.19 133.234 1260.61 132.519C1260 133.25 1259.52 134.073 1259.17 134.958L1256.92 134.251C1256.8 134.699 1256.79 135.165 1256.86 135.621C1256.93 136.077 1257.1 136.513 1257.34 136.902C1256.95 137.073 1256.59 137.319 1256.28 137.627C1256.13 137.783 1256.02 137.979 1255.97 138.193C1255.92 138.406 1255.93 138.629 1256 138.837C1256.52 138.969 1257.06 139.023 1257.6 138.996C1257.51 140.001 1257.57 141.012 1257.76 142.001C1257.78 142.148 1257.85 142.283 1257.95 142.381C1258.12 142.487 1258.34 142.381 1258.51 142.293C1259.29 141.801 1259.93 141.113 1260.36 140.296L1261.24 142.328C1261.29 142.537 1261.43 142.716 1261.61 142.832C1261.74 142.876 1261.88 142.875 1262.01 142.831C1262.13 142.786 1262.24 142.699 1262.32 142.584C1262.46 142.351 1262.54 142.088 1262.56 141.816L1262.88 139.889C1262.88 139.789 1262.92 139.694 1262.98 139.615C1263.07 139.54 1263.19 139.505 1263.31 139.518C1264.11 139.518 1264.91 139.518 1265.7 139.518C1265.83 139.094 1265.41 138.696 1265 138.51C1264.59 138.325 1264.13 138.192 1263.91 137.795C1263.5 136.981 1264.57 135.841 1264.11 135.143C1263.66 134.445 1262.68 135.055 1261.99 135.426Z" fill="#5AC817"/>
</g>
<g opacity="0.8">
<path opacity="0.5" d="M166.299 281.744C163.827 278.344 158.721 282.033 161.03 285.546C161.63 286.473 162.291 287.359 162.922 288.214C170.52 298.61 174.456 311.23 177.843 323.696C178.677 326.787 179.481 330.032 178.535 333.051C179.898 324.953 179.013 316.567 176.958 308.624C174.904 300.68 171.771 293.077 168.424 285.525C167.848 284.193 167.135 282.926 166.299 281.744Z" fill="#5AC817"/>
<path opacity="0.8" d="M116.987 303.575C111.901 303.41 111.21 311.292 116.316 311.704C117.658 311.807 119.001 311.838 120.293 311.879C135.987 312.312 150.807 318.061 165.098 324.242C168.597 325.767 172.218 327.477 174.323 330.733C167.895 323.181 159.422 317.649 150.42 313.579C141.419 309.51 131.817 306.841 122.225 304.307C120.511 303.868 118.754 303.623 116.987 303.575V303.575Z" fill="#5AC817"/>
<path opacity="0.2" d="M118.399 322.954C115.164 323.068 115.897 327.735 119.151 327.755C120.006 327.755 120.86 327.755 121.674 327.694C131.571 327.281 141.712 330.053 151.547 333.092C153.968 333.844 156.511 334.689 158.271 336.523C153.048 332.438 147.128 329.362 140.806 327.446C134.583 325.571 128.232 324.155 121.806 323.212C120.682 323.008 119.54 322.921 118.399 322.954V322.954Z" fill="#5AC817"/>
<path opacity="0.5" d="M184.655 409.556C185.571 412.709 189.843 410.834 189.06 407.63C188.856 406.795 188.612 405.971 188.378 405.178C185.53 395.565 185.662 384.923 186.13 374.517C186.252 371.962 186.425 369.252 187.737 367.079C185.13 373.214 183.658 379.783 183.394 386.458C183.14 393.035 183.361 399.622 184.055 406.167C184.144 407.314 184.345 408.449 184.655 409.556V409.556Z" fill="#5AC817"/>
<path opacity="0.2" d="M124.298 277.343C122.356 277.003 122.203 279.877 124.146 280.31C124.654 280.424 125.163 280.516 125.661 280.599C131.622 281.629 137.328 284.586 142.82 287.666C144.236 288.323 145.47 289.325 146.411 290.582C143.801 287.469 140.65 284.868 137.114 282.906C133.632 280.989 130.018 279.326 126.302 277.93C125.653 277.672 124.983 277.476 124.298 277.343V277.343Z" fill="#5AC817"/>
<path opacity="0.8" d="M94.2127 353.551C89.2694 356.127 93.4499 363.205 98.5254 360.856C99.8578 360.238 101.15 359.548 102.39 358.898C117.505 350.955 135.051 348.04 152.322 345.783C156.553 345.237 161.069 344.753 164.995 346.453C154.305 343.362 142.934 343.146 131.938 344.392C120.943 345.639 110.253 348.513 99.6646 351.429C97.7808 351.947 95.954 352.658 94.2127 353.551V353.551Z" fill="#5AC817"/>
<path opacity="0.5" d="M108.341 381.093C104.781 384.452 110.375 388.418 114.057 385.214C115.074 384.369 115.959 383.473 116.854 382.628C127.676 372.326 141.988 365.011 156.238 358.252C159.737 356.594 174.129 354.904 177.974 354.997C167.935 355.903 147.46 359.118 138.306 363.239C129.368 367.541 120.73 372.453 112.45 377.941C110.985 378.858 109.61 379.914 108.341 381.093V381.093Z" fill="#5AC817"/>
<path opacity="0.8" d="M133.688 425.061C132.671 429.862 139.435 429.934 140.696 425.133C141.022 423.876 141.286 422.609 141.541 421.404C144.673 406.702 152.332 392.423 160.266 378.669C162.219 375.289 173.112 365.605 176.327 363.472C168.576 370.004 153.492 384.418 148.345 393.123C143.408 401.81 139.055 410.825 135.316 420.106C134.619 421.701 134.074 423.361 133.688 425.061Z" fill="#5AC817"/>
<path opacity="0.8" d="M184.708 256.264C182.287 251.267 175.371 255.378 177.588 260.509C178.168 261.848 178.809 263.157 179.429 264.413C186.875 279.682 189.438 297.382 191.36 314.7C191.828 318.966 192.225 323.499 190.516 327.414C193.639 316.73 194.056 305.315 192.977 294.26C191.899 283.205 189.326 272.47 186.641 261.766C186.183 259.87 185.535 258.027 184.708 256.264V256.264Z" fill="#5AC817"/>
<path opacity="0.8" d="M146.157 264.774C146.284 264.849 146.428 264.892 146.574 264.898C146.839 264.898 147.032 264.62 147.144 264.372C147.744 263.043 147.398 261.281 148.334 260.251C149.28 261.401 150.042 262.695 150.592 264.084L154.142 262.971C154.308 263.669 154.334 264.393 154.218 265.1C154.103 265.808 153.849 266.486 153.471 267.092C154.091 267.371 154.657 267.762 155.139 268.246C155.379 268.492 155.547 268.8 155.624 269.136C155.701 269.473 155.685 269.824 155.576 270.152C154.758 270.352 153.915 270.436 153.074 270.399C153.207 271.981 153.114 273.573 152.799 275.128C152.791 275.244 152.76 275.356 152.707 275.459C152.655 275.561 152.582 275.652 152.494 275.726C152.24 275.901 151.894 275.726 151.63 275.581C150.409 274.824 149.403 273.76 148.711 272.491L147.358 275.561C147.262 275.889 147.052 276.17 146.768 276.354C146.568 276.426 146.349 276.427 146.148 276.358C145.947 276.289 145.775 276.153 145.659 275.973C145.443 275.602 145.311 275.186 145.273 274.757L144.774 271.667C144.768 271.508 144.711 271.356 144.611 271.234C144.463 271.12 144.278 271.065 144.093 271.079C142.831 271.079 141.58 271.079 140.329 271.079C140.116 270.399 140.777 269.771 141.418 269.493C142.058 269.214 142.821 268.988 143.147 268.359C143.798 267.072 142.13 265.269 142.821 264.177C143.696 262.94 145.059 264.228 146.157 264.774Z" fill="#5AC817"/>
<path opacity="0.5" d="M214.702 281.744C217.174 278.344 222.269 282.033 219.971 285.546C219.36 286.473 218.709 287.359 218.079 288.214C210.481 298.61 206.544 311.23 203.147 323.696C202.313 326.787 201.51 330.032 202.466 333.051C201.103 324.953 201.988 316.567 204.042 308.624C206.097 300.68 209.27 293.077 212.566 285.556C213.148 284.215 213.864 282.938 214.702 281.744V281.744Z" fill="#5AC817"/>
<path opacity="0.8" d="M264.003 303.575C269.089 303.41 269.781 311.292 264.675 311.704C263.342 311.807 261.989 311.838 260.708 311.879C245.003 312.312 230.194 318.061 215.903 324.242C212.404 325.767 208.722 327.477 206.677 330.733C213.106 323.181 221.568 317.649 230.58 313.579C239.592 309.51 249.173 306.841 258.775 304.307C260.486 303.869 262.239 303.623 264.003 303.575V303.575Z" fill="#5AC817"/>
<path opacity="0.5" d="M262.589 322.952C265.834 323.065 265.102 327.732 261.847 327.753C260.992 327.753 260.138 327.753 259.324 327.691C249.417 327.279 239.287 330.05 229.451 333.089C227.03 333.842 224.477 334.686 222.728 336.52C227.95 332.436 233.87 329.359 240.192 327.444C246.432 325.559 252.799 324.137 259.243 323.189C260.348 322.995 261.469 322.916 262.589 322.952V322.952Z" fill="#5AC817"/>
<path opacity="0.2" d="M256.701 277.343C258.643 277.003 258.796 279.877 256.853 280.31C256.345 280.424 255.836 280.516 255.338 280.599C249.377 281.629 243.661 284.586 238.168 287.666C236.755 288.324 235.525 289.325 234.588 290.582C237.194 287.47 240.341 284.868 243.874 282.906C247.361 280.991 250.978 279.328 254.697 277.93C255.345 277.672 256.016 277.476 256.701 277.343V277.343Z" fill="#5AC817"/>
<path opacity="0.2" d="M205.956 415.524C205.518 417.482 202.844 416.554 203.2 414.494C203.291 413.979 203.413 413.464 203.525 412.969C204.878 407.004 204.39 400.524 203.698 394.208C203.647 392.634 203.21 391.097 202.427 389.737C204.256 393.37 205.411 397.313 205.834 401.368C206.242 405.365 206.361 409.387 206.19 413.402C206.185 414.116 206.106 414.827 205.956 415.524V415.524Z" fill="#5AC817"/>
<path opacity="0.5" d="M255.451 402.533C256.977 405.149 253.234 404.974 251.586 402.357C251.159 401.677 250.762 400.987 250.386 400.297C245.747 392.312 238.699 384.41 231.589 376.776C229.905 374.797 227.941 373.082 225.761 371.687C231.305 375.519 236.42 379.951 241.018 384.905C245.575 389.737 249.602 394.775 253.549 399.802C254.244 400.667 254.88 401.579 255.451 402.533V402.533Z" fill="#5AC817"/>
<path opacity="0.2" d="M120.037 402.533C118.512 405.149 122.255 404.974 123.892 402.357C124.33 401.677 124.726 400.987 125.103 400.297C129.741 392.312 136.789 384.41 143.899 376.776C145.58 374.795 147.545 373.079 149.727 371.687C144.182 375.517 139.066 379.949 134.47 384.905C129.914 389.737 125.876 394.775 121.939 399.802C121.244 400.667 120.609 401.579 120.037 402.533Z" fill="#5AC817"/>
<path opacity="0.2" d="M169.563 415.524C170.001 417.482 172.676 416.554 172.32 414.494C172.228 413.979 172.106 413.464 171.994 412.969C170.641 407.004 171.13 400.524 171.821 394.208C171.872 392.634 172.309 391.097 173.093 389.737C171.277 393.383 170.14 397.336 169.736 401.399C169.328 405.396 169.209 409.418 169.38 413.433C169.371 414.134 169.432 414.835 169.563 415.524V415.524Z" fill="#5AC817"/>
<path opacity="0.2" d="M241.098 296.969C243.041 296.619 243.193 299.494 241.251 299.937C240.742 300.05 240.234 300.132 239.735 300.215C233.775 301.245 228.069 304.212 222.566 307.293C221.153 307.945 219.923 308.944 218.986 310.198C221.593 307.086 224.744 304.487 228.282 302.533C231.761 300.607 235.374 298.944 239.094 297.557C239.74 297.289 240.412 297.093 241.098 296.969V296.969Z" fill="#5AC817"/>
<path opacity="0.2" d="M222.902 258.437C224.58 257.407 225.78 259.993 224.133 261.136C223.706 261.435 223.258 261.703 222.841 261.971C217.684 265.185 213.483 270.089 209.527 275.034C208.45 276.169 207.677 277.562 207.279 279.083C208.548 275.21 210.51 271.606 213.066 268.451C215.587 265.352 218.327 262.443 221.264 259.745C221.767 259.256 222.315 258.818 222.902 258.437V258.437Z" fill="#5AC817"/>
<path opacity="0.8" d="M286.787 353.551C291.73 356.127 287.55 363.205 282.474 360.856C281.142 360.238 279.84 359.548 278.609 358.898C263.495 350.955 245.939 348.04 228.678 345.783C224.447 345.237 219.931 344.753 216.005 346.453C226.685 343.362 238.066 343.146 249.062 344.392C260.057 345.639 270.747 348.513 281.335 351.429C283.218 351.949 285.045 352.66 286.787 353.551Z" fill="#5AC817"/>
<path opacity="0.5" d="M272.659 381.093C276.209 384.452 270.625 388.418 266.933 385.214C265.967 384.369 265.031 383.473 264.146 382.628C253.313 372.326 239.002 365.011 224.762 358.252C221.263 356.594 206.861 354.904 203.026 354.997C213.065 355.903 233.54 359.118 242.694 363.239C251.635 367.541 260.277 372.453 268.56 377.941C270.021 378.859 271.394 379.914 272.659 381.093V381.093Z" fill="#5AC817"/>
<path opacity="0.8" d="M230.763 430.543C231.2 435.436 224.446 434.664 223.796 429.729C223.623 428.441 223.521 427.153 223.419 425.917C222.127 410.937 216.299 395.802 210.125 381.142C208.61 377.546 198.998 366.563 196.068 364.039C202.954 371.498 216.136 387.735 220.164 397.008C223.988 406.249 227.189 415.742 229.746 425.422C230.24 427.094 230.58 428.808 230.763 430.543V430.543Z" fill="#5AC817"/>
<path opacity="0.8" d="M234.833 264.774C234.706 264.849 234.563 264.892 234.416 264.898C234.141 264.898 233.958 264.62 233.846 264.372C233.236 263.043 233.592 261.281 232.656 260.251C231.71 261.401 230.948 262.695 230.398 264.084L226.848 262.971C226.68 263.668 226.653 264.393 226.768 265.101C226.884 265.809 227.139 266.486 227.52 267.092C226.896 267.371 226.327 267.762 225.841 268.246C225.604 268.493 225.438 268.802 225.363 269.138C225.288 269.474 225.305 269.825 225.414 270.152C226.233 270.353 227.075 270.436 227.916 270.399C227.785 271.98 227.874 273.572 228.181 275.128C228.202 275.36 228.311 275.574 228.486 275.726C228.75 275.901 229.096 275.726 229.361 275.581C230.581 274.824 231.587 273.76 232.28 272.491L233.602 275.685C233.695 276.014 233.905 276.297 234.192 276.478C234.39 276.551 234.608 276.553 234.808 276.483C235.007 276.414 235.178 276.278 235.29 276.097C235.514 275.728 235.65 275.312 235.687 274.881L236.175 271.79C236.189 271.632 236.25 271.481 236.348 271.357C236.497 271.243 236.681 271.189 236.867 271.203C238.118 271.203 239.379 271.203 240.63 271.203C240.844 270.523 240.173 269.894 239.532 269.616C238.891 269.338 238.138 269.111 237.813 268.483C237.162 267.195 238.83 265.392 238.128 264.3C237.304 262.94 235.941 264.228 234.833 264.774Z" fill="#5AC817"/>
<path opacity="0.2" d="M245.553 412.904C245.426 412.98 245.283 413.022 245.136 413.028C244.861 413.028 244.678 412.76 244.566 412.513C243.966 411.174 244.312 409.422 243.376 408.33C242.433 409.482 241.671 410.775 241.118 412.163L237.568 411.05C237.403 411.747 237.377 412.472 237.492 413.179C237.607 413.887 237.862 414.564 238.24 415.171C237.619 415.45 237.054 415.841 236.572 416.325C236.332 416.57 236.164 416.879 236.086 417.215C236.009 417.552 236.026 417.903 236.134 418.231C236.952 418.435 237.795 418.521 238.636 418.488C238.504 420.067 238.596 421.656 238.911 423.207C238.919 423.324 238.95 423.438 239.003 423.542C239.055 423.647 239.128 423.739 239.216 423.815C239.471 423.98 239.816 423.815 240.081 423.66C241.302 422.903 242.307 421.838 243 420.57L244.322 423.763C244.421 424.093 244.629 424.377 244.912 424.567C245.114 424.626 245.329 424.62 245.528 424.55C245.726 424.48 245.899 424.349 246.021 424.176C246.237 423.804 246.369 423.389 246.407 422.96L246.906 419.921C246.9 419.833 246.915 419.745 246.949 419.665C246.983 419.584 247.035 419.513 247.102 419.456C247.168 419.4 247.247 419.361 247.331 419.341C247.415 419.321 247.503 419.322 247.587 419.344C248.838 419.344 250.1 419.292 251.351 419.344C251.564 418.664 250.903 418.045 250.262 417.757C249.621 417.469 248.859 417.262 248.533 416.624C247.882 415.346 249.55 413.533 248.859 412.451C248.055 411.071 246.651 412.358 245.553 412.904Z" fill="#5AC817"/>
<path opacity="0.8" d="M275.65 313.609C275.522 313.69 275.374 313.733 275.223 313.732C274.958 313.732 274.775 313.465 274.663 313.217C274.053 311.888 274.399 310.127 273.473 309.034C272.528 310.189 271.766 311.485 271.215 312.877L267.665 311.754C267.497 312.452 267.469 313.176 267.585 313.884C267.7 314.593 267.956 315.27 268.337 315.875C267.712 316.151 267.142 316.543 266.658 317.029C266.423 317.278 266.258 317.586 266.181 317.921C266.104 318.257 266.118 318.607 266.221 318.935C267.043 319.139 267.888 319.226 268.733 319.193C268.602 320.77 268.691 322.359 268.998 323.911C269.019 324.146 269.128 324.364 269.303 324.519C269.567 324.684 269.903 324.519 270.168 324.375C271.391 323.618 272.4 322.553 273.097 321.284L274.409 324.478C274.505 324.809 274.714 325.094 274.999 325.282C275.2 325.351 275.419 325.349 275.62 325.279C275.82 325.208 275.992 325.071 276.108 324.89C276.333 324.522 276.469 324.106 276.504 323.674L276.993 320.584C277.006 320.43 277.063 320.284 277.155 320.161C277.306 320.043 277.495 319.988 277.684 320.007C278.935 320.007 280.186 320.007 281.437 320.007C281.661 319.337 280.99 318.709 280.349 318.42C279.708 318.132 278.945 317.926 278.63 317.297C277.979 316.009 279.647 314.206 278.945 313.114C278.111 311.775 276.738 313.063 275.65 313.609Z" fill="#5AC817"/>
<path opacity="0.8" d="M155.333 427.762C155.158 427.87 154.958 427.93 154.753 427.937C154.377 427.937 154.113 427.556 153.96 427.206C153.116 425.362 153.604 422.951 152.302 421.395C150.987 422.998 149.926 424.798 149.159 426.732L144.206 425.187C143.976 426.158 143.941 427.166 144.101 428.152C144.262 429.137 144.616 430.08 145.141 430.925C144.272 431.307 143.482 431.853 142.812 432.532C142.482 432.875 142.25 433.303 142.143 433.77C142.035 434.237 142.056 434.724 142.202 435.18C143.346 435.464 144.524 435.585 145.701 435.541C145.516 437.742 145.642 439.959 146.077 442.124C146.103 442.447 146.253 442.746 146.494 442.959C146.695 443.041 146.915 443.066 147.128 443.029C147.342 442.993 147.542 442.897 147.705 442.753C149.417 441.685 150.82 440.178 151.773 438.384L153.614 442.835C153.745 443.296 154.038 443.691 154.438 443.948C154.718 444.047 155.022 444.048 155.303 443.951C155.583 443.853 155.823 443.664 155.984 443.412C156.287 442.897 156.471 442.319 156.523 441.722L157.215 437.488C157.223 437.266 157.301 437.053 157.439 436.88C157.649 436.723 157.91 436.649 158.171 436.674C159.92 436.674 161.67 436.602 163.409 436.674C163.714 435.726 162.779 434.861 161.894 434.459C161.009 434.057 159.941 433.769 159.493 432.893C158.578 431.1 160.938 428.607 159.931 427.062C158.761 425.207 156.859 427.01 155.333 427.762Z" fill="#5AC817"/>
<path opacity="0.8" d="M105.28 316.575C105.101 316.683 104.898 316.743 104.69 316.75C104.324 316.75 104.06 316.369 103.897 316.019C103.063 314.164 103.541 311.764 102.249 310.198C100.931 311.804 99.8668 313.608 99.0961 315.545L94.1529 313.989C93.9183 314.962 93.8803 315.973 94.0411 316.961C94.2019 317.949 94.5582 318.893 95.0886 319.738C94.2177 320.118 93.4269 320.663 92.7594 321.345C92.426 321.686 92.1924 322.115 92.0847 322.582C91.977 323.049 91.9992 323.538 92.1491 323.993C93.2936 324.275 94.4713 324.392 95.648 324.343C95.4639 326.544 95.5872 328.761 96.0143 330.927C96.0253 331.09 96.0688 331.248 96.1423 331.394C96.2157 331.539 96.3175 331.667 96.4414 331.772C96.8076 332.009 97.2755 331.772 97.6518 331.566C99.3615 330.495 100.764 328.988 101.72 327.197L103.561 331.648C103.698 332.103 103.985 332.496 104.375 332.761C104.655 332.86 104.959 332.861 105.24 332.764C105.52 332.667 105.76 332.477 105.921 332.225C106.227 331.711 106.415 331.133 106.47 330.535L107.152 326.291C107.169 326.072 107.251 325.864 107.386 325.693C107.594 325.531 107.857 325.457 108.118 325.487C109.857 325.487 111.607 325.415 113.356 325.425C113.651 324.488 112.726 323.612 111.831 323.22C110.936 322.829 109.878 322.52 109.43 321.644C108.525 319.852 110.875 317.369 109.878 315.823C108.708 314.02 106.806 315.803 105.28 316.575Z" fill="#5AC817"/>
<path opacity="0.2" d="M257.21 385.428C257.119 385.488 257.013 385.52 256.904 385.521C256.701 385.521 256.569 385.314 256.477 385.139C256.03 384.109 256.294 382.873 255.603 382.049C254.901 382.897 254.338 383.853 253.934 384.882L251.3 384.058C251.169 384.58 251.145 385.124 251.231 385.656C251.317 386.187 251.51 386.696 251.798 387.148C251.337 387.355 250.917 387.645 250.558 388.003C250.384 388.188 250.263 388.417 250.208 388.665C250.152 388.914 250.164 389.173 250.242 389.415C250.849 389.558 251.471 389.621 252.093 389.6C251.993 390.768 252.062 391.945 252.297 393.093C252.302 393.18 252.325 393.265 252.363 393.343C252.402 393.42 252.455 393.49 252.521 393.546C252.714 393.67 252.968 393.546 253.161 393.433C254.068 392.864 254.811 392.065 255.318 391.115L256.335 393.474C256.408 393.719 256.563 393.93 256.772 394.072C256.922 394.123 257.084 394.122 257.233 394.07C257.382 394.018 257.51 393.917 257.596 393.783C257.758 393.511 257.856 393.204 257.881 392.887L258.247 390.631C258.243 390.566 258.255 390.501 258.281 390.441C258.306 390.382 258.346 390.33 258.395 390.288C258.445 390.247 258.503 390.218 258.566 390.205C258.629 390.191 258.694 390.192 258.756 390.208C259.691 390.208 260.617 390.208 261.543 390.208C261.705 389.703 261.207 389.24 260.739 389.034C260.271 388.828 259.722 388.663 259.458 388.199C258.979 387.241 260.231 385.922 259.691 385.108C259.152 384.295 257.983 385.026 257.21 385.428Z" fill="#5AC817"/>
<path opacity="0.2" d="M189.172 425.198C189.077 425.258 188.968 425.29 188.857 425.291C188.663 425.291 188.521 425.085 188.44 424.899C187.992 423.92 188.246 422.643 187.565 421.808C186.862 422.662 186.296 423.621 185.887 424.652L183.262 423.828C183.132 424.35 183.108 424.894 183.194 425.426C183.28 425.957 183.473 426.465 183.761 426.918C183.298 427.122 182.877 427.412 182.52 427.774C182.343 427.956 182.219 428.184 182.161 428.433C182.104 428.682 182.115 428.942 182.194 429.185C182.804 429.329 183.43 429.392 184.056 429.37C183.956 430.538 184.022 431.714 184.249 432.863C184.255 432.948 184.278 433.031 184.317 433.108C184.355 433.184 184.408 433.251 184.473 433.306C184.666 433.44 184.92 433.306 185.114 433.203C186.024 432.636 186.771 431.836 187.28 430.885L188.297 433.244C188.37 433.489 188.525 433.7 188.735 433.842C188.884 433.893 189.046 433.892 189.195 433.84C189.344 433.788 189.472 433.687 189.559 433.553C189.72 433.281 189.818 432.974 189.843 432.657L190.21 430.401C190.217 430.284 190.26 430.173 190.332 430.081C190.445 430.003 190.581 429.963 190.718 429.968C191.644 429.968 192.569 429.968 193.505 429.968C193.658 429.463 193.169 429 192.691 428.794C192.213 428.587 191.674 428.423 191.42 427.959C190.932 427.001 192.183 425.682 191.654 424.868C191.125 424.054 189.986 424.786 189.172 425.198Z" fill="#5AC817"/>
<path opacity="0.5" d="M123.365 286.008C123.273 286.067 123.168 286.099 123.06 286.101C122.961 286.083 122.869 286.038 122.793 285.97C122.718 285.903 122.662 285.816 122.632 285.719C122.185 284.689 122.439 283.453 121.758 282.629C121.055 283.478 120.489 284.434 120.079 285.462L117.455 284.638C117.326 285.16 117.304 285.704 117.39 286.235C117.475 286.767 117.667 287.275 117.954 287.728C117.491 287.928 117.07 288.215 116.713 288.573C116.537 288.756 116.413 288.984 116.356 289.233C116.298 289.482 116.309 289.742 116.387 289.985C116.995 290.139 117.623 290.201 118.249 290.17C118.15 291.341 118.215 292.52 118.442 293.673C118.45 293.759 118.475 293.842 118.515 293.918C118.555 293.994 118.61 294.062 118.676 294.116C118.869 294.24 119.113 294.116 119.317 294.013C120.224 293.442 120.968 292.639 121.473 291.685L122.49 294.054C122.56 294.298 122.715 294.507 122.927 294.641C123.077 294.693 123.239 294.692 123.388 294.64C123.537 294.588 123.665 294.487 123.751 294.353C123.913 294.081 124.011 293.774 124.036 293.457L124.402 291.211C124.41 291.094 124.453 290.983 124.524 290.891C124.633 290.803 124.772 290.763 124.911 290.778C125.836 290.778 126.772 290.778 127.698 290.778C127.85 290.283 127.362 289.82 126.884 289.604C126.406 289.387 125.867 289.233 125.613 288.769C125.124 287.821 126.386 286.492 125.847 285.678C125.307 284.864 124.178 285.606 123.365 286.008Z" fill="#5AC817"/>
<path opacity="0.5" d="M158.385 364.44C158.295 364.502 158.189 364.534 158.08 364.533C157.877 364.533 157.744 364.337 157.663 364.152C157.215 363.122 157.47 361.885 156.778 361.061C156.082 361.913 155.52 362.869 155.11 363.894L152.476 363.07C152.35 363.593 152.329 364.136 152.414 364.667C152.5 365.198 152.69 365.706 152.974 366.161C152.515 366.367 152.098 366.656 151.743 367.016C151.566 367.198 151.442 367.426 151.385 367.675C151.327 367.924 151.339 368.185 151.418 368.427C152.023 368.576 152.646 368.639 153.269 368.613C153.174 369.784 153.242 370.964 153.472 372.116C153.478 372.201 153.501 372.284 153.54 372.36C153.578 372.436 153.631 372.504 153.696 372.559C153.889 372.682 154.144 372.559 154.337 372.445C155.247 371.878 155.994 371.079 156.503 370.127L157.521 372.487C157.588 372.734 157.744 372.947 157.958 373.084C158.106 373.136 158.267 373.136 158.415 373.084C158.562 373.032 158.688 372.93 158.772 372.796C158.937 372.524 159.038 372.217 159.067 371.899L159.433 369.653C159.432 369.527 159.48 369.405 159.565 369.313C159.618 369.268 159.68 369.235 159.746 369.215C159.813 369.196 159.883 369.191 159.951 369.2C160.874 369.2 161.799 369.2 162.728 369.2C162.891 368.706 162.403 368.232 161.925 368.026C161.447 367.82 160.908 367.655 160.653 367.191C160.165 366.243 161.416 364.914 160.887 364.1C160.358 363.286 159.199 364.038 158.385 364.44Z" fill="#5AC817"/>
<path opacity="0.5" d="M132.965 333.873C132.87 333.925 132.767 333.957 132.66 333.966C132.562 333.943 132.473 333.895 132.399 333.826C132.326 333.758 132.272 333.671 132.243 333.574C131.795 332.595 132.049 331.318 131.358 330.483C130.658 331.337 130.095 332.296 129.69 333.327L127.055 332.503C126.93 333.026 126.91 333.568 126.996 334.099C127.081 334.63 127.271 335.138 127.554 335.593C127.091 335.793 126.67 336.08 126.313 336.438C126.139 336.623 126.018 336.851 125.963 337.1C125.907 337.348 125.919 337.608 125.997 337.85C126.602 338.004 127.226 338.067 127.849 338.035C127.753 339.207 127.822 340.386 128.052 341.538C128.058 341.623 128.081 341.706 128.12 341.783C128.158 341.859 128.211 341.926 128.276 341.981C128.469 342.105 128.723 341.981 128.916 341.878C129.825 341.305 130.572 340.503 131.083 339.55L132.1 341.919C132.167 342.161 132.319 342.37 132.527 342.507C132.677 342.558 132.839 342.557 132.988 342.505C133.137 342.453 133.265 342.352 133.351 342.218C133.517 341.946 133.618 341.64 133.646 341.322L134.002 339.076C134.01 338.959 134.053 338.848 134.124 338.756C134.236 338.667 134.379 338.626 134.521 338.643C135.443 338.643 136.369 338.643 137.298 338.643C137.46 338.149 136.962 337.685 136.494 337.469C136.026 337.252 135.477 337.098 135.213 336.634C134.734 335.686 135.986 334.357 135.457 333.543C134.928 332.729 133.778 333.461 132.965 333.873Z" fill="#5AC817"/>
<path opacity="0.5" d="M242.145 341.064C242.055 341.125 241.949 341.158 241.84 341.157C241.637 341.157 241.504 340.961 241.423 340.776C240.975 339.745 241.23 338.509 240.538 337.685C239.839 338.535 239.276 339.491 238.87 340.518L236.236 339.694C236.11 340.217 236.089 340.76 236.174 341.291C236.26 341.822 236.45 342.33 236.734 342.785C236.273 342.992 235.853 343.281 235.493 343.64C235.32 343.824 235.199 344.053 235.143 344.301C235.088 344.55 235.1 344.809 235.178 345.051C235.783 345.2 236.406 345.263 237.029 345.237C236.934 346.408 237.002 347.587 237.232 348.739C237.238 348.825 237.261 348.908 237.3 348.984C237.338 349.06 237.391 349.128 237.456 349.182C237.649 349.306 237.904 349.182 238.097 349.069C239.007 348.502 239.754 347.703 240.263 346.751L241.281 349.11C241.348 349.358 241.504 349.571 241.718 349.708C241.866 349.758 242.026 349.757 242.174 349.705C242.321 349.653 242.447 349.552 242.532 349.419C242.697 349.148 242.798 348.841 242.827 348.523L243.193 346.277C243.187 346.211 243.198 346.145 243.223 346.085C243.248 346.024 243.287 345.97 243.336 345.928C243.386 345.885 243.445 345.855 243.509 345.841C243.572 345.827 243.638 345.828 243.701 345.844C244.63 345.844 245.556 345.844 246.478 345.844C246.641 345.35 246.142 344.876 245.675 344.67C245.207 344.464 244.657 344.299 244.393 343.835C243.915 342.888 245.166 341.559 244.637 340.745C244.108 339.931 242.969 340.662 242.145 341.064Z" fill="#5AC817"/>
<path opacity="0.2" d="M189.172 335.047C189.077 335.107 188.968 335.14 188.857 335.14C188.663 335.14 188.521 334.944 188.44 334.759C187.992 333.729 188.246 332.492 187.565 331.668C186.862 332.518 186.296 333.474 185.887 334.501L183.262 333.677C183.133 334.2 183.111 334.743 183.197 335.275C183.283 335.806 183.474 336.314 183.761 336.768C183.298 336.968 182.877 337.254 182.52 337.613C182.344 337.796 182.22 338.024 182.163 338.273C182.106 338.521 182.116 338.781 182.194 339.024C182.802 339.179 183.43 339.241 184.056 339.21C183.957 340.381 184.022 341.56 184.249 342.713C184.267 342.883 184.346 343.041 184.473 343.156C184.666 343.279 184.92 343.156 185.114 343.053C186.025 342.482 186.772 341.679 187.28 340.724L188.297 343.094C188.367 343.337 188.522 343.546 188.735 343.681C188.884 343.732 189.046 343.732 189.195 343.679C189.344 343.627 189.472 343.526 189.558 343.393C189.72 343.12 189.818 342.813 189.843 342.496L190.209 340.25C190.217 340.134 190.26 340.022 190.332 339.931C190.441 339.843 190.58 339.802 190.718 339.818C191.644 339.818 192.569 339.818 193.505 339.818C193.658 339.323 193.169 338.859 192.691 338.643C192.213 338.427 191.674 338.272 191.42 337.809C190.932 336.861 192.183 335.532 191.654 334.718C191.125 333.904 189.986 334.646 189.172 335.047Z" fill="#5AC817"/>
<path opacity="0.3" d="M172.542 342.385C172.448 342.437 172.344 342.469 172.237 342.478C172.14 342.455 172.05 342.407 171.977 342.338C171.904 342.27 171.849 342.183 171.82 342.086C171.372 341.056 171.627 339.83 170.935 338.995C170.233 339.847 169.67 340.807 169.267 341.839L166.633 341.004C166.508 341.527 166.488 342.07 166.574 342.601C166.66 343.131 166.849 343.64 167.131 344.095C166.668 344.295 166.247 344.581 165.89 344.94C165.717 345.124 165.596 345.353 165.54 345.602C165.485 345.85 165.497 346.109 165.575 346.351C166.179 346.506 166.803 346.568 167.426 346.537C167.331 347.708 167.399 348.888 167.629 350.04C167.635 350.125 167.658 350.208 167.697 350.284C167.735 350.36 167.788 350.428 167.853 350.483C168.046 350.606 168.301 350.483 168.494 350.38C169.403 349.807 170.149 349.004 170.66 348.051L171.678 350.421C171.747 350.665 171.903 350.874 172.115 351.008C172.263 351.059 172.423 351.058 172.571 351.005C172.718 350.953 172.844 350.853 172.929 350.72C173.094 350.448 173.195 350.141 173.224 349.823L173.59 347.577C173.594 347.462 173.633 347.35 173.702 347.258C173.814 347.169 173.956 347.128 174.098 347.145C175.027 347.145 175.953 347.145 176.875 347.145C177.038 346.65 176.539 346.187 176.071 345.97C175.604 345.754 175.054 345.599 174.79 345.136C174.312 344.188 175.563 342.859 175.034 342.045C174.505 341.231 173.356 341.973 172.542 342.385Z" fill="#5AC817"/>
<path opacity="0.2" d="M157.053 298.041C156.958 298.101 156.849 298.133 156.737 298.134C156.544 298.134 156.402 297.938 156.32 297.753C155.873 296.723 156.127 295.486 155.446 294.662C154.743 295.512 154.177 296.468 153.767 297.495L151.143 296.671C151.012 297.193 150.988 297.737 151.074 298.269C151.16 298.801 151.353 299.309 151.641 299.762C151.18 299.969 150.76 300.259 150.4 300.617C150.223 300.799 150.099 301.027 150.042 301.276C149.984 301.525 149.996 301.786 150.075 302.028C150.684 302.177 151.31 302.24 151.936 302.214C151.838 303.385 151.903 304.564 152.13 305.717C152.147 305.888 152.227 306.045 152.353 306.16C152.547 306.283 152.801 306.16 152.994 306.046C153.907 305.483 154.655 304.683 155.161 303.728L156.178 306.088C156.251 306.332 156.405 306.543 156.615 306.685C156.765 306.736 156.927 306.736 157.076 306.684C157.225 306.631 157.353 306.531 157.439 306.397C157.601 306.124 157.699 305.817 157.724 305.5L158.09 303.254C158.097 303.138 158.139 303.026 158.212 302.935C158.321 302.847 158.46 302.806 158.599 302.822C159.524 302.822 160.46 302.822 161.386 302.822C161.538 302.317 161.05 301.853 160.572 301.647C160.094 301.441 159.555 301.276 159.3 300.813C158.812 299.855 160.063 298.536 159.534 297.722C159.005 296.908 157.866 297.64 157.053 298.041Z" fill="#5AC817"/>
<path opacity="0.3" d="M187.577 355.92C187.479 355.971 187.372 356.002 187.262 356.013C187.069 356.013 186.926 355.806 186.845 355.621C186.398 354.642 186.652 353.365 185.97 352.53C185.268 353.383 184.701 354.343 184.292 355.374L181.668 354.55C181.538 355.072 181.515 355.616 181.601 356.147C181.686 356.679 181.879 357.187 182.166 357.64C181.704 357.84 181.283 358.127 180.925 358.485C180.749 358.668 180.626 358.896 180.568 359.145C180.511 359.394 180.522 359.654 180.6 359.897C181.208 360.05 181.835 360.113 182.461 360.082C182.363 361.253 182.428 362.432 182.655 363.585C182.672 363.756 182.752 363.914 182.878 364.028C183.072 364.152 183.326 364.028 183.529 363.925C184.435 363.352 185.179 362.549 185.686 361.597L186.703 363.966C186.772 364.21 186.928 364.419 187.14 364.553C187.29 364.605 187.452 364.604 187.601 364.552C187.75 364.5 187.878 364.399 187.964 364.265C188.126 363.992 188.223 363.686 188.249 363.369L188.615 361.123C188.623 361.006 188.665 360.895 188.737 360.803C188.846 360.715 188.985 360.675 189.123 360.69C190.049 360.69 190.985 360.69 191.91 360.69C192.063 360.195 191.575 359.732 191.097 359.515C190.619 359.299 190.08 359.145 189.825 358.681C189.337 357.733 190.588 356.404 190.059 355.59C189.53 354.776 188.391 355.487 187.577 355.92Z" fill="#5AC817"/>
</g>
</svg>
