<svg width="174" height="53" viewBox="0 0 174 53" fill="none" xmlns="http://www.w3.org/2000/svg">
<path d="M7.35 37.5C6.01667 37.5 4.88333 37.2333 3.95 36.7C3.01667 36.1333 2.25 35.3833 1.65 34.45C1.08333 33.4833 0.666667 32.35 0.4 31.05C0.133333 29.75 0 28.3667 0 26.9C0 25.4333 0.216667 23.9667 0.65 22.5C1.08333 21.0333 1.66667 19.7167 2.4 18.55C3.16667 17.35 4.05 16.3833 5.05 15.65C6.05 14.9167 7.11667 14.55 8.25 14.55C9.95 14.55 11.2333 15.05 12.1 16.05C13 17.0167 13.45 18.2 13.45 19.6C13.45 21.1667 13.2 22.5333 12.7 23.7C12.2 24.8333 11.5167 25.8667 10.65 26.8C10.15 27.3333 9.53333 27.8167 8.8 28.25C8.06667 28.65 7.33333 28.9167 6.6 29.05C6.33333 29.1167 6.08333 29.1667 5.85 29.2C5.61667 29.2 5.41667 29.2167 5.25 29.25C5.25 29.9833 5.36667 30.65 5.6 31.25C6.03333 32.25 6.68333 32.75 7.55 32.75C8.38333 32.75 9.13333 32.5333 9.8 32.1C10.3 31.7667 10.7667 31.3333 11.2 30.8C11.6667 30.2667 12.1 29.6833 12.5 29.05C12.9 28.3833 13.2833 27.7 13.65 27C14.05 26.2667 14.45 25.5667 14.85 24.9C15.3167 24.1 15.9833 23.7 16.85 23.7C17.45 23.7 17.9167 23.9333 18.25 24.4C18.5833 24.8333 18.75 25.3333 18.75 25.9C18.75 26.4333 18.6 27.0167 18.3 27.65C18 28.25 17.6833 28.8667 17.35 29.5C16.75 30.6667 15.95 31.8833 14.95 33.15C13.95 34.4167 12.7 35.5167 11.2 36.45C10.0333 37.15 8.75 37.5 7.35 37.5ZM5.35 24.5C5.35 24.7 5.43333 24.8 5.6 24.8C6 24.8 6.38333 24.6667 6.75 24.4C7.15 24.1 7.5 23.7333 7.8 23.3C8.13333 22.8667 8.4 22.3833 8.6 21.85C8.8 21.2833 8.9 20.75 8.9 20.25C8.9 19.55 8.63333 19.2 8.1 19.2C7.76667 19.2 7.43333 19.3833 7.1 19.75C6.8 20.1167 6.51667 20.5833 6.25 21.15C5.98333 21.6833 5.76667 22.25 5.6 22.85C5.43333 23.45 5.35 24 5.35 24.5Z" fill="url(#paint0_linear)"/>
<path d="M28.0312 30.75C28.1312 31.3167 28.3979 31.6 28.8313 31.6C29.1979 31.6 29.6313 31.2167 30.1313 30.45C30.6646 29.5833 31.1146 28.7167 31.4813 27.85C31.8479 26.9833 32.2646 26.1 32.7313 25.2C32.9646 24.7333 33.2813 24.3833 33.6813 24.15C34.0813 23.9167 34.4479 23.8 34.7812 23.8C35.4479 23.8 35.9479 23.9833 36.2812 24.35C36.6479 24.6833 36.8312 25.1167 36.8312 25.65C36.8312 26.2833 36.6479 26.9833 36.2812 27.75C35.9479 28.4833 35.6312 29.1833 35.3312 29.85C35.1312 30.2833 34.8646 30.8 34.5312 31.4C34.2313 31.9667 33.8813 32.55 33.4813 33.15C33.0813 33.75 32.6646 34.3333 32.2313 34.9C31.7979 35.4333 31.3646 35.8833 30.9312 36.25C30.3312 36.7833 29.7812 37.1667 29.2812 37.4C28.7812 37.6333 28.1646 37.75 27.4313 37.75C26.6313 37.75 25.9979 37.5333 25.5312 37.1C25.0979 36.6333 24.6979 36.05 24.3313 35.35C24.1313 34.9833 23.9979 34.8 23.9312 34.8C23.8312 34.8 23.7313 34.85 23.6313 34.95C23.5646 35.05 23.4646 35.1667 23.3313 35.3C22.7313 35.9 22.0979 36.4333 21.4313 36.9C20.7979 37.3333 20.0146 37.55 19.0813 37.55C17.4813 37.55 16.1646 36.8833 15.1313 35.55C14.1313 34.1833 13.6313 32.3333 13.6313 30C13.6313 28.4333 13.8312 26.9333 14.2312 25.5C14.6312 24.0667 15.1813 22.8167 15.8813 21.75C16.5813 20.65 17.4312 19.7833 18.4312 19.15C19.4312 18.4833 20.5313 18.15 21.7313 18.15C22.2313 18.15 22.6979 18.2167 23.1313 18.35C23.1646 17.8167 23.1812 17.3667 23.1812 17C23.2146 16.6 23.2646 16.15 23.3313 15.65C23.4313 14.8167 23.5313 13.9 23.6313 12.9C23.7646 11.9 23.9313 10.8833 24.1313 9.85C24.3646 8.78333 24.6312 7.73333 24.9312 6.7C25.2312 5.66667 25.6146 4.71667 26.0813 3.85C26.4813 3.08333 26.9146 2.46667 27.3813 2C27.8813 1.5 28.5146 1.25 29.2812 1.25C30.1479 1.25 30.7812 1.68333 31.1812 2.55C31.5813 3.38333 31.7813 4.5 31.7813 5.9C31.7813 8.86667 31.4146 12.05 30.6813 15.45C29.9813 18.85 29.0146 22.75 27.7812 27.15C27.7812 27.7167 27.7812 28.3167 27.7812 28.95C27.8146 29.5833 27.8979 30.1833 28.0312 30.75ZM20.0812 32.1C20.6812 32.1 21.2479 31.7833 21.7812 31.15C22.3479 30.5167 22.6979 29.7667 22.8313 28.9C22.7979 28.5 22.7646 28.1 22.7313 27.7C22.7313 27.2667 22.7313 26.8833 22.7313 26.55C22.7313 25.9167 22.7313 25.3167 22.7313 24.75C22.7313 24.1833 22.7646 23.6167 22.8313 23.05C22.7313 22.9833 22.5979 22.95 22.4312 22.95C22.2979 22.9167 22.1813 22.9 22.0813 22.9C21.5813 22.9 21.1146 23.1 20.6813 23.5C20.2479 23.8667 19.8646 24.3667 19.5312 25C19.2312 25.6333 18.9979 26.3333 18.8313 27.1C18.6646 27.8667 18.5812 28.6333 18.5812 29.4C18.5812 30.2667 18.6813 30.9333 18.8813 31.4C19.1146 31.8667 19.5146 32.1 20.0812 32.1Z" fill="url(#paint1_linear)"/>
<path d="M37.6301 37.2C36.8634 37.2 36.1634 37.0667 35.5301 36.8C34.9301 36.5 34.4134 36 33.9801 35.3C33.5467 34.6 33.2134 33.6667 32.9801 32.5C32.7801 31.3 32.6801 29.8 32.6801 28C32.6801 26.6333 32.7801 25.4167 32.9801 24.35C33.2134 23.2833 33.4967 22.4833 33.8301 21.95C34.2967 21.1833 34.9967 20.8 35.9301 20.8C36.6301 20.8 37.1967 21.0333 37.6301 21.5C38.0967 21.9667 38.3301 22.6 38.3301 23.4C38.3301 24.2333 38.1634 25.1667 37.8301 26.2C37.5301 27.2333 37.3801 28.4167 37.3801 29.75C37.3801 30.0833 37.4134 30.3833 37.4801 30.65C37.5801 30.9167 37.7634 31.05 38.0301 31.05C38.4634 31.05 38.8634 30.7333 39.2301 30.1C39.6301 29.4667 39.9801 28.7333 40.2801 27.9C40.5801 27.0667 40.8301 26.2333 41.0301 25.4C41.2301 24.5667 41.3801 23.9333 41.4801 23.5C41.7801 22.1333 42.1301 21.1667 42.5301 20.6C42.9634 20.0333 43.5134 19.75 44.1801 19.75C44.8467 19.75 45.3801 19.95 45.7801 20.35C46.2134 20.7167 46.4301 21.1833 46.4301 21.75C46.4301 22.5167 46.2801 23.4833 45.9801 24.65C45.6801 25.8167 45.5301 26.9333 45.5301 28C45.5301 28.7667 45.5801 29.4333 45.6801 30C45.7801 30.5333 46.0634 30.8 46.5301 30.8C46.7967 30.8 47.0301 30.7 47.2301 30.5C47.4634 30.2667 47.6967 29.9667 47.9301 29.6C48.2967 29.0333 48.6801 28.3833 49.0801 27.65C49.5134 26.8833 49.8967 26.1333 50.2301 25.4C50.4301 24.9333 50.6967 24.5667 51.0301 24.3C51.3967 24 51.7801 23.85 52.1801 23.85C52.7134 23.85 53.2134 24 53.6801 24.3C54.1801 24.6 54.4301 25.0833 54.4301 25.75C54.4301 26.4167 54.2467 27.1 53.8801 27.8C53.5467 28.4667 53.2134 29.1333 52.8801 29.8C52.5467 30.4667 52.0801 31.3333 51.4801 32.4C50.8801 33.4667 50.1134 34.5 49.1801 35.5C48.7801 35.9667 48.2801 36.3667 47.6801 36.7C47.1134 37.0333 46.4301 37.2 45.6301 37.2C44.8634 37.2 44.0801 36.9167 43.2801 36.35C42.5134 35.7833 41.9801 35.0167 41.6801 34.05C41.2134 34.9167 40.6467 35.6667 39.9801 36.3C39.3467 36.9 38.5634 37.2 37.6301 37.2Z" fill="url(#paint2_linear)"/>
<path d="M57.0062 29.4C56.4396 29.4 55.9229 29.2333 55.4562 28.9C54.9896 28.5333 54.7562 28.0333 54.7562 27.4C54.7562 26.7 54.9729 26.0833 55.4062 25.55C55.8396 24.9833 56.3896 24.7 57.0563 24.7C58.2229 24.7 59.3229 24.6833 60.3563 24.65C61.3896 24.5833 62.3396 24.55 63.2062 24.55C64.0396 24.55 64.6729 24.8 65.1062 25.3C65.5396 25.7667 65.7562 26.3 65.7562 26.9C65.7562 27.6 65.5062 28.2167 65.0062 28.75C64.5062 29.25 63.9396 29.5 63.3063 29.5C62.4729 29.5 61.7896 29.4833 61.2563 29.45C60.7563 29.3833 60.2229 29.35 59.6562 29.35C59.2896 29.35 58.8563 29.3667 58.3563 29.4C57.8896 29.4 57.4396 29.4 57.0062 29.4Z" fill="url(#paint3_linear)"/>
<path d="M82.9348 7.45C82.9348 6.55 83.0681 5.71667 83.3348 4.95C83.6014 4.15 83.9681 3.46667 84.4348 2.9C84.9348 2.33333 85.5181 1.88333 86.1848 1.55C86.8514 1.21667 87.6014 1.05 88.4348 1.05C89.5681 1.05 90.5514 1.31667 91.3848 1.85C92.2181 2.35 92.9014 3.01667 93.4348 3.85C94.0014 4.68333 94.4181 5.61667 94.6848 6.65C94.9848 7.68333 95.1348 8.71667 95.1348 9.75C95.1348 11.15 94.9514 12.45 94.5848 13.65C94.2514 14.8167 93.8014 16.0333 93.2348 17.3C93.9014 18.2667 94.6014 19.2833 95.3348 20.35C96.1014 21.4167 96.8014 22.5167 97.4348 23.65C98.1014 24.75 98.6348 25.8667 99.0348 27C99.4681 28.1 99.6848 29.1667 99.6848 30.2C99.6848 31.7333 99.4014 33.05 98.8348 34.15C98.3014 35.25 97.5514 36.1667 96.5848 36.9C95.6181 37.6 94.4848 38.1167 93.1848 38.45C91.8848 38.8167 90.4848 39 88.9848 39C86.6181 39 84.5181 38.6167 82.6848 37.85C80.8848 37.1167 79.2514 36.2667 77.7848 35.3C76.9181 35.9667 75.9514 36.5667 74.8848 37.1C73.8514 37.6333 72.9014 37.9 72.0348 37.9C71.3348 37.9 70.7348 37.65 70.2348 37.15C69.7348 36.65 69.4848 36.0667 69.4848 35.4C69.4848 34.7 69.7181 34.1 70.1848 33.6C70.6514 33.0667 71.2348 32.8 71.9348 32.8C72.2014 32.8 72.5014 32.7333 72.8348 32.6C73.1681 32.4333 73.5181 32.2167 73.8848 31.95C73.1181 31.1833 72.4848 30.35 71.9848 29.45C71.4848 28.5167 71.2348 27.5333 71.2348 26.5C71.2348 25.1 71.7014 23.9333 72.6348 23C73.6014 22.0333 74.8181 21.55 76.2848 21.55C77.5848 21.55 78.8681 21.7333 80.1348 22.1C81.4014 22.4333 82.5848 22.8667 83.6848 23.4C84.3848 22.5667 85.0348 21.7667 85.6348 21C86.2348 20.2 86.8014 19.3333 87.3348 18.4C86.8348 17.7 86.3181 16.95 85.7848 16.15C85.2514 15.3167 84.7681 14.45 84.3348 13.55C83.9348 12.6167 83.6014 11.65 83.3348 10.65C83.0681 9.61667 82.9348 8.55 82.9348 7.45ZM88.0848 7C88.0848 7.83333 88.2848 8.75 88.6848 9.75C89.1181 10.7167 89.5681 11.6 90.0348 12.4C90.2681 11.5 90.3848 10.6167 90.3848 9.75C90.3848 8.78333 90.2348 7.93333 89.9348 7.2C89.6348 6.43333 89.2348 6.05 88.7348 6.05C88.3014 6.05 88.0848 6.36667 88.0848 7ZM76.9348 26.35C76.5681 26.35 76.3848 26.5167 76.3848 26.85C76.3848 27.05 76.5014 27.3 76.7348 27.6C76.9014 27.8333 77.0848 28.05 77.2848 28.25C77.4848 28.4167 77.7681 28.6833 78.1348 29.05C78.5014 28.7833 78.8348 28.5 79.1348 28.2C79.4681 27.8667 79.7848 27.55 80.0848 27.25C79.5181 26.9833 78.9514 26.7667 78.3848 26.6C77.8514 26.4333 77.3681 26.35 76.9348 26.35ZM90.1848 22.65C89.8181 23.1833 89.5181 23.6333 89.2848 24C89.0514 24.3667 88.7348 24.7833 88.3348 25.25C88.8014 25.4833 89.2681 25.7167 89.7348 25.95C90.2014 26.1833 90.6181 26.4333 90.9848 26.7C91.8848 27.3 92.3348 28.1 92.3348 29.1C92.3348 29.7667 92.1014 30.3333 91.6348 30.8C91.2014 31.2333 90.6348 31.45 89.9348 31.45C89.5681 31.45 89.2348 31.3833 88.9348 31.25C88.6348 31.1167 88.3348 30.9667 88.0348 30.8C87.6014 30.5333 87.1181 30.25 86.5848 29.95C86.0848 29.6167 85.5514 29.3167 84.9848 29.05C84.5848 29.5167 84.1348 30 83.6348 30.5C83.1681 30.9667 82.6514 31.4167 82.0848 31.85C83.0514 32.5167 84.1348 33.05 85.3348 33.45C86.5681 33.85 87.7848 34.05 88.9848 34.05C90.4848 34.05 91.7181 33.7667 92.6848 33.2C93.6848 32.6333 94.1848 31.65 94.1848 30.25C94.1848 29.7833 94.0681 29.2667 93.8348 28.7C93.6014 28.1 93.2848 27.4833 92.8848 26.85C92.5181 26.1833 92.1014 25.5 91.6348 24.8C91.1681 24.1 90.6848 23.3833 90.1848 22.65Z" fill="url(#paint4_linear)"/>
<path d="M113.483 35.55C113.017 35.9167 112.467 36.25 111.833 36.55C111.2 36.85 110.5 37 109.733 37C108.833 37 108.05 36.7667 107.383 36.3C106.717 35.8333 106.167 35.2 105.733 34.4C105.333 33.6333 105 32.7167 104.733 31.65C104.5 30.55 104.383 29.3167 104.383 27.95C104.383 26.25 104.45 24.55 104.583 22.85C104.75 21.15 104.917 19.5667 105.083 18.1C105.35 15.7333 105.683 13.3333 106.083 10.9C106.517 8.43333 107.067 6.2 107.733 4.2C108.133 3 108.65 2 109.283 1.2C109.917 0.4 110.717 0 111.683 0C112.217 0 112.683 0.116666 113.083 0.349998C113.483 0.583333 113.817 0.899999 114.083 1.3C114.35 1.66667 114.533 2.08333 114.633 2.55C114.767 3.01667 114.833 3.5 114.833 4C114.833 4.76667 114.767 5.61667 114.633 6.55C114.533 7.45 114.383 8.38333 114.183 9.35C113.983 10.3167 113.75 11.3 113.483 12.3C113.217 13.2667 112.95 14.1833 112.683 15.05C112.25 16.45 111.767 17.8167 111.233 19.15C110.733 20.4833 110.133 21.9667 109.433 23.6C109.3 24.2667 109.217 24.85 109.183 25.35C109.183 25.8167 109.183 26.4667 109.183 27.3C109.183 28.7667 109.3 29.85 109.533 30.55C109.767 31.2167 110.2 31.55 110.833 31.55C111.1 31.55 111.367 31.4833 111.633 31.35C111.9 31.1833 112.15 30.9833 112.383 30.75C112.85 30.2833 113.233 29.8167 113.533 29.35C113.867 28.8833 114.167 28.4333 114.433 28C114.7 27.5667 114.933 27.1167 115.133 26.65C115.333 26.15 115.55 25.7 115.783 25.3C116.05 24.8667 116.35 24.5167 116.683 24.25C117.017 23.9833 117.417 23.85 117.883 23.85C118.483 23.85 118.967 24.0333 119.333 24.4C119.733 24.7333 119.933 25.1667 119.933 25.7C119.933 26.0333 119.883 26.3667 119.783 26.7C119.683 27.0333 119.55 27.3667 119.383 27.7C118.95 28.6333 118.4 29.6167 117.733 30.65C117.067 31.6833 116.367 32.6333 115.633 33.5C115.033 34.2333 114.317 34.9167 113.483 35.55Z" fill="url(#paint5_linear)"/>
<path d="M117.732 28.4C117.732 27.3333 117.882 26.2833 118.182 25.25C118.482 24.1833 118.832 23.3667 119.232 22.8C119.432 22.5333 119.632 22.3 119.832 22.1C120.065 21.8667 120.315 21.6667 120.582 21.5C120.515 21.3667 120.482 21.2333 120.482 21.1C120.482 20.8667 120.582 20.65 120.782 20.45C121.015 20.2167 121.298 20.0333 121.632 19.9C121.998 19.7667 122.382 19.6667 122.782 19.6C123.182 19.5 123.582 19.45 123.982 19.45C124.815 19.45 125.615 19.6333 126.382 20C127.148 20.3667 127.832 20.9 128.432 21.6C129.032 22.2667 129.498 23.0833 129.832 24.05C130.198 24.9833 130.382 26.0333 130.382 27.2C130.382 28.4667 130.215 29.6833 129.882 30.85C129.548 32.0167 129.065 33.05 128.432 33.95C127.832 34.85 127.098 35.5667 126.232 36.1C125.365 36.6333 124.415 36.9 123.382 36.9C121.482 36.9 120.065 36.1167 119.132 34.55C118.198 32.9833 117.732 30.9333 117.732 28.4ZM123.532 31.35C124.332 31.35 124.915 30.9667 125.282 30.2C125.682 29.4 125.882 28.3833 125.882 27.15C125.882 26.5833 125.715 26.1 125.382 25.7C125.082 25.2667 124.648 25.05 124.082 25.05C123.715 25.05 123.398 25.1667 123.132 25.4C122.865 25.6 122.632 25.8833 122.432 26.25C122.265 26.5833 122.132 26.9667 122.032 27.4C121.932 27.8333 121.882 28.2667 121.882 28.7C121.882 29.5333 122.015 30.1833 122.282 30.65C122.548 31.1167 122.965 31.35 123.532 31.35Z" fill="url(#paint6_linear)"/>
<path d="M147.697 31.15C148.164 30.35 148.581 29.5167 148.947 28.65C149.347 27.75 149.714 26.9667 150.047 26.3C150.314 25.8 150.531 25.3333 150.697 24.9C150.864 24.4667 151.064 24.05 151.297 23.65C151.564 23.15 151.897 22.75 152.297 22.45C152.697 22.15 153.097 22 153.497 22C153.964 22 154.397 22.15 154.797 22.45C155.197 22.75 155.397 23.1667 155.397 23.7C155.397 24.3 155.297 24.85 155.097 25.35C154.931 25.85 154.731 26.3833 154.497 26.95C154.164 27.75 153.747 28.6333 153.247 29.6C152.781 30.5333 152.264 31.5 151.697 32.5C151.131 33.5 150.531 34.5 149.897 35.5C149.297 36.4667 148.681 37.4 148.047 38.3C148.114 39.1667 148.164 39.9333 148.197 40.6C148.231 41.2667 148.247 42.0667 148.247 43C148.247 44.1333 148.114 45.25 147.847 46.35C147.581 47.4833 147.214 48.5 146.747 49.4C146.281 50.3 145.714 51.0167 145.047 51.55C144.414 52.1167 143.714 52.4 142.947 52.4C141.781 52.4 140.881 51.9833 140.247 51.15C139.614 50.35 139.297 49.2333 139.297 47.8C139.297 46.9 139.397 45.95 139.597 44.95C139.831 43.95 140.131 42.95 140.497 41.95C140.897 40.9833 141.347 40.05 141.847 39.15C142.347 38.25 142.881 37.4333 143.447 36.7C143.381 36.1667 143.331 35.6333 143.297 35.1C143.264 34.5333 143.231 33.9667 143.197 33.4C142.731 34.2 142.114 34.9 141.347 35.5C140.581 36.1 139.697 36.4 138.697 36.4C137.264 36.4 136.081 35.8667 135.147 34.8C134.247 33.7333 133.797 32.05 133.797 29.75C133.797 28.2167 134.031 26.7167 134.497 25.25C134.964 23.75 135.581 22.4333 136.347 21.3C137.147 20.1333 138.064 19.2 139.097 18.5C140.164 17.8 141.281 17.45 142.447 17.45C143.481 17.45 144.364 17.6167 145.097 17.95C145.864 18.25 146.481 18.65 146.947 19.15C147.414 19.65 147.764 20.2 147.997 20.8C148.231 21.3667 148.347 21.9 148.347 22.4C148.347 22.8333 148.297 23.15 148.197 23.35C148.131 23.5167 147.981 23.7333 147.747 24C147.581 24.2 147.481 24.4167 147.447 24.65C147.447 24.8833 147.447 25.0833 147.447 25.25C147.447 25.8167 147.447 26.3333 147.447 26.8C147.481 27.2333 147.497 27.6833 147.497 28.15C147.531 28.5833 147.564 29.05 147.597 29.55C147.631 30.0167 147.664 30.55 147.697 31.15ZM139.597 31.2C139.931 31.2 140.247 31.0667 140.547 30.8C140.847 30.5333 141.114 30.2 141.347 29.8C141.581 29.3667 141.781 28.9 141.947 28.4C142.147 27.8667 142.297 27.35 142.397 26.85C142.597 25.9167 142.697 25.0333 142.697 24.2C142.697 23.7333 142.631 23.3333 142.497 23C142.364 22.6333 142.097 22.45 141.697 22.45C141.364 22.45 141.014 22.6667 140.647 23.1C140.281 23.5333 139.947 24.1 139.647 24.8C139.347 25.4667 139.097 26.2167 138.897 27.05C138.697 27.85 138.597 28.6167 138.597 29.35C138.597 29.8167 138.681 30.25 138.847 30.65C139.047 31.0167 139.297 31.2 139.597 31.2Z" fill="url(#paint7_linear)"/>
<path d="M165.373 31.15C165.84 30.35 166.256 29.5167 166.623 28.65C167.023 27.75 167.39 26.9667 167.723 26.3C167.99 25.8 168.206 25.3333 168.373 24.9C168.54 24.4667 168.74 24.05 168.973 23.65C169.24 23.15 169.573 22.75 169.973 22.45C170.373 22.15 170.773 22 171.173 22C171.64 22 172.073 22.15 172.473 22.45C172.873 22.75 173.073 23.1667 173.073 23.7C173.073 24.3 172.973 24.85 172.773 25.35C172.606 25.85 172.406 26.3833 172.173 26.95C171.84 27.75 171.423 28.6333 170.923 29.6C170.456 30.5333 169.94 31.5 169.373 32.5C168.806 33.5 168.206 34.5 167.573 35.5C166.973 36.4667 166.356 37.4 165.723 38.3C165.79 39.1667 165.84 39.9333 165.873 40.6C165.906 41.2667 165.923 42.0667 165.923 43C165.923 44.1333 165.79 45.25 165.523 46.35C165.256 47.4833 164.89 48.5 164.423 49.4C163.956 50.3 163.39 51.0167 162.723 51.55C162.09 52.1167 161.39 52.4 160.623 52.4C159.456 52.4 158.556 51.9833 157.923 51.15C157.29 50.35 156.973 49.2333 156.973 47.8C156.973 46.9 157.073 45.95 157.273 44.95C157.506 43.95 157.806 42.95 158.173 41.95C158.573 40.9833 159.023 40.05 159.523 39.15C160.023 38.25 160.556 37.4333 161.123 36.7C161.056 36.1667 161.006 35.6333 160.973 35.1C160.94 34.5333 160.906 33.9667 160.873 33.4C160.406 34.2 159.79 34.9 159.023 35.5C158.256 36.1 157.373 36.4 156.373 36.4C154.94 36.4 153.756 35.8667 152.823 34.8C151.923 33.7333 151.473 32.05 151.473 29.75C151.473 28.2167 151.706 26.7167 152.173 25.25C152.64 23.75 153.256 22.4333 154.023 21.3C154.823 20.1333 155.74 19.2 156.773 18.5C157.84 17.8 158.956 17.45 160.123 17.45C161.156 17.45 162.04 17.6167 162.773 17.95C163.54 18.25 164.156 18.65 164.623 19.15C165.09 19.65 165.44 20.2 165.673 20.8C165.906 21.3667 166.023 21.9 166.023 22.4C166.023 22.8333 165.973 23.15 165.873 23.35C165.806 23.5167 165.656 23.7333 165.423 24C165.256 24.2 165.156 24.4167 165.123 24.65C165.123 24.8833 165.123 25.0833 165.123 25.25C165.123 25.8167 165.123 26.3333 165.123 26.8C165.156 27.2333 165.173 27.6833 165.173 28.15C165.206 28.5833 165.24 29.05 165.273 29.55C165.306 30.0167 165.34 30.55 165.373 31.15ZM157.273 31.2C157.606 31.2 157.923 31.0667 158.223 30.8C158.523 30.5333 158.79 30.2 159.023 29.8C159.256 29.3667 159.456 28.9 159.623 28.4C159.823 27.8667 159.973 27.35 160.073 26.85C160.273 25.9167 160.373 25.0333 160.373 24.2C160.373 23.7333 160.306 23.3333 160.173 23C160.04 22.6333 159.773 22.45 159.373 22.45C159.04 22.45 158.69 22.6667 158.323 23.1C157.956 23.5333 157.623 24.1 157.323 24.8C157.023 25.4667 156.773 26.2167 156.573 27.05C156.373 27.85 156.273 28.6167 156.273 29.35C156.273 29.8167 156.356 30.25 156.523 30.65C156.723 31.0167 156.973 31.2 157.273 31.2Z" fill="url(#paint8_linear)"/>
<defs>
<linearGradient id="paint0_linear" x1="-8" y1="26" x2="244.5" y2="26" gradientUnits="userSpaceOnUse">
<stop stop-color="#0B5B3E"/>
<stop offset="1" stop-color="#5AC817"/>
</linearGradient>
<linearGradient id="paint1_linear" x1="-8" y1="26" x2="244.5" y2="26" gradientUnits="userSpaceOnUse">
<stop stop-color="#0B5B3E"/>
<stop offset="1" stop-color="#5AC817"/>
</linearGradient>
<linearGradient id="paint2_linear" x1="-8" y1="26" x2="244.5" y2="26" gradientUnits="userSpaceOnUse">
<stop stop-color="#0B5B3E"/>
<stop offset="1" stop-color="#5AC817"/>
</linearGradient>
<linearGradient id="paint3_linear" x1="-8" y1="26" x2="244.5" y2="26" gradientUnits="userSpaceOnUse">
<stop stop-color="#0B5B3E"/>
<stop offset="1" stop-color="#5AC817"/>
</linearGradient>
<linearGradient id="paint4_linear" x1="-8" y1="26" x2="244.5" y2="26" gradientUnits="userSpaceOnUse">
<stop stop-color="#0B5B3E"/>
<stop offset="1" stop-color="#5AC817"/>
</linearGradient>
<linearGradient id="paint5_linear" x1="-8" y1="26" x2="244.5" y2="26" gradientUnits="userSpaceOnUse">
<stop stop-color="#0B5B3E"/>
<stop offset="1" stop-color="#5AC817"/>
</linearGradient>
<linearGradient id="paint6_linear" x1="-8" y1="26" x2="244.5" y2="26" gradientUnits="userSpaceOnUse">
<stop stop-color="#0B5B3E"/>
<stop offset="1" stop-color="#5AC817"/>
</linearGradient>
<linearGradient id="paint7_linear" x1="-8" y1="26" x2="244.5" y2="26" gradientUnits="userSpaceOnUse">
<stop stop-color="#0B5B3E"/>
<stop offset="1" stop-color="#5AC817"/>
</linearGradient>
<linearGradient id="paint8_linear" x1="-8" y1="26" x2="244.5" y2="26" gradientUnits="userSpaceOnUse">
<stop stop-color="#0B5B3E"/>
<stop offset="1" stop-color="#5AC817"/>
</linearGradient>
</defs>
</svg>
